<?xml version="1.0" encoding="UTF-8" standalone="no"?>
<svg width="12px" height="8px" viewBox="0 0 12 8" version="1.1" xmlns="http://www.w3.org/2000/svg" xmlns:xlink="http://www.w3.org/1999/xlink" xmlns:sketch="http://www.bohemiancoding.com/sketch/ns">
    <!-- Generator: Sketch 3.4.2 (15855) - http://www.bohemiancoding.com/sketch -->
    <title>Untitled 2</title>
    <desc>Created with Sketch.</desc>
    <defs></defs>
    <g id="Page-1" stroke="none" stroke-width="1" fill="none" fill-rule="evenodd" sketch:type="MSPage">
        <path d="M10.3419722,3.88259978 L10.2162105,3.88259978 C6.92524331,3.88259978 3.63427611,3.88259978 0.343308905,3.88258112 C0.166220622,3.88258112 0.0632314804,3.82008649 0.0171736752,3.68516975 C-0.0451325456,3.50263094 0.0685886838,3.31055652 0.253385682,3.2881637 C0.288340108,3.28392773 0.324001756,3.28555121 0.359327474,3.28555121 C3.64734202,3.2854579 6.93537425,3.2854579 10.2233888,3.2854579 L10.3450486,3.2854579 C10.1814682,3.09146144 10.031608,2.91360646 9.88162398,2.73591943 C9.26855128,2.00962696 8.65540785,1.2834278 8.04249427,0.557004702 C8.01903219,0.529200283 7.99519883,0.501171936 7.97571487,0.470325826 C7.88672872,0.329400343 7.9065486,0.167015074 8.02309872,0.0690651453 C8.14405129,-0.0325982593 8.30497956,-0.0222229191 8.41281317,0.101497414 C8.67597032,0.403371293 8.93654611,0.707745704 9.19797056,1.01129905 C9.86137976,1.78166805 10.5251249,2.55170116 11.1877561,3.32283525 C11.3606365,3.52401608 11.357949,3.64775508 11.1862887,3.84703252 C10.2751751,4.90466408 9.36409691,5.96229565 8.45406187,7.02095356 C8.37946767,7.1077444 8.29843776,7.17469893 8.18151635,7.1652193 C8.07373578,7.15646744 7.9898593,7.10134378 7.94410207,6.99708654 C7.89355341,6.88195013 7.91183508,6.77013531 7.98839182,6.67476055 C8.10255506,6.53252882 8.22143901,6.39453307 8.33906764,6.25541767 C8.9899767,5.48558983 9.6411156,4.71598591 10.2920777,3.94621405 C10.3052143,3.93068836 10.3172725,3.91417366 10.3419722,3.88259978" id="Imported-Layers-Copy-3" fill="#000000" sketch:type="MSShapeGroup"></path>
    </g>
</svg>