<?xml version="1.0" encoding="utf-8"?>
<!-- Generator: Adobe Illustrator 19.1.0, SVG Export Plug-In . SVG Version: 6.00 Build 0)  -->
<svg version="1.1" id="Layer_1" xmlns="http://www.w3.org/2000/svg" xmlns:xlink="http://www.w3.org/1999/xlink" x="0px" y="0px"
	 viewBox="0 0 112.2 34.7" style="enable-background:new 0 0 112.2 34.7;" xml:space="preserve">
<style type="text/css">
	.st0{clip-path:url(#SVGID_2_);}
	.st1{clip-path:url(#SVGID_4_);}
	.st2{clip-path:url(#SVGID_6_);}
	.st3{clip-path:url(#SVGID_8_);}
	.st4{clip-path:url(#SVGID_10_);}
	.st5{clip-path:url(#SVGID_12_);}
	.st6{clip-path:url(#SVGID_14_);}
	.st7{clip-path:url(#SVGID_16_);}
</style>
<g>
	<defs>
		<path id="SVGID_1_" d="M74.1,5.6c-2.8,0.3-4.7,2.5-5.2,5.1c0.8,0.1,1.5,0,2-0.1c-0.3,0.7-0.9,0.5-2.1,0.6
			c-1.3,3.4-2.1,13.3-7.4,12c-1.1-0.3-2-1.9-1-3.4c0.3,0.8,0.7,4,2.6,2.4c2.1-1.8,3.2-8.6,4.3-11c-0.3-0.1-2,0.2-1.9-0.3
			c0.9-0.2,1.4-0.1,2.1-0.2C68.3,8.1,70.7,3.3,74.1,5.6"/>
	</defs>
	<clipPath id="SVGID_2_">
		<use xlink:href="#SVGID_1_"  style="overflow:visible;"/>
	</clipPath>
	<rect x="54.9" class="st0" width="24.2" height="28.4"/>
</g>
<g>
	<defs>
		<path id="SVGID_3_" d="M58.6,6.6c0.7,0.1-0.1,3.5-0.3,4.5c1.3,0,2.2,0,2.7,0c0.1,0-0.1,0.2-0.1,0.2c-0.9,0-2,0-2.7,0
			c0,0-2.5,5.5-2.2,6.4c0.6,1.8,2.5,0,3.6-0.6c-0.3,1.7-3,2.3-4.2,1.2c-1-1,1-5,1.7-7c-0.6,0-1.3,0-2.1,0c0-0.1,0-0.2,0.1-0.2
			c0.6-0.1,1.4-0.2,2-0.1C57.7,9.9,57.9,7.7,58.6,6.6"/>
	</defs>
	<clipPath id="SVGID_4_">
		<use xlink:href="#SVGID_3_"  style="overflow:visible;"/>
	</clipPath>
	<rect x="49.9" y="1.6" class="st1" width="16" height="22.3"/>
</g>
<g>
	<defs>
		<path id="SVGID_5_" d="M5,17.6c0-1,0.2-1.3,0.9-1.3c-0.5,2,1.8,2.4,2.6,1.4c1.5-1.8-1.7-2-1.8-4.2c-0.1-2.7,4.7-5.2,5.4-1
			c-1.3-1.9-2.7-1.3-3.1-1c-2.7,2.3,1.7,3.4,1.4,5.8C10,20,5.5,20.3,5,17.6"/>
	</defs>
	<clipPath id="SVGID_6_">
		<use xlink:href="#SVGID_5_"  style="overflow:visible;"/>
	</clipPath>
	<rect y="5.3" class="st2" width="17" height="19.2"/>
</g>
<g>
	<defs>
		<path id="SVGID_7_" d="M19.2,10.9c0.2,0.6-1.1,2.8-0.7,5.3c2.3-0.4,2.8-4.5,3.5-4.6c0.5,0.2-1.6,4-0.5,5.8c1.6-1,2.4-2.1,3.6-3.5
			c1-1.2,0.5-1.9,0.2-2.7c3.3,0.5,0.4,3.8-1.1,4.9c-2.3,1.7-2.3,3.1-3.7,3.2c-0.2,0,0.4-2.6,0-3.5c-1.5,0.7-2.1,2.3-3.2,3.4
			c-0.9-0.3,0.1-1.2,0.2-1.8c0.2-1-0.8-3.5-0.3-4.9C17.6,11.4,18.3,10.3,19.2,10.9"/>
	</defs>
	<clipPath id="SVGID_8_">
		<use xlink:href="#SVGID_7_"  style="overflow:visible;"/>
	</clipPath>
	<rect x="11.9" y="5.8" class="st3" width="19.9" height="18.6"/>
</g>
<g>
	<defs>
		<path id="SVGID_9_" d="M86.8,17.5c2.1,1,4.3-4.2,3.8-4.4C87.9,12.4,85,16.1,86.8,17.5z M92.1,12.3c-0.7,1.2-3,5.2,0.1,5.6
			c-0.7,1.2-1.7-0.3-2.2-0.6c-1.4,0.3-3.3,2-4.3,0.9C82.2,13.9,89.4,8.4,92.1,12.3z"/>
	</defs>
	<clipPath id="SVGID_10_">
		<use xlink:href="#SVGID_9_"  style="overflow:visible;"/>
	</clipPath>
	<rect x="79.8" y="6" class="st4" width="17.4" height="17.6"/>
</g>
<g>
	<defs>
		<path id="SVGID_11_" d="M91.9,27.4c0.5,1,5.2,0.6,7.5-3.6C96.8,22.4,91.2,24.6,91.9,27.4z M100.5,17.6c2.9,1,4.1-4.3,2.4-4.8
			C100.1,12.5,98.2,16.5,100.5,17.6z M107.2,11.3c-3.5,6.1-5.3,13.9-11.1,17.8c-1.2,0.7-3.7,1-4.5-0.1c-2.7-4.7,4.9-7.8,7.9-5.6
			c1-1.6,1.9-3.2,2.7-5c-0.8-0.4-1.6,0.1-2.8-0.7c-2.1-1.8-0.6-5.2,1.7-5.8c1-0.2,1.6,0.5,2.5,0.5C105.1,12.3,105.9,10.7,107.2,11.3
			z"/>
	</defs>
	<clipPath id="SVGID_12_">
		<use xlink:href="#SVGID_11_"  style="overflow:visible;"/>
	</clipPath>
	<rect x="86.1" y="6.1" class="st5" width="26.1" height="28.5"/>
</g>
<g>
	<defs>
		<path id="SVGID_13_" d="M79.3,17c0.3,0.3-0.1,1.7-0.8,1.7C72.7,18,80,9.7,80,5.4c2.3,2.9-4.8,10.2-2,12.6
			C78.8,18.2,79,17.5,79.3,17"/>
	</defs>
	<clipPath id="SVGID_14_">
		<use xlink:href="#SVGID_13_"  style="overflow:visible;"/>
	</clipPath>
	<rect x="71.3" y="0.4" class="st6" width="14.2" height="23.2"/>
</g>
<g>
	<g>
		<defs>
			<path id="SVGID_15_" d="M32.6,14.8c1.5-0.1,4.2-0.6,4-1.2C36.1,11.4,33,13.1,32.6,14.8z M37.8,13.4c0.6,1.2-3.7,1.7-5.7,2.5
				c-1.2,2.5,2.4,3.2,3.9,1.7c-0.6,1.9-4.8,2.4-5.3,0.1C29.9,13.8,35.2,9.2,37.8,13.4z M44.9,14.7c1.5-0.1,4.2-0.6,4-1.2
				C48.3,11.3,45.3,12.9,44.9,14.7z M50.1,13.3c0.6,1.2-3.7,1.7-5.7,2.5c-1.2,2.5,2.4,3.2,3.9,1.7c-0.6,1.9-4.8,2.4-5.3,0.1
				C42.1,13.7,47.5,9,50.1,13.3z"/>
		</defs>
		<clipPath id="SVGID_16_">
			<use xlink:href="#SVGID_15_"  style="overflow:visible;"/>
		</clipPath>
		<rect x="25.6" y="6.6" class="st7" width="29.5" height="17.6"/>
	</g>
</g>
</svg>
