<?xml version="1.0" encoding="utf-8"?>
<!-- Generator: Adobe Illustrator 19.1.0, SVG Export Plug-In . SVG Version: 6.00 Build 0)  -->
<svg version="1.1" id="Layer_1" xmlns:sketch="http://www.bohemiancoding.com/sketch/ns"
	 xmlns="http://www.w3.org/2000/svg" xmlns:xlink="http://www.w3.org/1999/xlink" x="0px" y="0px" viewBox="-140 483 39 59"
	 style="enable-background:new -140 483 39 59;" xml:space="preserve">
<style type="text/css">
	.st0{fill:#0B0B09;}
</style>
<title>Untitled 2</title>
<desc>Created with Sketch.</desc>
<g id="Page-1" sketch:type="MSPage">
	
		<g id="Imported-Layers-Copy-4" transform="translate(18.968322, 29.760437) rotate(-90.000000) translate(-18.968322, -29.760437) translate(-10.000000, 11.000000)" sketch:type="MSLayerGroup">
		<path id="Fill-1" sketch:type="MSShapeGroup" class="st0" d="M-447.8-107.7c-0.5,0.3-0.5,1.1-0.7,1.7c-0.2-0.1-0.4,0.1-0.2,0.2
			c-0.6,0.2-1,1.2-1.7,1.5c-0.8-0.2-1.7-0.3-2.6-0.3c0.5,0.2-0.4,0.2-0.6,0.3c-0.7,0.3-0.8,1.4-1.7,1.4c-0.1-0.3,0-0.3-0.1-0.6
			c-1.1,0-1.4-0.6-2.4-0.9c0-0.1,0.1-0.1,0.1-0.3c-0.4,0.1-0.4-0.1-0.6-0.2c0.1-0.1,0.1-0.2,0.1-0.4c-0.3-0.4-0.5-0.8-1-1
			c0-0.4,0.2-0.5,0.4-0.7c0-0.2,0-0.4,0-0.5c0.9-1.4,2.5-3.3,4.5-3.7c1.8-0.4,3.8-0.1,5.7,0.4c0.3,0.8,0,1.6,0.3,2.4
			c0.1,0.2,0.2-0.1,0.4,0.1C-447.8-108.1-448-107.7-447.8-107.7L-447.8-107.7z M-453.6-104.8c-0.1,0.2-0.4,0.2-0.4,0.4
			c0.2-0.1,0.8-0.2,0.6-0.4C-453.4-104.5-453.5-104.7-453.6-104.8L-453.6-104.8z"/>
		<path id="Fill-2" sketch:type="MSShapeGroup" class="st0" d="M-451.5-127.7c-0.9,1.5-2.7,2.1-4.5,2.5c-5.6,0.6-11.1-0.6-16.6-0.1
			c-2.7,0.3-5.7-0.4-8.3-0.1c-0.3,0.1,0-0.2,0-0.2c-0.3-0.2-1.3,0-1.4-0.6c8.4-1.6,17.9,0.3,25.3-0.9c1.1-0.2,2.1-0.9,3-1.6
			c-0.1-0.6,0.3-0.7,0.3-1.1c0.1-0.4-0.4-0.3-0.4-0.6c0-0.5,0.5-1,0.4-1.5c0-0.2-0.3-0.3-0.3-0.5c0-0.2,0.3-0.5,0.3-0.8
			c0-0.2-0.3-0.5-0.3-0.7c0-0.3,0.3-0.7,0.3-1.1c0-0.3-0.1-0.5-0.1-0.7c0.1-0.5,0.5-0.7,0.5-1.2c1.3,0.3,1.7,1.6,2.3,2.6
			c0.1-1,0.4,0.8,0.5,1.5c0,0.7-0.3,1.8-0.3,2.7c-0.7,0.3-1.1,0.9-1.4,1.5C-451.7-128.4-452-127.6-451.5-127.7"/>
		<path id="Fill-3" sketch:type="MSShapeGroup" class="st0" d="M-454.8-133.7c-0.1,0.4-0.6,0.5-0.8,0.9c0.2,0.4,0,0.8-0.2,1
			c-1.2,0.2-1.2-0.2-2.4-0.1c-0.1-0.6-0.8-0.5-1.3-0.4c-0.1-0.2-0.4-0.2-0.3-0.6c-0.6,0.1-0.7-0.3-1.1-0.4c0.2-0.3-0.1-0.8-0.3-1
			c0.2-2.3,1.2-3.7,2.2-5.1c0.4-0.2,0.6,0.2,0.6-0.4c0.2,0,0,0.3,0.1,0.4c0.4,0,0.5-0.4,0.9-0.5c0.7,0.3,0.9,1.2,1.4,1.4
			c0.2,1.6-0.1,2.3-0.1,4C-455.6-134.3-455-134.2-454.8-133.7"/>
		<path id="Fill-4" sketch:type="MSShapeGroup" class="st0" d="M-435.4-136.3C-435.5-136.2-435.5-136.2-435.4-136.3
			c-0.5,1.4,1.3,2,2.7,2.2c0.1,0.2,0.1,0.5,0.3,0.6c0.5-0.1,0.6,0.8,1,1.3c-0.2,0.3-0.5,0.6-0.3,1.1c-0.8,0.1-1.7,0.4-2.3-0.1
			c-0.3,0.1,0.2,0.3,0.1,0.5c-0.2-0.1-0.4-0.1-0.7-0.1c0.1,0.3,0.3,0.5,0.2,1c-0.6,0-1.1-0.1-1.4-0.3c-0.1,0.3,0,0.5-0.1,1.1
			c-0.8,0-1-0.6-1.3-1.1c-1.5-0.5-2.4-1.9-2.7-3.8c-0.4-2.3,0.6-4,2.3-4.9c-0.1-0.1-0.1-0.4-0.4-0.3c1-0.9,2.7,0.4,2.4,1.7
			c-0.3,0.2-0.3-0.3-0.6-0.1C-436.3-137.1-435.4-136.7-435.4-136.3"/>
		<path id="Fill-5" sketch:type="MSShapeGroup" class="st0" d="M-483-117.3c0.1-0.2,0.7-0.1,1.3-0.2c1.4-0.2,3.3-0.5,4.7-0.7
			c2.6-0.3,5.7,0,8.5,0.2c5.6,0.3,11.3,0,15.9,0.8c2.1,0.4,4.4,1.7,5.6,3.2c1.5,1.9,1.9,7,0.5,9.4c-0.3,0-0.9,0.6-1,0.4
			c0.4-0.1,0.6-0.4,1-0.6c1.9-4.9-0.3-10.3-4.7-11.1c-3.2-0.6-8-0.8-11.7-1.1c-2.1-0.2-4.3-0.3-6.3-0.4c-4.1-0.1-7.8-0.2-11.9,0.2
			C-481.8-117.2-482.6-116.8-483-117.3"/>
		<path id="Fill-6" sketch:type="MSShapeGroup" class="st0" d="M-448-104.1c0.1,0.1-0.5,0.7-0.7,0.4
			C-448.5-103.8-448.1-103.8-448-104.1"/>
		<path id="Fill-7" sketch:type="MSShapeGroup" class="st0" d="M-453.4-104.7c0.2,0.2-0.4,0.3-0.6,0.4c0.1-0.2,0.3-0.3,0.4-0.4
			C-453.5-104.7-453.4-104.5-453.4-104.7"/>
		<path id="Fill-8" sketch:type="MSShapeGroup" class="st0" d="M-482-121.5c0.1-1,1.3-1.1,2.1-1.2c1-0.1,2.2-0.1,3.2-0.1
			c2,0,4.1-0.4,6-0.6c2.1-0.2,4.4,0.1,6.5,0.4c2.1,0.2,4,0.3,6.3,0.2c4.5-0.3,8.8,0.9,12.7,0.9c1.5,0,3.1-0.1,5-0.1
			c1.8,0,3.6,0.3,5.5,0.4c3.1,0.1,7.7,0,8.4-2.6c0.2-0.7,0.1-1.7,0.1-2.7c0-2.1,0.1-3.8-0.4-5.5c-0.2-0.8-0.7-1.5,0.1-2
			c0.6-0.3,0.8,0.6,0.9,1c0.8,3.3,0.3,7,0.1,10.3c-0.8,0.9-1.4,2.1-2.7,2.7c-1.9,0.8-3.6,1.5-5.9,0.9c-1.3,0.6-3,0.1-5.2,0
			c-2.6-0.1-4.4-0.1-6.9-0.3c-1.8-0.1-3.5-0.6-5.2-0.6c-0.8,0-1.5,0.1-2.2,0c-0.4,0-0.8-0.3-1.2-0.3c-0.9-0.1-2,0.1-3,0
			c-1.4-0.1-3.2-0.5-5.3-0.5c-0.4,0-0.8,0.2-1.2,0.2c-1.1,0.1-2.1-0.2-3.2-0.2C-472.3-121.3-477.4-120.9-482-121.5"/>
	</g>
</g>
</svg>
