<?xml version="1.0" standalone="no"?>
<!DOCTYPE svg PUBLIC "-//W3C//DTD SVG 1.1//EN" "http://www.w3.org/Graphics/SVG/1.1/DTD/svg11.dtd" >
<svg xmlns="http://www.w3.org/2000/svg">
<metadata>
Created by FontPrep 20130207 at Tue Dec  8 13:12:19 2015
 By Rye
Copyright (c) 2013 by Anton Koovit. All rights reserved.
</metadata>
<defs>
<font id="e9ed6071382e49f6725b6d8deaafa36d" horiz-adv-x='1024' >
  <font-face 
    font-family="U8-HairlineItalic"
    font-weight="250"
    font-style="italic"
    font-stretch="normal"
    units-per-em="2048"
    panose-1="2 11 2 3 3 2 0 2 2 4"
    ascent="1638"
    descent="-410"
    x-height="1012"
    cap-height="1583"
    bbox="-379 -419 2518 2343"
    underline-thickness="51"
    underline-position="-51"
    slope="-12"
    unicode-range="U+000D-FB04"
  />
<missing-glyph horiz-adv-x="1222" 
d="M179 23h864l310 1470h-865zM150 0l320 1516h911l-319 -1516h-912z" />
    <glyph glyph-name="f_f" unicode="ff" horiz-adv-x="1110" 
d="M744 1597q128 0 197 -77l-18 -17q-59 71 -179 71t-200 -70t-107 -195l-62 -297h485l65 303q29 134 114 208q87 74 215 74t197 -77l-18 -17q-59 71 -179 71t-200 -70t-107 -195l-62 -297h235l-4 -23h-236l-208 -989h-25l209 989h-486l-208 -989h-25l209 989h-201l5 23h200
l65 303q29 134 114 208q87 74 215 74z" />
    <glyph glyph-name="fi" unicode="fi" horiz-adv-x="977" 
d="M955 1316q-14 0 -24 10t-10 24t10 25q10 10 24 10q15 0 25 -10t10 -24t-10 -25q-11 -10 -25 -10zM654 0l213 1012h25l-213 -1012h-25zM724 1597q108 0 171 -39l-13 -20q-59 36 -159 36q-99 0 -179 -70t-107 -195l-62 -297h235l-4 -23h-236l-208 -989h-25l209 989h-201
l5 23h200l65 303q29 134 114 208q87 74 195 74z" />
    <glyph glyph-name="fl" unicode="fl" horiz-adv-x="930" 
d="M734 1597q120 0 187 -58l12 58h26l-337 -1597h-27l319 1511q-60 63 -176 63t-194 -70q-80 -70 -107 -195l-62 -297h235l-4 -23h-236l-208 -989h-25l209 989h-201l5 23h200l65 303q29 134 114 208t205 74z" />
    <glyph glyph-name="f_f_i" unicode="ffi" horiz-adv-x="1487" 
d="M1465 1316q-14 0 -24 10t-10 24t10 25q10 10 24 10q15 0 25 -10t10 -24t-10 -25q-11 -10 -25 -10zM1164 0l213 1012h25l-213 -1012h-25zM744 1597q128 0 197 -77l-18 -17q-59 71 -179 71t-200 -70t-107 -195l-62 -297h485l65 303q29 134 114 208q87 74 195 74t171 -39
l-13 -20q-59 36 -159 36q-99 0 -179 -70t-107 -195l-62 -297h235l-4 -23h-236l-208 -989h-25l209 989h-486l-208 -989h-25l209 989h-201l5 23h200l65 303q29 134 114 208q87 74 215 74z" />
    <glyph glyph-name="f_f_l" unicode="ffl" horiz-adv-x="1440" 
d="M744 1597q128 0 197 -77l-18 -17q-59 71 -179 71t-200 -70t-107 -195l-62 -297h485l65 303q29 134 114 208t205 74t187 -58l12 58h26l-337 -1597h-27l319 1511q-60 63 -176 63t-194 -70q-80 -70 -107 -195l-62 -297h235l-4 -23h-236l-208 -989h-25l209 989h-486
l-208 -989h-25l209 989h-201l5 23h200l65 303q29 134 114 208q87 74 215 74z" />
    <glyph glyph-name="f_j" unicode="fj" horiz-adv-x="977" 
d="M955 1316q-14 0 -24 10t-10 24t10 25q10 10 24 10q15 0 25 -10t10 -24t-10 -25q-11 -10 -25 -10zM894 1012l-243 -1141q-29 -134 -109 -208t-199 -81l-2 24q111 6 185 75t102 195l240 1136h26zM724 1597q108 0 171 -39l-13 -20q-59 36 -159 36q-99 0 -179 -70t-107 -195
l-62 -297h235l-4 -23h-236l-208 -989h-25l209 989h-201l5 23h200l65 303q29 134 114 208q87 74 195 74z" />
    <glyph glyph-name="f_b" unicode="fb" horiz-adv-x="1792" 
d="M1220 1002q-247 0 -423 -174l-125 -590q162 -237 430 -237q160 0 292 76q132 77 205 201t73 258q0 275 -214 404q-108 62 -238 62zM734 1597q120 0 187 -58l12 58h26l-154 -731q175 160 422 160q131 0 243 -66t170 -175t58 -249t-78 -271q-78 -130 -215 -209
q-139 -79 -291 -79t-266 63t-184 162l-42 -202h-27l319 1511q-60 63 -176 63t-194 -70q-80 -70 -107 -195l-62 -297h235l-4 -23h-236l-208 -989h-25l209 989h-201l5 23h200l65 303q29 134 114 208t205 74z" />
    <glyph glyph-name=".notdef" horiz-adv-x="1222" 
d="M179 23h864l310 1470h-865zM150 0l320 1516h911l-319 -1516h-912z" />
    <glyph glyph-name=".null" horiz-adv-x="1024" 
 />
    <glyph glyph-name=".null" horiz-adv-x="1024" 
 />
    <glyph glyph-name="nonmarkingreturn" horiz-adv-x="681" 
 />
    <glyph glyph-name="CR" unicode="&#xd;" horiz-adv-x="409" 
 />
    <glyph glyph-name="space" unicode=" " horiz-adv-x="569" 
 />
    <glyph glyph-name="exclam" unicode="!" horiz-adv-x="481" 
d="M176 332l253 1251h47l-286 -1255zM92 26q0 13 10 23t24 10t24 -10t10 -23q0 -14 -10 -24t-24 -10t-24 10q-10 11 -10 24z" />
    <glyph glyph-name="quotedbl" unicode="&#x22;" horiz-adv-x="823" 
d="M803 1581l-103 -471l-24 4l102 471zM496 1581l-103 -471l-24 4l102 471z" />
    <glyph glyph-name="numbersign" unicode="#" horiz-adv-x="1235" 
d="M508 919l-200 -502h403l199 502h-402zM545 0l156 394h-402l-157 -394h-27l156 394h-301l4 23h307l199 502h-317l4 22h322l158 396h28l-158 -396h403l157 396h28l-158 -396h309l-4 -22h-314l-200 -502h326l-4 -23h-331l-157 -394h-27z" />
    <glyph glyph-name="dollar" unicode="$" horiz-adv-x="1089" 
d="M360 1030q0 -88 50 -146t153 -103l36 -15l123 583q-147 -6 -241 -79q-121 -100 -121 -240zM721 687l-105 45l-148 -702q99 1 185 36q161 66 230 210q32 68 32 136q1 191 -194 275zM941 412q0 -151 -131 -276q-60 -57 -152 -93t-195 -37l-53 -250l-25 4l52 246
q-125 4 -228 62t-158 145l22 15q55 -84 152 -139t217 -59l152 711l-39 18q-111 48 -165 112q-54 63 -55 169q0 106 90 210q45 52 123 86t179 36l41 191l25 -4l-40 -186q245 -2 316 -140l-19 -8q-63 125 -302 125l-126 -594l107 -46q212 -91 212 -298z" />
    <glyph glyph-name="percent" unicode="%" horiz-adv-x="1767" 
d="M314 -5l1340 1630l20 -17l-1339 -1631zM1712 524q0 124 -72 211t-192 87t-218 -86t-128 -228q-35 -150 -35 -205q0 -123 72 -209q71 -86 193 -86t218 85t127 229q9 26 17 71q10 45 14 66t4 65zM528 1530q-120 0 -217 -86q-98 -86 -129 -227q-34 -144 -35 -205
q1 -123 73 -209t194 -86q122 1 217 85q96 84 127 228q5 16 15 66q11 50 15 72t5 65q-1 125 -73 211t-192 86zM412 692q-132 0 -211 93q-78 93 -78 227q0 44 8 82l27 127q34 153 138 243t234 90t208 -95t79 -226q-1 -46 -13 -100t-22 -109q-34 -154 -136 -243t-234 -89z
M1331 -16q-132 0 -210 93t-79 226q0 44 9 82l26 127q34 154 138 244t234 90t209 -95t79 -227q-1 -46 -13 -100t-22 -109q-34 -155 -136 -243t-235 -88z" />
    <glyph glyph-name="ampersand" unicode="&#x26;" horiz-adv-x="1191" 
d="M993 1298q0 100 -66 174t-179 74q-150 0 -248 -104t-99 -239q0 -136 93 -294l36 -62l39 17q278 120 378 291q46 79 46 143zM131 319q0 -123 85 -215t194 -92q155 0 272 91q97 73 166 171l-326 540q-377 -179 -390 -443q-1 -20 -1 -52zM748 1571q124 -1 197 -81t73 -192
q0 -68 -40 -136q-40 -69 -86 -118q-110 -115 -314 -204l-34 -16l318 -528q95 145 213 480l25 -8q-119 -340 -224 -495l199 -330l-20 -13l-194 322q-63 -90 -143 -152q-79 -63 -151 -88t-157 -24q-121 0 -212 99q-92 99 -92 222t24 176t53 99q53 80 178 168q65 45 148 85
l-36 60q-96 160 -96 306t105 257t266 111z" />
    <glyph glyph-name="quotesingle" unicode="'" horiz-adv-x="454" 
d="M434 1581l-102 -471l-25 4l103 471z" />
    <glyph glyph-name="parenleft" unicode="(" horiz-adv-x="641" 
d="M229 434q0 -399 179 -702l-21 -13q-184 311 -182 715q0 441 253 894q161 287 365 484l17 -16q-203 -198 -362 -482t-214 -546q-35 -160 -35 -334z" />
    <glyph glyph-name="parenright" unicode=")" horiz-adv-x="641" 
d="M383 1810q176 -286 176 -725t-255 -881q-159 -276 -372 -487l-16 17q210 207 367 481q252 440 252 885q1 196 -45 380t-128 318z" />
    <glyph glyph-name="asterisk" unicode="*" horiz-adv-x="883" 
d="M618 1229l340 110l9 -24l-340 -111zM516 1135l-258 -291l-16 16l258 291zM596 1147l133 -291l-20 -8l-134 291zM500 1200l-293 111l8 24l293 -110zM559 1260l76 356l24 -4l-75 -357z" />
    <glyph glyph-name="plus" unicode="+" horiz-adv-x="1021" 
d="M621 1037l-109 -507h450l-4 -22h-450l-109 -508h-24l108 508h-446l3 22h447l109 507h25z" />
    <glyph glyph-name="comma" unicode="," horiz-adv-x="548" 
d="M178 47l47 -16l-176 -365l-29 8z" />
    <glyph glyph-name="hyphen" unicode="-" horiz-adv-x="663" 
d="M113 543h460l-4 -24h-460z" />
    <glyph glyph-name="hyphen" unicode="&#xad;" horiz-adv-x="663" 
d="M113 543h460l-4 -24h-460z" />
    <glyph glyph-name="period" unicode="." horiz-adv-x="548" 
d="M143 26q1 13 11 23t23 10t23 -10t11 -23q0 -14 -10 -24q-9 -10 -23 -10t-24 10t-11 24z" />
    <glyph glyph-name="slash" unicode="/" horiz-adv-x="786" 
d="M18 -23l900 1598l20 -12l-899 -1598z" />
    <glyph glyph-name="zero" unicode="0" horiz-adv-x="1147" 
d="M490 -23q-176 0 -276 89t-101 237q0 52 12 111l155 737q40 193 166 313t296 119q170 0 272 -92t103 -242q0 -53 -12 -108l-155 -731q-41 -200 -162 -316q-122 -116 -298 -117zM492 1q166 0 281 112q114 112 153 301l154 731q12 55 13 104q1 143 -95 227t-256 84
t-281 -115q-120 -115 -157 -298l-154 -737q-12 -58 -13 -107q1 -140 95 -221t260 -81z" />
    <glyph glyph-name="one" unicode="1" horiz-adv-x="647" 
d="M249 0l322 1549l-415 -226l-13 20l463 254l-333 -1597h-24z" />
    <glyph glyph-name="two" unicode="2" horiz-adv-x="924" 
d="M772 23v-23h-850l865 942q153 166 153 330q0 119 -88 203q-88 85 -225 85t-245 -100t-137 -268l-25 4q34 174 148 280t260 107q146 0 241 -91q96 -91 97 -220q0 -169 -162 -346l-830 -903h798z" />
    <glyph glyph-name="three" unicode="3" horiz-adv-x="1025" 
d="M896 460q0 -140 -67 -246t-176 -168t-248 -62t-245 98t-119 253l24 3q12 -146 111 -238t230 -93q131 1 234 59t167 159q63 101 63 219q0 162 -101 274t-255 111v25h47q153 0 270 114t117 262t-88 241q-88 95 -226 95t-249 -102q-110 -102 -131 -242l-25 4q23 146 140 255
t265 109t244 -102t96 -254t-109 -266t-252 -131q115 -24 199 -131q84 -106 84 -246z" />
    <glyph glyph-name="four" unicode="4" horiz-adv-x="950" 
d="M894 470v-23h-253l-93 -447h-26l94 447h-596l810 1142l20 -14l-784 -1105h555l63 298h25l-63 -298h248z" />
    <glyph glyph-name="five" unicode="5" horiz-adv-x="1140" 
d="M1171 1583v-22h-736l-161 -762q141 131 317 131t290 -124t114 -302q0 -106 -41 -204q-80 -191 -268 -281q-91 -42 -186 -42q-163 0 -273 109t-125 281h25q12 -161 116 -263t257 -103q90 0 176 40q86 41 150 107t104 160q39 94 40 196q0 171 -106 287q-106 115 -282 115
q-175 0 -316 -148l-21 13l171 812h755z" />
    <glyph glyph-name="six" unicode="6" horiz-adv-x="957" 
d="M56 353q0 -157 103 -255t237 -97q134 0 237 60q103 61 165 167t62 244t-99 244t-258 107q-122 1 -211 -53t-145 -136v1l-4 -6q-87 -119 -87 -276zM512 847q161 0 267 -113t107 -275q0 -98 -39 -188t-103 -154t-151 -102t-180 -38q-163 1 -273 105t-110 270t108 312
l691 934l20 -14l-606 -821q108 84 269 84z" />
    <glyph glyph-name="seven" unicode="7" horiz-adv-x="825" 
d="M198 1561v22h791l-920 -1583h-28l908 1561h-751z" />
    <glyph glyph-name="eight" unicode="8" horiz-adv-x="1068" 
d="M991 1243q0 133 -88 225t-207 92t-210 -58t-142 -149t-51 -189q0 -137 88 -228t221 -90q75 0 147 32q144 64 210 212q32 74 32 153zM464 1q116 0 219 61t166 167q63 107 63 245t-102 244t-239 105t-241 -67t-164 -170t-58 -218q0 -160 100 -264t256 -103zM464 -23
q-165 1 -274 111q-108 110 -108 280t120 309q120 140 295 164q-103 31 -167 117q-63 86 -63 198t55 210t152 157q97 60 224 60t223 -98t96 -248q0 -151 -104 -267t-249 -140q122 -34 198 -136t76 -233q0 -132 -67 -244t-175 -176t-232 -64z" />
    <glyph glyph-name="nine" unicode="9" horiz-adv-x="957" 
d="M973 1216q0 164 -103 262q-104 98 -238 97t-236 -61t-164 -166t-63 -244q0 -138 99 -244t258 -107q122 -1 210 53t145 135q92 111 92 275zM516 729q-160 0 -266 113t-107 275q0 98 39 188t103 154t151 102t180 37q163 0 273 -104q109 -104 109 -270t-107 -312l-691 -935
l-20 15l606 820q-110 -83 -270 -83z" />
    <glyph glyph-name="colon" unicode=":" horiz-adv-x="569" 
d="M318 862q0 14 10 23q10 10 24 10t24 -9q10 -10 10 -24t-10 -24t-23 -10t-24 10t-11 24zM211 27q0 -15 -10 -25q-9 -10 -23 -10t-24 10t-11 24q1 14 11 24t24 9q33 0 33 -32z" />
    <glyph glyph-name="semicolon" unicode=";" horiz-adv-x="569" 
d="M321 862q0 14 10 23q9 10 23 10t24 -9q10 -10 10 -24t-10 -24t-23 -10t-23 10t-11 24zM158 47l47 -16l-176 -365l-29 8z" />
    <glyph glyph-name="less" unicode="&#x3c;" horiz-adv-x="783" 
d="M671 271l-12 -23l-641 309v15l773 308l8 -22l-740 -295z" />
    <glyph glyph-name="equal" unicode="=" horiz-adv-x="922" 
d="M184 945h718l-4 -23h-718zM106 579h718l-4 -24h-718z" />
    <glyph glyph-name="greater" unicode="&#x3e;" horiz-adv-x="783" 
d="M143 856l12 24l641 -310v-15l-772 -307l-9 21l740 295z" />
    <glyph glyph-name="question" unicode="?" horiz-adv-x="989" 
d="M319 26q1 13 11 23t23 10t23 -10t11 -23q0 -14 -10 -24q-9 -10 -23 -10t-24 10t-11 24zM680 1569q166 0 259 -93t93 -231q0 -261 -289 -432l-129 -78q-86 -52 -125 -127t-73 -235l-25 4q37 169 79 247t132 132l129 78q275 166 276 411q0 129 -85 215q-84 86 -242 86
t-277 -114t-170 -307l-23 8q52 200 178 318t292 118z" />
    <glyph glyph-name="at" unicode="@" horiz-adv-x="2101" 
d="M987 219q99 0 187 44t147 118q2 12 4 19l69 322q-30 104 -116 169t-208 65t-217 -56q-96 -56 -148 -148q-53 -92 -53 -214t92 -220t243 -99zM627 556q0 112 55 208q56 96 158 156t225 60t211 -58t127 -154l53 247l25 -4l-131 -615q-6 -31 -7 -57q1 -85 55 -132t134 -47
t163 44q157 84 224 273q31 88 32 177q0 165 -70 318q-143 312 -474 447q-166 68 -349 68q-182 0 -348 -71t-286 -190t-189 -284q-70 -165 -70 -347t70 -348q140 -332 474 -475q165 -71 348 -71q248 0 463 130l12 -22q-223 -132 -475 -132q-187 1 -357 73q-341 145 -488 487
q-73 169 -73 357t73 358t195 292t292 194t358 72t360 -70q171 -70 293 -185q122 -116 194 -273q72 -158 72 -306t-55 -265t-163 -195t-240 -79q-75 0 -137 53t-62 149v2q-136 -147 -332 -145q-159 0 -259 105t-101 255z" />
    <glyph glyph-name="A" unicode="A" horiz-adv-x="1334" 
d="M880 1551l-738 -1175h978zM-100 -11l-21 12l995 1586h22l326 -1587h-25l-73 353h-996z" />
    <glyph glyph-name="B" unicode="B" horiz-adv-x="1261" 
d="M797 1561h-319l-154 -728l424 -2q191 0 324 116q133 115 133 277q1 162 -109 250t-299 87zM748 810h-429l-166 -787h384q233 0 400 115q80 55 127 139t47 186q0 155 -101 251t-262 96zM801 1583q198 0 314 -93t116 -258t-116 -277t-275 -136q126 -19 212 -116t85 -240
q0 -255 -258 -386q-150 -77 -342 -77h-414l336 1583h342z" />
    <glyph glyph-name="C" unicode="C" horiz-adv-x="1529" 
d="M124 730q0 164 74 327q147 324 486 469q164 70 336 70t316 -64t245 -182l-19 -15q-98 112 -237 175t-305 63t-327 -69q-161 -70 -280 -184t-191 -272t-72 -342t92 -348t253 -260q162 -96 361 -96q305 0 552 199l17 -20q-253 -201 -569 -203q-155 0 -291 58
q-274 117 -385 394q-56 136 -56 300z" />
    <glyph glyph-name="D" unicode="D" horiz-adv-x="1511" 
d="M819 1561h-340l-327 -1538h350q188 0 363 70t303 187t204 278q77 162 77 320q0 306 -184 496q-85 87 -201 137t-245 50zM819 1583q135 0 255 -51q246 -104 349 -362q52 -130 52 -264q0 -253 -133 -457t-356 -326q-224 -123 -484 -123h-379l337 1583h359z" />
    <glyph glyph-name="E" unicode="E" horiz-adv-x="1179" 
d="M1292 1583v-22h-813l-160 -748h785v-22h-789l-163 -768h804v-23h-833l336 1583h833z" />
    <glyph glyph-name="F" unicode="F" horiz-adv-x="1138" 
d="M1292 1583v-22h-816l-158 -749h786v-22h-791l-166 -790h-24l334 1583h835z" />
    <glyph glyph-name="G" unicode="G" horiz-adv-x="1780" 
d="M1404 786h356l-4 -19q-18 -162 -96 -308q-157 -292 -467 -420q-155 -62 -341 -62t-359 100t-271 272q-98 173 -98 363t73 351q146 322 474 464q162 70 343 70t341 -77t263 -213l-22 -16q-99 131 -253 207t-329 76t-333 -68t-274 -181t-187 -270q-70 -157 -70 -317
t56 -294q113 -275 382 -386q136 -57 294 -57t310 64t265 170t187 245t89 284h-329v22z" />
    <glyph glyph-name="H" unicode="H" horiz-adv-x="1590" 
d="M123 0l334 1583h24l-164 -776h1049l164 776h24l-333 -1583h-25l165 784h-1049l-165 -784h-24z" />
    <glyph glyph-name="I" unicode="I" horiz-adv-x="517" 
d="M123 0l334 1583h24l-334 -1583h-24z" />
    <glyph glyph-name="J" unicode="J" horiz-adv-x="1012" 
d="M330 -23q-179 0 -291 88q-111 88 -121 254h25q12 -157 117 -237q106 -80 270 -81q164 0 287 113t171 339l240 1130h25l-242 -1134q-72 -353 -324 -445q-73 -27 -157 -27z" />
    <glyph glyph-name="K" unicode="K" horiz-adv-x="1272" 
d="M123 0l334 1583h24l-202 -962l1073 968l15 -17l-606 -547l394 -1025h-25l-388 1008l-472 -425l-123 -583h-24z" />
    <glyph glyph-name="L" unicode="L" horiz-adv-x="999" 
d="M928 23v-23h-805l334 1583h24l-329 -1560h776z" />
    <glyph glyph-name="M" unicode="M" horiz-adv-x="1701" 
d="M123 0l334 1583h24l357 -1024l798 1024h30l-334 -1583h-24l323 1536l-787 -1009h-20l-352 1012l-325 -1539h-24z" />
    <glyph glyph-name="N" unicode="N" horiz-adv-x="1575" 
d="M123 0l334 1583h25l707 -1543l327 1543h24l-334 -1583h-24l-709 1548l-326 -1548h-24z" />
    <glyph glyph-name="O" unicode="O" horiz-adv-x="1798" 
d="M884 2q160 0 318 68q322 139 463 452q71 156 71 316t-56 294q-113 271 -385 384q-136 57 -297 57t-318 -68q-157 -67 -273 -181t-187 -270q-70 -156 -70 -316t55 -293q113 -273 383 -386q136 -57 296 -57zM884 -22q-166 0 -306 59q-279 117 -397 399q-57 138 -57 302
t72 325t192 277t282 187q162 69 328 69t307 -58q283 -116 398 -397q58 -139 58 -303q-1 -164 -73 -326t-193 -278t-283 -186t-328 -70z" />
    <glyph glyph-name="P" unicode="P" horiz-adv-x="1240" 
d="M902 1561h-425l-188 -892h462q109 0 207 42t166 111t108 161t40 191q0 169 -100 278t-270 109zM902 1583q179 0 287 -114t108 -295q0 -104 -42 -202q-43 -98 -115 -168q-72 -72 -174 -115t-215 -43h-466l-137 -646h-25l335 1583h444z" />
    <glyph glyph-name="Q" unicode="Q" horiz-adv-x="1798" 
d="M878 2q312 0 559 213l-262 331l17 14l263 -329q131 120 206 280q75 159 75 323q0 320 -208 528q-96 97 -232 154t-298 57q-161 0 -318 -68q-157 -67 -273 -181t-187 -270q-70 -156 -70 -316q1 -316 207 -524q95 -98 231 -155t290 -57zM124 738q0 164 72 325t192 277
t282 187q162 69 328 69t307 -58q283 -116 398 -397q58 -139 58 -307t-77 -334q-77 -165 -214 -288l168 -208l-19 -16l-167 209q-256 -219 -574 -219q-158 0 -300 59q-279 117 -397 399q-57 138 -57 302z" />
    <glyph glyph-name="R" unicode="R" horiz-adv-x="1302" 
d="M938 1561h-462l-170 -806h501q134 0 250 56q117 55 187 157t70 224q0 167 -102 268t-274 101zM943 1583q179 0 288 -106t108 -285q0 -132 -75 -239q-76 -106 -198 -163t-259 -58h-151l431 -724l-20 -13l-438 737h-328l-154 -732h-24l334 1583h486z" />
    <glyph glyph-name="S" unicode="S" horiz-adv-x="1156" 
d="M480 -23q-156 0 -296 68q-141 68 -215 177l21 14q72 -103 207 -169t285 -66t262 51q114 51 185 151t70 230q0 257 -253 362l-180 74q-259 108 -259 338q0 115 63 205q64 90 168 138t228 47q275 0 411 -161l-21 -15q-62 72 -166 112t-224 41q-187 0 -310 -103t-123 -264
q0 -212 245 -314l181 -76q266 -112 266 -384q0 -136 -75 -242q-74 -106 -194 -160t-276 -54z" />
    <glyph glyph-name="T" unicode="T" horiz-adv-x="1124" 
d="M173 1561l5 22h1192l-5 -22h-584l-328 -1561h-25l329 1561h-584z" />
    <glyph glyph-name="U" unicode="U" horiz-adv-x="1392" 
d="M624 -22q-226 0 -354 114q-127 114 -127 295q0 68 15 131l225 1065h25l-227 -1069q-14 -63 -14 -127q0 -172 121 -278q121 -107 337 -107t362 140t196 376l224 1065h25l-226 -1069q-52 -248 -204 -392t-378 -144z" />
    <glyph glyph-name="V" unicode="V" horiz-adv-x="1163" 
d="M1399 1589l20 -12l-958 -1577h-21l-286 1583h24l281 -1538z" />
    <glyph glyph-name="W" unicode="W" horiz-adv-x="1844" 
d="M270 1583l82 -1528l764 1528h21l114 -1528l731 1533l26 -11l-755 -1577h-22l-115 1526l-762 -1526h-24l-84 1583h24z" />
    <glyph glyph-name="X" unicode="X" horiz-adv-x="1082" 
d="M907 -4l-317 779l-663 -783l-19 16l671 794l-319 784l23 8l313 -772l653 772l20 -16l-662 -782l323 -792z" />
    <glyph glyph-name="Y" unicode="Y" horiz-adv-x="1006" 
d="M368 0l133 633l-327 950l23 8l320 -934l715 937l20 -14l-729 -952l-131 -628h-24z" />
    <glyph glyph-name="Z" unicode="Z" horiz-adv-x="1273" 
d="M293 1561v22h1145l-1474 -1560h1115v-23h-1171l1473 1561h-1088z" />
    <glyph glyph-name="bracketleft" unicode="[" horiz-adv-x="706" 
d="M889 1762h-334l-430 -2016h332v-24h-361l439 2064h354v-24z" />
    <glyph glyph-name="backslash" unicode="\" horiz-adv-x="786" 
d="M575 -31l-219 1598l25 4l219 -1598z" />
    <glyph glyph-name="bracketright" unicode="]" horiz-adv-x="657" 
d="M-113 -254h334l430 2016h-332v24h361l-438 -2064h-355v24z" />
    <glyph glyph-name="asciicircum" unicode="^" horiz-adv-x="958" 
d="M225 1300l-16 17l575 633l306 -635l-21 -12l-293 602z" />
    <glyph glyph-name="underscore" unicode="_" horiz-adv-x="1239" 
d="M-41 -94h1137v-24h-1137v24z" />
    <glyph glyph-name="grave" unicode="`" horiz-adv-x="499" 
d="M163 1431l275 -253l-14 -15l-281 248z" />
    <glyph glyph-name="a" unicode="a" horiz-adv-x="1277" 
d="M571 1q252 0 419 169l126 602q-164 230 -427 230q-157 0 -289 -76t-206 -201t-74 -259t54 -236q54 -103 160 -166t237 -63zM588 -23q-228 0 -361 139t-133 342q0 112 47 216q97 215 315 305q111 47 233 47q266 0 434 -221l44 207h25l-213 -1012h-25l28 130
q-166 -153 -394 -153z" />
    <glyph glyph-name="b" unicode="b" horiz-adv-x="1295" 
d="M724 1002q-248 0 -424 -174l-125 -590q161 -237 430 -237q160 0 292 76q132 77 205 201q74 124 74 258q1 274 -215 404q-107 62 -237 62zM618 -23q-153 0 -266 63t-185 162l-42 -202h-27l338 1597h27l-155 -731q174 160 422 160q132 0 244 -66t170 -175t57 -249
q0 -140 -77 -271q-77 -130 -215 -209t-291 -79z" />
    <glyph glyph-name="c" unicode="c" horiz-adv-x="1043" 
d="M574 -23q-214 0 -347 139t-133 342q0 112 47 216q97 215 315 305q111 47 233 47q193 0 327 -121l-17 -18q-131 115 -299 115t-300 -76t-206 -201t-74 -259q0 -275 213 -402q106 -63 246 -63q199 0 354 120l16 -19q-161 -125 -375 -125z" />
    <glyph glyph-name="d" unicode="d" horiz-adv-x="1286" 
d="M579 1q241 0 406 164l129 610q-164 227 -425 227q-157 0 -289 -76t-206 -201t-74 -259q0 -275 213 -402q107 -63 246 -63zM94 458q0 112 47 216q97 215 315 305q111 47 233 47q263 0 432 -217l167 788h27l-338 -1597h-27l27 126q-167 -148 -392 -148t-358 138
q-133 139 -133 342z" />
    <glyph glyph-name="e" unicode="e" horiz-adv-x="1241" 
d="M685 1002q-187 0 -337 -111t-204 -280h999q-24 167 -147 279q-124 112 -311 112zM581 -23q-147 0 -260 66q-112 67 -169 175q-58 108 -58 230q-1 236 172 408q79 78 190 124t233 46q197 0 329 -122t151 -303l2 -12h-1034q-17 -67 -17 -131q0 -193 125 -325t336 -132
q141 0 259 60t194 161l22 -14q-80 -106 -204 -168t-271 -63z" />
    <glyph glyph-name="f" unicode="f" horiz-adv-x="600" 
d="M744 1597q128 0 197 -77l-18 -17q-59 71 -179 71t-200 -70t-107 -195l-62 -297h235l-4 -23h-236l-208 -989h-25l209 989h-201l5 23h200l65 303q29 134 114 208q87 74 215 74z" />
    <glyph glyph-name="g" unicode="g" horiz-adv-x="1281" 
d="M579 1q246 0 412 170l1 -6l127 603q-165 234 -430 234q-157 0 -289 -76t-206 -201t-74 -259q0 -275 213 -402q107 -63 246 -63zM588 -23q-228 0 -361 139t-133 342q0 112 47 216q97 215 315 305q111 47 233 47q268 0 437 -224l44 210h25l-206 -977q-38 -179 -179 -290
t-355 -111q-152 0 -274 46t-197 135l18 16q73 -81 191 -127t262 -46q203 0 339 106t172 275l19 95q-169 -157 -397 -157z" />
    <glyph glyph-name="h" unicode="h" horiz-adv-x="1177" 
d="M680 1002q-94 0 -208 -64t-180 -146l-167 -792h-27l338 1597h27l-162 -761q80 86 188 138t214 52q171 -2 272 -113t64 -284l-132 -629h-24l132 631q35 175 -66 273q-100 98 -269 98z" />
    <glyph glyph-name="i" unicode="i" horiz-adv-x="411" 
d="M88 0l213 1012h25l-213 -1012h-25zM389 1316q-14 0 -24 10q-11 10 -11 24t10 25q10 10 25 10t25 -10t10 -24t-10 -25q-11 -10 -25 -10z" />
    <glyph glyph-name="j" unicode="j" horiz-adv-x="412" 
d="M355 1351q1 14 11 24t24 10t24 -10t11 -24q0 -15 -10 -25q-11 -10 -25 -10t-24 10t-11 25zM328 1012l-243 -1141q-29 -134 -110 -208t-198 -81l-2 24q111 6 185 75t101 195l241 1136h26z" />
    <glyph glyph-name="k" unicode="k" horiz-adv-x="973" 
d="M966 1004l-429 -359l327 -643l-22 -10l-325 637l-318 -267l-76 -362h-25l337 1597h25l-253 -1196l742 621z" />
    <glyph glyph-name="l" unicode="l" horiz-adv-x="434" 
d="M98 0l338 1597h27l-338 -1597h-27z" />
    <glyph glyph-name="m" unicode="m" horiz-adv-x="1951" 
d="M707 1002q-131 0 -247 -66t-181 -150l-166 -786h-25l214 1012h25l-38 -178q79 88 189 140t226 51q117 -1 210 -66t117 -176q79 111 201 177t246 66q171 -2 272 -113t64 -284l-133 -629h-24l132 631q35 175 -66 273q-100 98 -236 98t-259 -76t-192 -174q8 -57 -6 -123
l-133 -629h-25l134 631q35 176 -66 273q-102 98 -233 98z" />
    <glyph glyph-name="n" unicode="n" horiz-adv-x="1167" 
d="M693 1002q-119 0 -235 -66t-179 -150l-166 -786h-25l213 1012h25l-38 -181q78 87 188 141t217 54q171 -2 272 -113t64 -284l-132 -629h-25l133 631q17 85 -3 157q-36 132 -175 189q-63 25 -134 25z" />
    <glyph glyph-name="o" unicode="o" horiz-adv-x="1263" 
d="M569 1q129 0 235 45q207 88 296 293q44 99 44 206q0 193 -126 325t-333 132q-156 0 -287 -76q-130 -76 -204 -201t-74 -259t54 -236q54 -103 160 -166t235 -63zM579 -23q-219 0 -352 139t-133 342q0 112 46 216q95 215 313 305q111 47 244 47t245 -66t170 -174
q58 -109 58 -231t-46 -226t-124 -181t-188 -124t-233 -47z" />
    <glyph glyph-name="p" unicode="p" horiz-adv-x="1283" 
d="M1163 536q0 275 -214 404q-107 62 -237 62q-250 0 -425 -175l-124 -589q161 -237 430 -237q160 0 292 76q132 77 205 201t73 258zM1189 536q0 -140 -77 -271q-77 -130 -215 -209t-291 -79q-152 0 -266 63t-185 162l-128 -612h-25l299 1422h25l-31 -147q173 161 423 161
q132 0 244 -66q227 -133 227 -424z" />
    <glyph glyph-name="q" unicode="q" horiz-adv-x="1275" 
d="M579 1q243 0 408 166l128 607q-164 228 -426 228q-157 0 -289 -76t-206 -201t-74 -259q0 -275 213 -402q107 -63 246 -63zM586 -23q-226 0 -359 139t-133 342q0 112 47 216q97 215 315 305q111 47 233 47q264 0 433 -218l43 204h25l-299 -1422h-25l113 538
q-167 -151 -393 -151z" />
    <glyph glyph-name="r" unicode="r" horiz-adv-x="771" 
d="M584 1026q92 0 154 -60t64 -157q0 -31 -6 -61h-24q5 26 5 61q0 87 -55 140q-56 53 -148 53t-168 -52t-123 -143v-1l-170 -806h-25l213 1012h25l-31 -145q46 71 121 115q76 44 168 44z" />
    <glyph glyph-name="s" unicode="s" horiz-adv-x="1056" 
d="M612 1002q-168 0 -265 -69t-97 -166q0 -60 46 -112t137 -78l251 -74q209 -61 209 -225q1 -129 -125 -215t-318 -86q-257 0 -470 176l16 21q207 -173 454 -173q184 0 301 81t116 196q0 143 -191 200l-249 74q-101 30 -152 88t-51 127q0 111 106 185t282 74q242 0 424 -141
l-16 -19q-176 136 -408 136z" />
    <glyph glyph-name="t" unicode="t" horiz-adv-x="562" 
d="M163 0l209 989h-209l4 23h210l95 450h24l-96 -450h228l-4 -23h-228l-209 -989h-24z" />
    <glyph glyph-name="u" unicode="u" horiz-adv-x="1157" 
d="M479 -23q-102 0 -181 35t-130 106t-51 165q0 38 9 77l136 652h27l-138 -658q-8 -39 -9 -71q0 -86 47 -151q92 -128 279 -130q125 0 243 71t172 161l164 778h24l-213 -1012h-24l36 174q-71 -89 -180 -143t-211 -54z" />
    <glyph glyph-name="v" unicode="v" horiz-adv-x="835" 
d="M276 0l-194 1008l23 4l190 -977l611 985l22 -12l-625 -1008h-27z" />
    <glyph glyph-name="w" unicode="w" horiz-adv-x="1496" 
d="M250 0l-158 1012l24 4l153 -985l545 962h26l137 -944l579 971l22 -12l-603 -1008h-17l-137 956l-539 -956h-32z" />
    <glyph glyph-name="x" unicode="x" horiz-adv-x="880" 
d="M712 -6l-275 493l-485 -495l-19 16l492 502l-281 506l23 10l275 -498l487 498l18 -18l-492 -502l277 -500z" />
    <glyph glyph-name="y" unicode="y" horiz-adv-x="856" 
d="M949 1008l-909 -1418l-21 13l269 419l-202 984l25 6l196 -961l622 969z" />
    <glyph glyph-name="z" unicode="z" horiz-adv-x="861" 
d="M765 23v-23h-821l913 989h-691v23h746l-912 -989h765z" />
    <glyph glyph-name="braceleft" unicode="{" horiz-adv-x="403" 
d="M698 1762h-86q-119 0 -155 -175l-154 -725q-22 -87 -88 -108q45 -19 45 -74q0 -10 -4 -39l-154 -723q-6 -28 -6 -51q0 -60 34 -91t85 -31h51v-24h-51q-63 -1 -103 39t-40 107q0 28 6 55l153 723q32 96 -94 96l-12 13l12 12q62 0 96 22q33 23 46 78l153 725
q41 195 180 195h86v-24z" />
    <glyph glyph-name="bar" unicode="|" horiz-adv-x="454" 
d="M52 -264l398 1861h26l-397 -1861h-27z" />
    <glyph glyph-name="braceright" unicode="}" horiz-adv-x="403" 
d="M-101 -279h-86v24h86q119 0 155 175l154 725q22 87 88 109q-45 19 -45 73q0 10 4 39l154 723q6 28 6 51q1 60 -33 92t-86 30h-51v24h51q63 0 103 -40t40 -106q0 -28 -6 -55l-153 -723q-4 -25 -5 -35q0 -61 99 -61l12 -12l-12 -13q-62 0 -96 -22q-33 -23 -46 -78
l-153 -725q-41 -195 -180 -195z" />
    <glyph glyph-name="asciitilde" unicode="~" horiz-adv-x="839" 
d="M584 454q-46 0 -99 24t-103 50q-50 24 -91 24q-93 0 -139 -83l-21 14q51 92 160 92q57 -1 151 -49t140 -49q94 0 142 84l21 -13q-54 -94 -161 -94z" />
    <glyph glyph-name="exclamdown" unicode="&#xa1;" horiz-adv-x="481" 
d="M328 1036q0 14 10 24t23 10t23 -10t11 -24q0 -14 -10 -24q-9 -10 -23 -10t-24 10t-10 24zM31 -410l264 1150l14 -4l-229 -1146h-49z" />
    <glyph glyph-name="cent" unicode="&#xa2;" horiz-adv-x="1043" 
d="M689 1002q-157 0 -289 -76t-206 -201t-74 -281t100 -282t270 -154l213 994h-14zM579 -23q-39 0 -68 5l-47 -223h-27l48 226q-180 29 -285 161t-106 312q0 112 47 216q97 215 315 305q111 47 233 47h9q6 -1 11 -1l40 186h26l-40 -187q164 -15 281 -119l-17 -18
q-118 102 -269 113l-214 -996q31 -3 63 -3q199 0 354 120l16 -19q-160 -125 -370 -125z" />
    <glyph glyph-name="sterling" unicode="&#xa3;" horiz-adv-x="1083" 
d="M61 24h140q155 40 251 154t97 309q0 58 -8 111l-21 151h-295v23h292l-28 203q-10 83 -10 153q0 337 220 422q63 25 143 25q214 0 272 -211l-24 -8q-51 196 -248 195q-219 0 -297 -188q-41 -97 -41 -239q0 -63 10 -145l28 -207h345v-23h-342l20 -147q8 -54 8 -115
q1 -181 -81 -296t-219 -167h550v-24h-762v24z" />
    <glyph glyph-name="currency" unicode="&#xa4;" horiz-adv-x="1217" 
d="M884 364q146 120 180 276t-36 268q-91 147 -272 147t-327 -120q-145 -120 -179 -277t35 -268q91 -146 271 -146q181 0 328 120zM558 219q-140 0 -235 88l-157 -163l-19 17l158 164q-58 61 -81 146t-2 181q20 96 80 182t143 145l-88 163l23 12l87 -161q135 86 270 86
t226 -66l154 159l19 -16l-154 -159q72 -60 102 -153t7 -197q-22 -104 -88 -194t-160 -150l87 -160l-23 -12l-87 159q-122 -71 -262 -71z" />
    <glyph glyph-name="yen" unicode="&#xa5;" horiz-adv-x="1073" 
d="M201 650h327l-319 933h24l318 -926l706 926h31l-714 -933h344v-23h-361l-48 -225h351v-23h-356l-80 -379h-25l81 379h-337v23h342l47 225h-331v23z" />
    <glyph glyph-name="brokenbar" unicode="&#xa6;" horiz-adv-x="454" 
d="M80 -260h-27l166 776h27zM311 821h-26l166 776h26z" />
    <glyph glyph-name="section" unicode="&#xa7;" horiz-adv-x="1014" 
d="M846 657q0 133 -86 206q-76 53 -216 53t-256 -106t-117 -242q0 -136 93 -211q73 -50 210 -50t255 108q117 109 117 242zM389 1247q0 -80 47 -145t130 -106l134 -65q171 -83 171 -266q0 -152 -123 -267t-285 -115q-43 0 -79 7l77 -37q90 -44 142 -115q51 -71 51 -159
t-54 -162t-138 -115q-86 -41 -176 -41t-166 32t-110 96l23 12q30 -56 99 -86q68 -29 152 -29t162 37t131 106q52 69 52 150t-47 145t-131 106l-135 66q-171 83 -171 266q0 100 56 188t151 140t202 51q46 0 88 -9l-86 42q-90 44 -141 115t-51 157q0 129 111 224t254 95
q85 0 160 -31t116 -91l-21 -15q-75 112 -255 112q-83 0 -161 -37t-128 -107t-51 -149z" />
    <glyph glyph-name="dieresis" unicode="&#xa8;" horiz-adv-x="964" 
d="M672 1220q0 13 10 23t24 10t23 -10q10 -10 10 -23q0 -14 -10 -24t-23 -10t-24 10q-10 11 -10 24zM337 1220q0 13 10 23t24 10t30 -16t0 -33q-16 -18 -30 -18t-24 10t-10 24z" />
    <glyph glyph-name="copyright" unicode="&#xa9;" horiz-adv-x="1918" 
d="M998 0q164 0 312 63q300 127 429 425q63 148 63 312t-63 312t-171 255t-257 170q-148 63 -312 63t-312 -64q-148 -62 -255 -169t-170 -255t-63 -312t63 -312t170 -255t255 -170q147 -63 311 -63zM999 -25q-225 1 -415 111t-300 300t-110 415q0 169 65 321t175 262
t263 175t321 65t322 -65q311 -132 441 -438q66 -153 66 -321t-66 -321q-132 -307 -441 -439q-153 -65 -321 -65zM1020 313q-135 0 -249 66q-113 66 -179 179t-66 247t66 248q66 113 180 179t248 66q189 0 332 -129l-17 -18q-136 123 -323 123t-324 -137t-137 -331t137 -332
q137 -136 329 -136t331 133l16 -18q-144 -140 -344 -140z" />
    <glyph glyph-name="ordfeminine" unicode="&#xaa;" horiz-adv-x="833" 
d="M528 1277q-145 0 -235 -61q-90 -62 -106 -138q-32 -152 153 -190q46 -10 112 -12t154 34t146 90l5 -6l39 183l-10 -6q-26 39 -102 73t-156 33zM528 1302q81 0 159 -32t112 -76l27 126q18 85 -27 138q-68 78 -223 78t-274 -80l-14 21q125 84 289 84t241 -89
q53 -61 33 -157l-96 -453l-25 6l21 99q-63 -52 -149 -85q-86 -32 -154 -30q-188 7 -257 89q-47 57 -29 143t116 152t250 66z" />
    <glyph glyph-name="guillemotleft" unicode="&#xab;" horiz-adv-x="743" 
d="M274 201l-24 -8l-148 417l326 418l21 -16l-318 -406zM559 201l-24 -8l-148 417l326 418l20 -16l-317 -406z" />
    <glyph glyph-name="logicalnot" unicode="&#xac;" horiz-adv-x="1044" 
d="M109 561v23h802l-77 -368l-25 6l73 339h-773z" />
    <glyph glyph-name="registered" unicode="&#xae;" horiz-adv-x="1243" 
d="M528 1378v-325h199q72 0 123 46t51 113t-50 117t-120 49h-203zM528 1028v-276h-24v651h227q80 0 137 -57q58 -56 58 -134t-58 -131t-141 -53h-35l236 -268l-19 -17l-246 285h-135zM692 592q100 0 192 39t158 105t106 158t40 208t-67 230t-181 179q-114 66 -247 66
q-134 0 -248 -66t-180 -179t-66 -247q1 -205 145 -349t348 -144zM692 567q-214 0 -366 153t-152 365q0 105 42 201q82 191 276 275q96 41 218 41t242 -70t190 -188q70 -119 70 -259t-70 -259t-190 -189t-260 -70z" />
    <glyph glyph-name="macron" unicode="&#xaf;" horiz-adv-x="619" 
d="M165 1262h465v-24h-465v24z" />
    <glyph glyph-name="macron" unicode="&#x2c9;" horiz-adv-x="619" 
d="M165 1262h465v-24h-465v24z" />
    <glyph glyph-name="degree" unicode="&#xb0;" horiz-adv-x="503" 
d="M380 1420q-62 0 -105 -42t-43 -100t42 -100t104 -42q63 0 104 42t41 101t-41 100q-40 41 -102 41zM378 1445q72 0 122 -48q48 -48 48 -118q0 -71 -48 -119t-122 -48t-122 49t-48 119t49 117q49 48 121 48z" />
    <glyph glyph-name="plusminus" unicode="&#xb1;" horiz-adv-x="1095" 
d="M-4 37h924l-5 -23h-923zM678 1033l-97 -453h450l-3 -23h-451l-101 -470h-24l100 470h-446l4 23h446l97 453h25z" />
    <glyph glyph-name="twosuperior" unicode="&#xb2;" horiz-adv-x="946" 
d="M717 1402q0 70 -51 122q-51 53 -154 53q-104 0 -184 -69t-103 -173h-24q20 114 111 190q92 77 202 77t169 -60t59 -138q0 -131 -150 -245l-466 -347h532l-5 -22h-599l520 387q143 109 143 225z" />
    <glyph glyph-name="threesuperior" unicode="&#xb3;" horiz-adv-x="677" 
d="M630 1039q0 -111 -86 -185t-194 -73q-108 -1 -167 53q-60 54 -60 133q0 15 3 31l25 1q-2 -11 -3 -29q0 -75 56 -120q56 -44 153 -44q99 0 173 71t74 152t-52 121t-111 40h-30v23h28q48 0 102 25q54 24 94 74q41 50 41 116t-50 108q-50 41 -135 41q-85 -1 -145 -51
t-83 -132l-23 4q20 89 89 146q69 58 165 58t152 -50t56 -130t-58 -138q-56 -58 -136 -82q62 -20 92 -65t30 -98z" />
    <glyph glyph-name="acute" unicode="&#xb4;" horiz-adv-x="612" 
d="M752 1409l-401 -249l-10 18l396 255z" />
    <glyph glyph-name="mu" unicode="&#xb5;" horiz-adv-x="1203" 
d="M513 1q106 1 213 47t174 119l1 -1l181 852l25 -4l-216 -1016l-25 4l26 122q-73 -67 -175 -107q-158 -62 -279 -35q-249 55 -280 270l-131 -619l-25 5l159 746l135 634l25 -4l-132 -615q-34 -157 35 -259q94 -138 289 -139z" />
    <glyph glyph-name="mu" unicode="&#x3bc;" horiz-adv-x="1203" 
d="M513 1q106 1 213 47t174 119l1 -1l181 852l25 -4l-216 -1016l-25 4l26 122q-73 -67 -175 -107q-158 -62 -279 -35q-249 55 -280 270l-131 -619l-25 5l159 746l135 634l25 -4l-132 -615q-34 -157 35 -259q94 -138 289 -139z" />
    <glyph glyph-name="paragraph" unicode="&#xb6;" horiz-adv-x="854" 
d="M500 999q-108 0 -176 67t-67 170q0 143 111 252t263 109h336l-5 -23h-93l-333 -1574h-25l334 1574h-159l-334 -1574h-24l212 999h-40z" />
    <glyph glyph-name="periodcentered" unicode="&#xb7;" horiz-adv-x="569" 
d="M211 762q0 -14 -10 -24q-9 -10 -23 -11q-14 1 -24 11t-11 24q1 14 11 23q10 10 24 10q14 1 24 -9t9 -24z" />
    <glyph glyph-name="cedilla" unicode="&#xb8;" horiz-adv-x="661" 
d="M-40 -396v25q101 23 196 112q94 90 122 220l24 -4q-32 -137 -130 -233t-212 -120z" />
    <glyph glyph-name="onesuperior" unicode="&#xb9;" horiz-adv-x="671" 
d="M306 791l164 773l-192 -105l-13 21l242 133l-175 -822h-26z" />
    <glyph glyph-name="ordmasculine" unicode="&#xba;" horiz-adv-x="833" 
d="M617 1549q-133 0 -252 -97q-118 -98 -148 -238q-8 -41 -8 -73q0 -114 73 -188q74 -73 208 -73t252 100t148 239q8 39 8 70q0 114 -74 187t-207 73zM617 1574q143 0 224 -80t82 -205q0 -34 -9 -75q-32 -148 -156 -253t-268 -105t-225 80q-80 81 -81 205q0 37 9 78
q31 147 156 251t268 104z" />
    <glyph glyph-name="guillemotright" unicode="&#xbb;" horiz-adv-x="743" 
d="M326 209l317 405l-145 406l24 8l150 -418l-326 -417zM29 209l317 405l-145 406l24 8l150 -418l-326 -417z" />
    <glyph glyph-name="onequarter" unicode="&#xbc;" horiz-adv-x="1666" 
d="M394 791l164 773l-192 -105l-13 21l242 133l-175 -822h-26zM1519 215v-25h-122l-41 -190h-26l41 190h-417l494 629l18 -14l-460 -590h370l50 235h26l-50 -235h117zM159 -14l1339 1630l21 -18l-1340 -1630z" />
    <glyph glyph-name="onehalf" unicode="&#xbd;" horiz-adv-x="1887" 
d="M200 -14l1339 1630l21 -18l-1340 -1630zM1731 612q0 70 -51 123t-154 53q-104 0 -184 -69t-103 -172h-25q20 114 112 190t202 76t169 -60t59 -138t-46 -140t-104 -104l-466 -347h532l-5 -23h-599l520 387q143 108 143 224zM426 791l164 773l-193 -105l-12 21l242 133
l-175 -822h-26z" />
    <glyph glyph-name="threequarters" unicode="&#xbe;" horiz-adv-x="1707" 
d="M1693 215v-25h-122l-41 -190h-26l41 190h-417l494 629l18 -14l-460 -590h370l51 235h25l-50 -235h117zM630 1039q0 -111 -86 -185t-194 -73q-108 -1 -167 53q-60 54 -60 133q0 15 3 31l25 1q-2 -11 -3 -29q0 -75 56 -120q56 -44 153 -44q99 0 173 71t74 152t-52 121
t-111 40h-30v23h28q48 0 102 25q54 24 94 74q41 50 41 116t-50 108q-50 41 -135 41q-85 -1 -145 -51t-83 -132l-23 4q20 89 89 146q69 58 165 58t152 -50t56 -130t-58 -138q-56 -58 -136 -82q62 -20 92 -65t30 -98zM332 -14l1339 1630l21 -18l-1340 -1630z" />
    <glyph glyph-name="questiondown" unicode="&#xbf;" horiz-adv-x="989" 
d="M357 -384q-166 0 -259 93t-93 231q0 261 289 432l129 78q86 52 125 127t74 235l24 -4q-37 -169 -78 -247t-133 -132l-129 -78q-275 -166 -275 -411q0 -129 85 -215q85 -85 242 -85t276 114t170 305l23 -7q-53 -200 -179 -318t-291 -118zM705 1037q-1 -13 -11 -23t-23 -10
t-24 10q-10 10 -10 23t10 23q9 10 23 11q14 -1 24 -11t11 -23z" />
    <glyph glyph-name="Agrave" unicode="&#xc0;" horiz-adv-x="1334" 
d="M634 1985l274 -252l-14 -15l-280 247zM880 1551l-738 -1175h978zM-100 -11l-21 12l995 1586h22l326 -1587h-25l-73 353h-996z" />
    <glyph glyph-name="Aacute" unicode="&#xc1;" horiz-adv-x="1334" 
d="M1313 1962l-392 -243l-11 18l388 249zM880 1551l-738 -1175h978zM-100 -11l-21 12l995 1586h22l326 -1587h-25l-73 353h-996z" />
    <glyph glyph-name="Acircumflex" unicode="&#xc2;" horiz-adv-x="1334" 
d="M642 1698l-16 16l297 251h18l195 -256l-21 -12l-184 239zM880 1551l-738 -1175h978zM-100 -11l-21 12l995 1586h22l326 -1587h-25l-73 353h-996z" />
    <glyph glyph-name="Atilde" unicode="&#xc3;" horiz-adv-x="1334" 
d="M1094 1795q-46 0 -99 25q-53 26 -103 50t-91 23q-93 0 -139 -83l-21 15q51 92 160 92q57 -1 151 -49t140 -49q94 0 142 84l21 -14q-54 -94 -161 -94zM880 1551l-738 -1175h978zM-100 -11l-21 12l995 1586h22l326 -1587h-25l-73 353h-996z" />
    <glyph glyph-name="Adieresis" unicode="&#xc4;" horiz-adv-x="1334" 
d="M711 1832q0 13 10 23q24 24 47 0q10 -10 10 -23q0 -14 -10 -24t-24 -10t-23 10q-10 10 -10 24zM1044 1832q0 13 10 23q24 23 48 0q10 -10 10 -23q0 -14 -10 -24t-24 -10t-24 10t-10 24zM880 1551l-738 -1175h978zM-100 -11l-21 12l995 1586h22l326 -1587h-25l-73 353
h-996z" />
    <glyph glyph-name="Aring" unicode="&#xc5;" horiz-adv-x="1334" 
d="M915 1705q62 0 104 42q41 41 41 101t-41 102t-103 43q-62 0 -104 -42t-42 -102t42 -102t103 -42zM914 1682q-74 0 -120 49q-48 49 -48 119t48 117q48 48 121 48q72 0 121 -48q48 -48 48 -118q0 -71 -48 -119t-122 -48zM880 1551l-738 -1175h978zM-100 -11l-21 12
l995 1586h22l326 -1587h-25l-73 353h-996z" />
    <glyph glyph-name="AE" unicode="&#xc6;" horiz-adv-x="1627" 
d="M428 812h314l155 726zM1740 1583v-22h-813l-160 -749h784v-22h-788l-164 -767h805v-23h-834l167 790h-323l-508 -790h-29l1018 1583h845z" />
    <glyph glyph-name="Ccedilla" unicode="&#xc7;" horiz-adv-x="1529" 
d="M553 -408v26q93 32 177 115q83 83 110 209l24 -4q-28 -128 -119 -223q-92 -94 -192 -123zM124 730q0 164 74 327q147 324 486 469q164 70 336 70t316 -64t245 -182l-19 -15q-98 112 -237 175t-305 63t-327 -69q-161 -70 -280 -184t-191 -272t-72 -342t92 -348t253 -260
q162 -96 361 -96q305 0 552 199l17 -20q-253 -201 -569 -203q-155 0 -291 58q-274 117 -385 394q-56 136 -56 300z" />
    <glyph glyph-name="Egrave" unicode="&#xc8;" horiz-adv-x="1179" 
d="M703 2001l275 -252l-14 -14l-280 246zM1292 1583v-22h-813l-160 -748h785v-22h-789l-163 -768h804v-23h-833l336 1583h833z" />
    <glyph glyph-name="Eacute" unicode="&#xc9;" horiz-adv-x="1179" 
d="M1114 1962l-392 -243l-10 18l388 249zM1292 1583v-22h-813l-160 -748h785v-22h-789l-163 -768h804v-23h-833l336 1583h833z" />
    <glyph glyph-name="Ecircumflex" unicode="&#xca;" horiz-adv-x="1179" 
d="M662 1696l-17 16l297 251h19l194 -256l-20 -12l-185 239zM1292 1583v-22h-813l-160 -748h785v-22h-789l-163 -768h804v-23h-833l336 1583h833z" />
    <glyph glyph-name="Edieresis" unicode="&#xcb;" horiz-adv-x="1179" 
d="M1160 1837q0 14 10 24t24 10t24 -10t10 -24t-10 -24t-24 -10t-24 10t-10 24zM709 1837q0 14 10 24t23 10q14 0 24 -10t10 -24t-10 -24t-24 -10t-23 10q-10 10 -10 24zM1292 1583v-22h-813l-160 -748h785v-22h-789l-163 -768h804v-23h-833l336 1583h833z" />
    <glyph glyph-name="Igrave" unicode="&#xcc;" horiz-adv-x="517" 
d="M214 1985l274 -252l-14 -15l-279 247zM123 0l334 1583h24l-334 -1583h-24z" />
    <glyph glyph-name="Iacute" unicode="&#xcd;" horiz-adv-x="517" 
d="M886 1959l-392 -243l-11 18l388 248zM123 0l334 1583h24l-334 -1583h-24z" />
    <glyph glyph-name="Icircumflex" unicode="&#xce;" horiz-adv-x="517" 
d="M703 1654l-22 -12l-116 282l-238 -282l-18 11l263 312h2zM123 0l334 1583h24l-334 -1583h-24z" />
    <glyph glyph-name="Idieresis" unicode="&#xcf;" horiz-adv-x="517" 
d="M123 0l334 1583h24l-334 -1583h-24zM647 1821q0 14 16 30t42 -6q10 -10 10 -24t-10 -24q-9 -10 -23 -10t-25 10q-10 10 -10 24zM313 1821q0 14 16 29t34 0t18 -29t-10 -24q-9 -10 -23 -10t-24 10t-11 24z" />
    <glyph glyph-name="Eth" unicode="&#xd0;" horiz-adv-x="1531" 
d="M664 788h-329l-163 -765h350q188 0 363 70t303 187t205 278q77 162 77 320t-50 284t-135 212q-85 87 -201 137t-244 50h-340l-160 -749h324v-24zM31 788v24h285l164 771h360q135 0 255 -51q248 -105 348 -362q52 -130 52 -264q0 -379 -292 -643q-292 -263 -681 -263h-379
l168 788h-280z" />
    <glyph glyph-name="Ntilde" unicode="&#xd1;" horiz-adv-x="1575" 
d="M1190 1795q-57 0 -151 49t-142 49q-93 0 -139 -83l-21 15q51 92 160 92q57 -1 151 -49t140 -49q94 0 142 84l22 -14q-54 -94 -162 -94zM123 0l334 1583h25l707 -1543l327 1543h24l-334 -1583h-24l-709 1548l-326 -1548h-24z" />
    <glyph glyph-name="Ograve" unicode="&#xd2;" horiz-adv-x="1798" 
d="M736 2000l275 -252l-15 -14l-279 246zM884 2q160 0 318 68q322 139 463 452q71 156 71 316t-56 294q-113 271 -385 384q-136 57 -297 57t-318 -68q-157 -67 -273 -181t-187 -270q-70 -156 -70 -316t55 -293q113 -273 383 -386q136 -57 296 -57zM884 -22q-166 0 -306 59
q-279 117 -397 399q-57 138 -57 302t72 325t192 277t282 187q162 69 328 69t307 -58q283 -116 398 -397q58 -139 58 -303q-1 -164 -73 -326t-193 -278t-283 -186t-328 -70z" />
    <glyph glyph-name="Oacute" unicode="&#xd3;" horiz-adv-x="1798" 
d="M1308 1961l-393 -243l-10 18l388 249zM884 2q160 0 318 68q322 139 463 452q71 156 71 316t-56 294q-113 271 -385 384q-136 57 -297 57t-318 -68q-157 -67 -273 -181t-187 -270q-70 -156 -70 -316t55 -293q113 -273 383 -386q136 -57 296 -57zM884 -22q-166 0 -306 59
q-279 117 -397 399q-57 138 -57 302t72 325t192 277t282 187q162 69 328 69t307 -58q283 -116 398 -397q58 -139 58 -303q-1 -164 -73 -326t-193 -278t-283 -186t-328 -70z" />
    <glyph glyph-name="Ocircumflex" unicode="&#xd4;" horiz-adv-x="1798" 
d="M890 1699l-17 16l297 251h19l194 -256l-20 -12l-184 239zM884 2q160 0 318 68q322 139 463 452q71 156 71 316t-56 294q-113 271 -385 384q-136 57 -297 57t-318 -68q-157 -67 -273 -181t-187 -270q-70 -156 -70 -316t55 -293q113 -273 383 -386q136 -57 296 -57z
M884 -22q-166 0 -306 59q-279 117 -397 399q-57 138 -57 302t72 325t192 277t282 187q162 69 328 69t307 -58q283 -116 398 -397q58 -139 58 -303q-1 -164 -73 -326t-193 -278t-283 -186t-328 -70z" />
    <glyph glyph-name="Otilde" unicode="&#xd5;" horiz-adv-x="1798" 
d="M1255 1794q-47 0 -99 25t-102 49t-91 24q-93 0 -140 -83l-20 15q51 92 160 92q57 0 150 -48t140 -50q94 0 143 84l21 -14q-54 -94 -162 -94zM884 2q160 0 318 68q322 139 463 452q71 156 71 316t-56 294q-113 271 -385 384q-136 57 -297 57t-318 -68q-157 -67 -273 -181
t-187 -270q-70 -156 -70 -316t55 -293q113 -273 383 -386q136 -57 296 -57zM884 -22q-166 0 -306 59q-279 117 -397 399q-57 138 -57 302t72 325t192 277t282 187q162 69 328 69t307 -58q283 -116 398 -397q58 -139 58 -303q-1 -164 -73 -326t-193 -278t-283 -186t-328 -70z
" />
    <glyph glyph-name="Odieresis" unicode="&#xd6;" horiz-adv-x="1798" 
d="M1222 1836q0 13 9 24q10 10 24 10t24 -10t10 -24t-10 -24t-24 -10t-24 10q-9 11 -9 24zM770 1836q0 14 10 24t24 10t23 -10q24 -24 0 -48q-10 -10 -23 -10t-24 10q-10 11 -10 24zM884 2q160 0 318 68q322 139 463 452q71 156 71 316t-56 294q-113 271 -385 384
q-136 57 -297 57t-318 -68q-157 -67 -273 -181t-187 -270q-70 -156 -70 -316t55 -293q113 -273 383 -386q136 -57 296 -57zM884 -22q-166 0 -306 59q-279 117 -397 399q-57 138 -57 302t72 325t192 277t282 187q162 69 328 69t307 -58q283 -116 398 -397q58 -139 58 -303
q-1 -164 -73 -326t-193 -278t-283 -186t-328 -70z" />
    <glyph glyph-name="multiply" unicode="&#xd7;" horiz-adv-x="1197" 
d="M908 190l-303 459l-506 -461l-16 17l510 464l-313 476l20 12l310 -472l511 466l17 -16l-514 -469l305 -463z" />
    <glyph glyph-name="Oslash" unicode="&#xd8;" horiz-adv-x="1798" 
d="M150 728q0 -170 70 -317t194 -249l1026 1274q-191 137 -436 137q-167 0 -324 -68q-157 -67 -273 -181q-117 -114 -187 -270t-70 -326zM878 2q166 0 324 68q322 139 463 452q71 156 71 328t-74 322t-203 249l-1027 -1274q195 -145 446 -145zM878 -22q-262 0 -461 150
l-96 -119l-18 16l95 117q-129 104 -201 257q-73 153 -73 328t72 336t192 277t282 187q162 70 334 69q255 0 451 -141l103 127l18 -15l-101 -126q135 -103 211 -258t76 -332t-74 -339q-72 -162 -193 -278t-283 -186t-334 -70z" />
    <glyph glyph-name="Ugrave" unicode="&#xd9;" horiz-adv-x="1392" 
d="M752 2001l274 -252l-14 -14l-280 246zM624 -22q-226 0 -354 114q-127 114 -127 295q0 68 15 131l225 1065h25l-227 -1069q-14 -63 -14 -127q0 -172 121 -278q121 -107 337 -107t362 140t196 376l224 1065h25l-226 -1069q-52 -248 -204 -392t-378 -144z" />
    <glyph glyph-name="Uacute" unicode="&#xda;" horiz-adv-x="1392" 
d="M1283 1961l-392 -243l-10 18l388 249zM624 -22q-226 0 -354 114q-127 114 -127 295q0 68 15 131l225 1065h25l-227 -1069q-14 -63 -14 -127q0 -172 121 -278q121 -107 337 -107t362 140t196 376l224 1065h25l-226 -1069q-52 -248 -204 -392t-378 -144z" />
    <glyph glyph-name="Ucircumflex" unicode="&#xdb;" horiz-adv-x="1392" 
d="M708 1696l-17 16l297 251h19l194 -256l-20 -12l-185 239zM624 -22q-226 0 -354 114q-127 114 -127 295q0 68 15 131l225 1065h25l-227 -1069q-14 -63 -14 -127q0 -172 121 -278q121 -107 337 -107t362 140t196 376l224 1065h25l-226 -1069q-52 -248 -204 -392t-378 -144z
" />
    <glyph glyph-name="Udieresis" unicode="&#xdc;" horiz-adv-x="1392" 
d="M1126 1831q0 14 10 24t24 10t24 -10t10 -24t-10 -24t-24 -10t-24 10t-10 24zM675 1831q0 14 10 24t24 10t30 -16t0 -34t-30 -18t-24 10t-10 24zM624 -22q-226 0 -354 114q-127 114 -127 295q0 68 15 131l225 1065h25l-227 -1069q-14 -63 -14 -127q0 -172 121 -278
q121 -107 337 -107t362 140t196 376l224 1065h25l-226 -1069q-52 -248 -204 -392t-378 -144z" />
    <glyph glyph-name="Yacute" unicode="&#xdd;" horiz-adv-x="1006" 
d="M1044 1961l-392 -243l-10 18l388 249zM368 0l133 633l-327 950l23 8l320 -934l715 937l20 -14l-729 -952l-131 -628h-24z" />
    <glyph glyph-name="Thorn" unicode="&#xde;" horiz-adv-x="1233" 
d="M849 1270h-434l-188 -892h450q105 0 203 44t167 113q69 70 110 162t41 187q0 170 -94 278t-255 108zM677 355h-454l-75 -355h-25l335 1583h23l-61 -291h429q170 0 272 -114t103 -295q0 -101 -44 -197q-91 -199 -293 -287q-101 -44 -210 -44z" />
    <glyph glyph-name="germandbls" unicode="&#xdf;" horiz-adv-x="1257" 
d="M628 2q78 0 166 32q86 32 154 90t110 147q41 89 42 194q0 158 -100 257t-283 99v24q275 -6 390 128q95 111 95 269t-106 245q-106 88 -257 88q-274 0 -415 -279q-40 -78 -58 -166l-242 -1130h-26l243 1135q39 188 165 320q134 145 333 143q170 0 280 -96t108 -265
q-2 -168 -103 -279q-101 -110 -283 -128q135 -32 210 -130t75 -238t-72 -252q-71 -113 -186 -172t-252 -60q-75 0 -128 18l8 23q54 -17 132 -17z" />
    <glyph glyph-name="agrave" unicode="&#xe0;" horiz-adv-x="1277" 
d="M589 1431l275 -253l-14 -15l-281 248zM571 1q252 0 419 169l126 602q-164 230 -427 230q-157 0 -289 -76t-206 -201t-74 -259t54 -236q54 -103 160 -166t237 -63zM588 -23q-228 0 -361 139t-133 342q0 112 47 216q97 215 315 305q111 47 233 47q266 0 434 -221l44 207h25
l-213 -1012h-25l28 130q-166 -153 -394 -153z" />
    <glyph glyph-name="aacute" unicode="&#xe1;" horiz-adv-x="1277" 
d="M1179 1409l-401 -249l-10 18l396 255zM571 1q252 0 419 169l126 602q-164 230 -427 230q-157 0 -289 -76t-206 -201t-74 -259t54 -236q54 -103 160 -166t237 -63zM588 -23q-228 0 -361 139t-133 342q0 112 47 216q97 215 315 305q111 47 233 47q266 0 434 -221l44 207h25
l-213 -1012h-25l28 130q-166 -153 -394 -153z" />
    <glyph glyph-name="acircumflex" unicode="&#xe2;" horiz-adv-x="1277" 
d="M556 1118l-16 17l302 305l174 -308l-21 -13l-157 280zM571 1q252 0 419 169l126 602q-164 230 -427 230q-157 0 -289 -76t-206 -201t-74 -259t54 -236q54 -103 160 -166t237 -63zM588 -23q-228 0 -361 139t-133 342q0 112 47 216q97 215 315 305q111 47 233 47
q266 0 434 -221l44 207h25l-213 -1012h-25l28 130q-166 -153 -394 -153z" />
    <glyph glyph-name="atilde" unicode="&#xe3;" horiz-adv-x="1277" 
d="M991 1221q-46 1 -99 25q-52 24 -102 48t-92 25q-93 0 -139 -83l-20 14q51 92 159 92q56 0 150 -48t141 -50q94 0 143 84l21 -13q-54 -94 -162 -94zM571 1q252 0 419 169l126 602q-164 230 -427 230q-157 0 -289 -76t-206 -201t-74 -259t54 -236q54 -103 160 -166t237 -63
zM588 -23q-228 0 -361 139t-133 342q0 112 47 216q97 215 315 305q111 47 233 47q266 0 434 -221l44 207h25l-213 -1012h-25l28 130q-166 -153 -394 -153z" />
    <glyph glyph-name="adieresis" unicode="&#xe4;" horiz-adv-x="1277" 
d="M907 1302q1 13 11 23t23 10t23 -10t11 -23q0 -14 -10 -24q-9 -10 -23 -10t-24 10t-11 24zM572 1302q0 13 10 23t24 10t24 -10t10 -23q0 -14 -10 -24t-24 -10t-24 10t-10 24zM571 1q252 0 419 169l126 602q-164 230 -427 230q-157 0 -289 -76t-206 -201t-74 -259t54 -236
q54 -103 160 -166t237 -63zM588 -23q-228 0 -361 139t-133 342q0 112 47 216q97 215 315 305q111 47 233 47q266 0 434 -221l44 207h25l-213 -1012h-25l28 130q-166 -153 -394 -153z" />
    <glyph glyph-name="aring" unicode="&#xe5;" horiz-adv-x="1277" 
d="M799 1165q61 1 103 43t42 102t-42 101q-42 42 -103 42t-103 -42q-42 -41 -43 -101q0 -60 42 -102t104 -43zM968 1310q0 -70 -48 -118t-122 -49q-74 1 -121 49q-48 48 -47 118q0 70 48 118t120 48t122 -48q48 -48 48 -118zM571 1q252 0 419 169l126 602q-164 230 -427 230
q-157 0 -289 -76t-206 -201t-74 -259t54 -236q54 -103 160 -166t237 -63zM588 -23q-228 0 -361 139t-133 342q0 112 47 216q97 215 315 305q111 47 233 47q266 0 434 -221l44 207h25l-213 -1012h-25l28 130q-166 -153 -394 -153z" />
    <glyph glyph-name="ae" unicode="&#xe6;" horiz-adv-x="2124" 
d="M1569 1002q-187 0 -337 -111t-204 -280h998q-24 167 -146 279q-124 112 -311 112zM978 458v16q-54 50 -156 88t-204 38q-227 0 -369 -103q-141 -103 -141 -251t179 -212q92 -32 220 -32q127 0 273 68t242 176q-44 99 -44 212zM1462 -23q-148 1 -260 67t-169 177
q-99 -111 -247 -177t-321 -66t-288 84q-95 68 -95 204q0 74 48 146q86 129 298 188q94 25 192 25t198 -34t162 -85q4 42 15 86l21 99q37 181 -138 263q-98 48 -221 46q-250 0 -433 -121l-14 20q187 127 447 127q166 0 280 -73q57 -35 86 -97t20 -141q76 139 218 225
q141 86 325 86t316 -122t151 -303l2 -12h-1034q-17 -67 -17 -131q0 -193 125 -325t335 -132q141 0 259 60t195 161l21 -14q-81 -106 -205 -168t-272 -63z" />
    <glyph glyph-name="ccedilla" unicode="&#xe7;" horiz-adv-x="1043" 
d="M262 -419v26q101 23 196 112q94 90 122 220l24 -5q-32 -137 -130 -233t-212 -120zM574 -23q-214 0 -347 139t-133 342q0 112 47 216q97 215 315 305q111 47 233 47q193 0 327 -121l-17 -18q-131 115 -299 115t-300 -76t-206 -201t-74 -259q0 -275 213 -402
q106 -63 246 -63q199 0 354 120l16 -19q-161 -125 -375 -125z" />
    <glyph glyph-name="egrave" unicode="&#xe8;" horiz-adv-x="1241" 
d="M502 1431l275 -253l-14 -15l-281 248zM685 1002q-187 0 -337 -111t-204 -280h999q-24 167 -147 279q-124 112 -311 112zM581 -23q-147 0 -260 66q-112 67 -169 175q-58 108 -58 230q-1 236 172 408q79 78 190 124t233 46q197 0 329 -122t151 -303l2 -12h-1034
q-17 -67 -17 -131q0 -193 125 -325t336 -132q141 0 259 60t194 161l22 -14q-80 -106 -204 -168t-271 -63z" />
    <glyph glyph-name="eacute" unicode="&#xe9;" horiz-adv-x="1241" 
d="M1094 1408l-401 -249l-10 18l396 255zM685 1002q-187 0 -337 -111t-204 -280h999q-24 167 -147 279q-124 112 -311 112zM581 -23q-147 0 -260 66q-112 67 -169 175q-58 108 -58 230q-1 236 172 408q79 78 190 124t233 46q197 0 329 -122t151 -303l2 -12h-1034
q-17 -67 -17 -131q0 -193 125 -325t336 -132q141 0 259 60t194 161l22 -14q-80 -106 -204 -168t-271 -63z" />
    <glyph glyph-name="ecircumflex" unicode="&#xea;" horiz-adv-x="1241" 
d="M545 1119l-17 17l302 305l175 -308l-21 -13l-158 280zM685 1002q-187 0 -337 -111t-204 -280h999q-24 167 -147 279q-124 112 -311 112zM581 -23q-147 0 -260 66q-112 67 -169 175q-58 108 -58 230q-1 236 172 408q79 78 190 124t233 46q197 0 329 -122t151 -303l2 -12
h-1034q-17 -67 -17 -131q0 -193 125 -325t336 -132q141 0 259 60t194 161l22 -14q-80 -106 -204 -168t-271 -63z" />
    <glyph glyph-name="edieresis" unicode="&#xeb;" horiz-adv-x="1241" 
d="M898 1298q0 14 10 24t24 10t24 -10t10 -24t-16 -30t-34 0t-18 30zM563 1298q0 14 10 24q9 10 23 10t24 -10t11 -24q0 -14 -16 -30t-42 6q-10 10 -10 24zM685 1002q-187 0 -337 -111t-204 -280h999q-24 167 -147 279q-124 112 -311 112zM581 -23q-147 0 -260 66
q-112 67 -169 175q-58 108 -58 230q-1 236 172 408q79 78 190 124t233 46q197 0 329 -122t151 -303l2 -12h-1034q-17 -67 -17 -131q0 -193 125 -325t336 -132q141 0 259 60t194 161l22 -14q-80 -106 -204 -168t-271 -63z" />
    <glyph glyph-name="igrave" unicode="&#xec;" horiz-adv-x="412" 
d="M49 1431l276 -253l-15 -15l-280 248zM88 0l212 1012h27l-214 -1012h-25z" />
    <glyph glyph-name="iacute" unicode="&#xed;" horiz-adv-x="412" 
d="M761 1407l-401 -249l-10 18l396 255zM88 0l212 1012h27l-214 -1012h-25z" />
    <glyph glyph-name="icircumflex" unicode="&#xee;" horiz-adv-x="412" 
d="M521 1120l-22 -11l-116 282l-239 -282l-17 10l263 313h2zM88 0l212 1012h27l-214 -1012h-25z" />
    <glyph glyph-name="idieresis" unicode="&#xef;" horiz-adv-x="412" 
d="M508 1354q0 14 10 24t24 10t23 -10q10 -10 10 -24t-10 -24t-23 -10t-24 10q-10 10 -10 24zM173 1354q0 14 10 24t24 10t24 -10t10 -24t-10 -24t-24 -10t-24 10t-10 24zM88 0l212 1012h27l-214 -1012h-25z" />
    <glyph glyph-name="eth" unicode="&#xf0;" horiz-adv-x="1263" 
d="M569 1q129 0 235 45q207 88 296 293q44 99 44 206q0 193 -126 325t-333 132q-156 0 -287 -76q-130 -76 -204 -201t-74 -259t54 -236q54 -103 160 -166t235 -63zM579 -23q-219 0 -352 139t-133 342q0 112 46 216q95 215 313 305q111 47 232 47q236 0 373 -164l-200 477
l-270 -120l-10 22l271 121l-97 231l22 11l96 -233l258 116l11 -23l-259 -115l253 -609l-1 1q83 -202 -9 -413t-311 -304q-110 -47 -233 -47z" />
    <glyph glyph-name="ntilde" unicode="&#xf1;" horiz-adv-x="1167" 
d="M918 1197q-46 0 -99 25q-53 26 -103 50t-91 23q-93 0 -140 -83l-20 15q51 92 160 92q57 -1 150 -49t140 -49q94 0 143 84l21 -14q-54 -94 -161 -94zM693 1002q-119 0 -235 -66t-179 -150l-166 -786h-25l213 1012h25l-38 -181q78 87 188 141t217 54q171 -2 272 -113
t64 -284l-132 -629h-25l133 631q17 85 -3 157q-36 132 -175 189q-63 25 -134 25z" />
    <glyph glyph-name="ograve" unicode="&#xf2;" horiz-adv-x="1263" 
d="M569 1q129 0 235 45q207 88 296 293q44 99 44 206q0 193 -126 325t-333 132q-156 0 -287 -76q-130 -76 -204 -201t-74 -259t54 -236q54 -103 160 -166t235 -63zM579 -23q-219 0 -352 139t-133 342q0 112 46 216q95 215 313 305q111 47 244 47t245 -66t170 -174
q58 -109 58 -231t-46 -226t-124 -181t-188 -124t-233 -47zM535 1431l275 -253l-14 -15l-281 248z" />
    <glyph glyph-name="oacute" unicode="&#xf3;" horiz-adv-x="1263" 
d="M569 1q129 0 235 45q207 88 296 293q44 99 44 206q0 193 -126 325t-333 132q-156 0 -287 -76q-130 -76 -204 -201t-74 -259t54 -236q54 -103 160 -166t235 -63zM579 -23q-219 0 -352 139t-133 342q0 112 46 216q95 215 313 305q111 47 244 47t245 -66t170 -174
q58 -109 58 -231t-46 -226t-124 -181t-188 -124t-233 -47zM1136 1409l-401 -249l-10 18l396 255z" />
    <glyph glyph-name="ocircumflex" unicode="&#xf4;" horiz-adv-x="1263" 
d="M569 1q129 0 235 45q207 88 296 293q44 99 44 206q0 193 -126 325t-333 132q-156 0 -287 -76q-130 -76 -204 -201t-74 -259t54 -236q54 -103 160 -166t235 -63zM579 -23q-219 0 -352 139t-133 342q0 112 46 216q95 215 313 305q111 47 244 47t245 -66t170 -174
q58 -109 58 -231t-46 -226t-124 -181t-188 -124t-233 -47zM501 1110l-17 16l302 306l175 -309l-21 -12l-158 280z" />
    <glyph glyph-name="otilde" unicode="&#xf5;" horiz-adv-x="1263" 
d="M569 1q129 0 235 45q207 88 296 293q44 99 44 206q0 193 -126 325t-333 132q-156 0 -287 -76q-130 -76 -204 -201t-74 -259t54 -236q54 -103 160 -166t235 -63zM579 -23q-219 0 -352 139t-133 342q0 112 46 216q95 215 313 305q111 47 244 47t245 -66t170 -174
q58 -109 58 -231t-46 -226t-124 -181t-188 -124t-233 -47zM924 1221q-46 1 -99 25t-103 48t-91 25q-93 0 -139 -83l-21 14q51 92 160 92q57 0 151 -48t140 -50q94 0 142 84l21 -13q-54 -94 -161 -94z" />
    <glyph glyph-name="odieresis" unicode="&#xf6;" horiz-adv-x="1263" 
d="M569 1q129 0 235 45q207 88 296 293q44 99 44 206q0 193 -126 325t-333 132q-156 0 -287 -76q-130 -76 -204 -201t-74 -259t54 -236q54 -103 160 -166t235 -63zM579 -23q-219 0 -352 139t-133 342q0 112 46 216q95 215 313 305q111 47 244 47t245 -66t170 -174
q58 -109 58 -231t-46 -226t-124 -181t-188 -124t-233 -47zM894 1303q0 14 16 30t34 0t18 -30t-16 -31t-34 0t-18 31zM559 1303q0 14 16 30t34 0q32 -30 9 -53t-49 -2q-10 11 -10 25z" />
    <glyph glyph-name="divide" unicode="&#xf7;" horiz-adv-x="964" 
d="M122 599h905l-4 -24h-905zM569 937q1 13 11 23t24 10t24 -10t9 -24q0 -14 -10 -24q-9 -10 -23 -10t-24 11t-11 24zM394 101q0 13 10 23t24 10t24 -10t10 -24t-10 -23q-10 -10 -23 -10q-13 1 -24 11t-11 23z" />
    <glyph glyph-name="oslash" unicode="&#xf8;" horiz-adv-x="1263" 
d="M120 477q0 -240 152 -371l679 820q-115 76 -269 76t-284 -76t-204 -201t-74 -248zM579 1q119 0 225 45q207 88 296 293q44 99 44 209t-45 205q-45 96 -128 158l-679 -820q120 -90 287 -90zM705 1026q141 0 262 -82l64 78l19 -15l-64 -76q87 -66 135 -167t48 -216
q1 -115 -45 -219t-124 -181t-188 -124t-233 -47q-177 0 -304 96l-82 -101l-19 16l83 100q-161 136 -163 370q0 112 46 216q95 215 313 305q111 47 252 47z" />
    <glyph glyph-name="ugrave" unicode="&#xf9;" horiz-adv-x="1157" 
d="M488 1431l276 -253l-14 -15l-281 248zM479 -23q-102 0 -181 35t-130 106t-51 165q0 38 9 77l136 652h27l-138 -658q-8 -39 -9 -71q0 -86 47 -151q92 -128 279 -130q125 0 243 71t172 161l164 778h24l-213 -1012h-24l36 174q-71 -89 -180 -143t-211 -54z" />
    <glyph glyph-name="uacute" unicode="&#xfa;" horiz-adv-x="1157" 
d="M1020 1409l-400 -249l-11 18l397 255zM479 -23q-102 0 -181 35t-130 106t-51 165q0 38 9 77l136 652h27l-138 -658q-8 -39 -9 -71q0 -86 47 -151q92 -128 279 -130q125 0 243 71t172 161l164 778h24l-213 -1012h-24l36 174q-71 -89 -180 -143t-211 -54z" />
    <glyph glyph-name="ucircumflex" unicode="&#xfb;" horiz-adv-x="1157" 
d="M471 1108l-16 16l302 306l174 -309l-21 -12l-157 280zM479 -23q-102 0 -181 35t-130 106t-51 165q0 38 9 77l136 652h27l-138 -658q-8 -39 -9 -71q0 -86 47 -151q92 -128 279 -130q125 0 243 71t172 161l164 778h24l-213 -1012h-24l36 174q-71 -89 -180 -143t-211 -54z
" />
    <glyph glyph-name="udieresis" unicode="&#xfc;" horiz-adv-x="1157" 
d="M493 1303q0 14 16 30t33 0q18 -16 18 -30q0 -15 -10 -25t-24 -9q-33 0 -33 34zM827 1303q0 14 16 29t34 0t18 -29t-16 -31t-34 0t-18 31zM479 -23q-102 0 -181 35t-130 106t-51 165q0 38 9 77l136 652h27l-138 -658q-8 -39 -9 -71q0 -86 47 -151q92 -128 279 -130
q125 0 243 71t172 161l164 778h24l-213 -1012h-24l36 174q-71 -89 -180 -143t-211 -54z" />
    <glyph glyph-name="yacute" unicode="&#xfd;" horiz-adv-x="856" 
d="M890 1407l-401 -249l-10 18l397 255zM949 1008l-909 -1418l-21 13l269 419l-202 984l25 6l196 -961l622 969z" />
    <glyph glyph-name="thorn" unicode="&#xfe;" horiz-adv-x="1294" 
d="M724 1002q-248 0 -425 -174l-126 -589q160 -238 431 -238q160 0 292 76q132 77 205 201t73 258q1 274 -214 404q-106 62 -236 62zM617 -23q-153 0 -267 63t-184 163l-122 -572h-27l420 1966h27l-157 -730q174 159 408 159q146 0 258 -66q111 -66 169 -175t58 -249
t-77 -271q-77 -130 -215 -209t-291 -79z" />
    <glyph glyph-name="ydieresis" unicode="&#xff;" horiz-adv-x="856" 
d="M336 1299q0 13 10 23t24 11q14 0 23 -10q10 -9 10 -23t-10 -24t-23 -10t-24 10q-10 10 -10 23zM671 1299q0 13 9 24q10 10 24 10t31 -16q16 -16 0 -34q-16 -17 -30 -17t-25 10q-9 10 -9 23zM949 1008l-909 -1418l-21 13l269 419l-202 984l25 6l196 -961l622 969z" />
    <glyph glyph-name="Amacron" unicode="&#x100;" horiz-adv-x="1334" 
d="M682 1833h465v-24h-465v24zM880 1551l-738 -1175h978zM-100 -11l-21 12l995 1586h22l326 -1587h-25l-73 353h-996z" />
    <glyph glyph-name="amacron" unicode="&#x101;" horiz-adv-x="1277" 
d="M564 1262h465v-24h-465v24zM571 1q252 0 419 169l126 602q-164 230 -427 230q-157 0 -289 -76t-206 -201t-74 -259t54 -236q54 -103 160 -166t237 -63zM588 -23q-228 0 -361 139t-133 342q0 112 47 216q97 215 315 305q111 47 233 47q266 0 434 -221l44 207h25
l-213 -1012h-25l28 130q-166 -153 -394 -153z" />
    <glyph glyph-name="Abreve" unicode="&#x102;" horiz-adv-x="1334" 
d="M905 1710q-111 0 -183 64q-71 64 -71 170q0 18 4 46l25 -4q-4 -25 -4 -42q0 -90 62 -150t165 -60t198 73t125 183l24 -4q-28 -112 -131 -194t-214 -82zM880 1551l-738 -1175h978zM-100 -11l-21 12l995 1586h22l326 -1587h-25l-73 353h-996z" />
    <glyph glyph-name="abreve" unicode="&#x103;" horiz-adv-x="1277" 
d="M788 1144q-111 0 -182 64t-71 169q0 18 4 46l24 -4q-4 -25 -4 -42q0 -90 62 -150t165 -60q103 -1 198 73t125 183l25 -4q-28 -113 -132 -194t-214 -81zM571 1q252 0 419 169l126 602q-164 230 -427 230q-157 0 -289 -76t-206 -201t-74 -259t54 -236q54 -103 160 -166
t237 -63zM588 -23q-228 0 -361 139t-133 342q0 112 47 216q97 215 315 305q111 47 233 47q266 0 434 -221l44 207h25l-213 -1012h-25l28 130q-166 -153 -394 -153z" />
    <glyph glyph-name="Aogonek" unicode="&#x104;" horiz-adv-x="1344" 
d="M880 1551l-738 -1175h978zM957 -284q1 -42 31 -73t75 -31t106 47l192 151l14 -19l-183 -146q-70 -57 -128 -57t-96 38q-36 38 -36 86q0 50 22 86t68 73l173 137l-71 345h-996l-228 -364l-21 12l995 1586h22l326 -1587l-191 -153q-38 -31 -56 -59q-18 -30 -18 -72z" />
    <glyph glyph-name="aogonek" unicode="&#x105;" horiz-adv-x="1277" 
d="M571 1q252 0 419 169l126 602q-164 230 -427 230q-157 0 -289 -76t-206 -201t-74 -259t54 -236q54 -103 160 -166t237 -63zM588 -23q-228 0 -361 139t-133 342q0 112 47 216q97 215 315 305q111 47 233 47q266 0 434 -221l44 207h25l-213 -1012l-191 -153
q-38 -31 -56 -59t-17 -72q0 -42 30 -73t71 -31q42 0 70 19t42 29t22 17q9 7 16 13t8 6l15 -20q-54 -44 -88 -66q-35 -22 -87 -22t-88 38t-36 86q0 50 21 86q22 36 68 73l177 140l26 120q-166 -154 -394 -154z" />
    <glyph glyph-name="Cacute" unicode="&#x106;" horiz-adv-x="1529" 
d="M1396 1962l-392 -243l-11 18l388 249zM124 730q0 164 74 327q147 324 486 469q164 70 336 70t316 -64t245 -182l-19 -15q-98 112 -237 175t-305 63t-327 -69q-161 -70 -280 -184t-191 -272t-72 -342t92 -348t253 -260q162 -96 361 -96q305 0 552 199l17 -20
q-253 -201 -569 -203q-155 0 -291 58q-274 117 -385 394q-56 136 -56 300z" />
    <glyph glyph-name="cacute" unicode="&#x107;" horiz-adv-x="1043" 
d="M1089 1407l-401 -249l-10 18l396 255zM574 -23q-214 0 -347 139t-133 342q0 112 47 216q97 215 315 305q111 47 233 47q193 0 327 -121l-17 -18q-131 115 -299 115t-300 -76t-206 -201t-74 -259q0 -275 213 -402q106 -63 246 -63q199 0 354 120l16 -19
q-161 -125 -375 -125z" />
    <glyph glyph-name="Ccircumflex" unicode="&#x108;" horiz-adv-x="1529" 
d="M884 1698l-17 16l297 251h19l194 -256l-20 -12l-185 239zM124 730q0 164 74 327q147 324 486 469q164 70 336 70t316 -64t245 -182l-19 -15q-98 112 -237 175t-305 63t-327 -69q-161 -70 -280 -184t-191 -272t-72 -342t92 -348t253 -260q162 -96 361 -96q305 0 552 199
l17 -20q-253 -201 -569 -203q-155 0 -291 58q-274 117 -385 394q-56 136 -56 300z" />
    <glyph glyph-name="ccircumflex" unicode="&#x109;" horiz-adv-x="1043" 
d="M468 1109l-16 16l302 306l174 -309l-21 -12l-157 280zM574 -23q-214 0 -347 139t-133 342q0 112 47 216q97 215 315 305q111 47 233 47q193 0 327 -121l-17 -18q-131 115 -299 115t-300 -76t-206 -201t-74 -259q0 -275 213 -402q106 -63 246 -63q199 0 354 120l16 -19
q-161 -125 -375 -125z" />
    <glyph glyph-name="Cdotaccent" unicode="&#x10a;" horiz-adv-x="1529" 
d="M1085 1793q-14 0 -24 10q-10 11 -10 25t10 24q24 24 49 0q10 -10 10 -24t-10 -25q-11 -10 -25 -10zM124 730q0 164 74 327q147 324 486 469q164 70 336 70t316 -64t245 -182l-19 -15q-98 112 -237 175t-305 63t-327 -69q-161 -70 -280 -184t-191 -272t-72 -342t92 -348
t253 -260q162 -96 361 -96q305 0 552 199l17 -20q-253 -201 -569 -203q-155 0 -291 58q-274 117 -385 394q-56 136 -56 300z" />
    <glyph glyph-name="cdotaccent" unicode="&#x10b;" horiz-adv-x="1043" 
d="M680 1258q0 14 10 24t24 11q14 0 25 -10q11 -11 11 -25t-10 -24t-25 -10q-14 0 -25 10q-10 10 -10 24zM574 -23q-214 0 -347 139t-133 342q0 112 47 216q97 215 315 305q111 47 233 47q193 0 327 -121l-17 -18q-131 115 -299 115t-300 -76t-206 -201t-74 -259
q0 -275 213 -402q106 -63 246 -63q199 0 354 120l16 -19q-161 -125 -375 -125z" />
    <glyph glyph-name="Ccaron" unicode="&#x10c;" horiz-adv-x="1529" 
d="M1238 1957l16 -17l-238 -250h-18l-187 255l20 12l179 -238zM124 730q0 164 74 327q147 324 486 469q164 70 336 70t316 -64t245 -182l-19 -15q-98 112 -237 175t-305 63t-327 -69q-161 -70 -280 -184t-191 -272t-72 -342t92 -348t253 -260q162 -96 361 -96q305 0 552 199
l17 -20q-253 -201 -569 -203q-155 0 -291 58q-274 117 -385 394q-56 136 -56 300z" />
    <glyph glyph-name="ccaron" unicode="&#x10d;" horiz-adv-x="1043" 
d="M978 1488l16 -17l-278 -292h-18l-219 296l21 12l210 -279zM574 -23q-214 0 -347 139t-133 342q0 112 47 216q97 215 315 305q111 47 233 47q193 0 327 -121l-17 -18q-131 115 -299 115t-300 -76t-206 -201t-74 -259q0 -275 213 -402q106 -63 246 -63q199 0 354 120
l16 -19q-161 -125 -375 -125z" />
    <glyph glyph-name="Dcaron" unicode="&#x10e;" horiz-adv-x="1511" 
d="M1106 1958l16 -16l-238 -251h-18l-187 255l20 12l179 -238zM819 1561h-340l-327 -1538h350q188 0 363 70t303 187t204 278q77 162 77 320q0 306 -184 496q-85 87 -201 137t-245 50zM819 1583q135 0 255 -51q246 -104 349 -362q52 -130 52 -264q0 -253 -133 -457
t-356 -326q-224 -123 -484 -123h-379l337 1583h359z" />
    <glyph glyph-name="dcaron" unicode="&#x10f;" horiz-adv-x="1433" 
d="M1556 1597l29 -11l-147 -385l-19 7zM579 1q241 0 406 164l129 610q-164 227 -425 227q-157 0 -289 -76t-206 -201t-74 -259q0 -275 213 -402q107 -63 246 -63zM94 458q0 112 47 216q97 215 315 305q111 47 233 47q263 0 432 -217l167 788h27l-338 -1597h-27l27 126
q-167 -148 -392 -148t-358 138q-133 139 -133 342z" />
    <glyph glyph-name="Dcroat" unicode="&#x110;" horiz-adv-x="1531" 
d="M664 788h-329l-163 -765h350q188 0 363 70t303 187t205 278q77 162 77 320t-50 284t-135 212q-85 87 -201 137t-244 50h-340l-160 -749h324v-24zM31 788v24h285l164 771h360q135 0 255 -51q248 -105 348 -362q52 -130 52 -264q0 -379 -292 -643q-292 -263 -681 -263h-379
l168 788h-280z" />
    <glyph glyph-name="dcroat" unicode="&#x111;" horiz-adv-x="1280" 
d="M579 1q241 0 406 164l129 610q-164 227 -425 227q-157 0 -289 -76t-206 -201t-74 -259q0 -275 213 -402q107 -63 246 -63zM94 458q0 112 47 216q97 215 315 305q111 47 233 47q263 0 432 -217l101 473h-205l4 24h206l61 291h27l-63 -291h230l-4 -24h-231l-270 -1282h-27
l27 126q-167 -148 -392 -148t-358 138q-133 139 -133 342z" />
    <glyph glyph-name="Emacron" unicode="&#x112;" horiz-adv-x="1179" 
d="M694 1838h465v-23h-465v23zM1292 1583v-22h-813l-160 -748h785v-22h-789l-163 -768h804v-23h-833l336 1583h833z" />
    <glyph glyph-name="emacron" unicode="&#x113;" horiz-adv-x="1241" 
d="M462 1266h465v-24h-465v24zM685 1002q-187 0 -337 -111t-204 -280h999q-24 167 -147 279q-124 112 -311 112zM581 -23q-147 0 -260 66q-112 67 -169 175q-58 108 -58 230q-1 236 172 408q79 78 190 124t233 46q197 0 329 -122t151 -303l2 -12h-1034q-17 -67 -17 -131
q0 -193 125 -325t336 -132q141 0 259 60t194 161l22 -14q-80 -106 -204 -168t-271 -63z" />
    <glyph glyph-name="Ebreve" unicode="&#x114;" horiz-adv-x="1179" 
d="M891 1709q-111 0 -183 64q-71 64 -71 170q0 18 4 46l25 -4q-4 -25 -4 -42q0 -90 62 -150t164 -60q104 0 198 73t125 183l25 -4q-28 -113 -131 -195t-214 -81zM1292 1583v-22h-813l-160 -748h785v-22h-789l-163 -768h804v-23h-833l336 1583h833z" />
    <glyph glyph-name="ebreve" unicode="&#x115;" horiz-adv-x="1241" 
d="M737 1140q-111 0 -183 64q-71 64 -71 169q0 18 4 46l25 -4q-4 -25 -4 -42q0 -90 62 -150t165 -60t198 73t125 183l24 -4q-28 -113 -131 -194t-214 -81zM685 1002q-187 0 -337 -111t-204 -280h999q-24 167 -147 279q-124 112 -311 112zM581 -23q-147 0 -260 66
q-112 67 -169 175q-58 108 -58 230q-1 236 172 408q79 78 190 124t233 46q197 0 329 -122t151 -303l2 -12h-1034q-17 -67 -17 -131q0 -193 125 -325t336 -132q141 0 259 60t194 161l22 -14q-80 -106 -204 -168t-271 -63z" />
    <glyph glyph-name="Edotaccent" unicode="&#x116;" horiz-adv-x="1179" 
d="M947 1793q-14 0 -24 10q-11 11 -11 25t10 24q25 24 50 0q10 -10 10 -24t-10 -25q-11 -10 -25 -10zM1292 1583v-22h-813l-160 -748h785v-22h-789l-163 -768h804v-23h-833l336 1583h833z" />
    <glyph glyph-name="edotaccent" unicode="&#x117;" horiz-adv-x="1241" 
d="M679 1260q0 14 10 24q11 10 25 10t24 -10q24 -24 0 -49q-10 -10 -24 -10t-25 10q-10 11 -10 25zM685 1002q-187 0 -337 -111t-204 -280h999q-24 167 -147 279q-124 112 -311 112zM581 -23q-147 0 -260 66q-112 67 -169 175q-58 108 -58 230q-1 236 172 408q79 78 190 124
t233 46q197 0 329 -122t151 -303l2 -12h-1034q-17 -67 -17 -131q0 -193 125 -325t336 -132q141 0 259 60t194 161l22 -14q-80 -106 -204 -168t-271 -63z" />
    <glyph glyph-name="Eogonek" unicode="&#x118;" horiz-adv-x="1179" 
d="M1292 1583v-22h-813l-160 -748h785v-22h-789l-163 -768h804v-23h-3l1 -1l-190 -153q-74 -60 -74 -129q0 -44 30 -75t76 -31t106 47l192 151l14 -19l-183 -146q-71 -56 -129 -56t-94 36q-36 38 -37 88q0 50 22 85q22 36 68 73l164 130h-796l336 1583h833z" />
    <glyph glyph-name="eogonek" unicode="&#x119;" horiz-adv-x="1241" 
d="M685 1002q-187 0 -337 -111t-204 -280h999q-24 167 -147 279q-124 112 -311 112zM562 -23q-128 0 -241 66q-112 67 -169 175q-58 108 -58 230q-1 236 172 408q79 78 190 124t233 46q197 0 329 -122t151 -303l2 -12h-1034q-17 -67 -17 -131q0 -193 125 -325t336 -132
q141 0 259 60t194 161l22 -14q-52 -68 -124 -118t-150 -113q-80 -63 -80 -138q0 -44 32 -73t80 -29t126 60l149 118l14 -18l-149 -120q-79 -63 -141 -63t-99 35q-37 36 -37 87t21 87q22 36 69 73l26 20q-103 -39 -231 -39z" />
    <glyph glyph-name="Ecaron" unicode="&#x11a;" horiz-adv-x="1179" 
d="M1198 1962l16 -16l-238 -251h-18l-187 255l21 12l178 -238zM1292 1583v-22h-813l-160 -748h785v-22h-789l-163 -768h804v-23h-833l336 1583h833z" />
    <glyph glyph-name="ecaron" unicode="&#x11b;" horiz-adv-x="1241" 
d="M962 1507l16 -16l-279 -293h-17l-219 296l20 12l210 -278zM685 1002q-187 0 -337 -111t-204 -280h999q-24 167 -147 279q-124 112 -311 112zM581 -23q-147 0 -260 66q-112 67 -169 175q-58 108 -58 230q-1 236 172 408q79 78 190 124t233 46q197 0 329 -122t151 -303
l2 -12h-1034q-17 -67 -17 -131q0 -193 125 -325t336 -132q141 0 259 60t194 161l22 -14q-80 -106 -204 -168t-271 -63z" />
    <glyph glyph-name="Gcircumflex" unicode="&#x11c;" horiz-adv-x="1790" 
d="M885 1698l-17 16l297 251h19l194 -256l-20 -12l-184 239zM1404 786h356l-4 -19q-18 -162 -96 -308q-157 -292 -467 -420q-155 -62 -341 -62t-359 100t-271 272q-98 173 -98 363t73 351q146 322 474 464q162 70 343 70t341 -77t263 -213l-22 -16q-99 131 -253 207t-329 76
t-333 -68t-274 -181t-187 -270q-70 -157 -70 -317t56 -294q113 -275 382 -386q136 -57 294 -57t310 64t265 170t187 245t89 284h-329v22z" />
    <glyph glyph-name="gcircumflex" unicode="&#x11d;" horiz-adv-x="1281" 
d="M531 1110l-16 16l302 306l174 -309l-20 -12l-158 280zM579 1q246 0 412 170l1 -6l127 603q-165 234 -430 234q-157 0 -289 -76t-206 -201t-74 -259q0 -275 213 -402q107 -63 246 -63zM588 -23q-228 0 -361 139t-133 342q0 112 47 216q97 215 315 305q111 47 233 47
q268 0 437 -224l44 210h25l-206 -977q-38 -179 -179 -290t-355 -111q-152 0 -274 46t-197 135l18 16q73 -81 191 -127t262 -46q203 0 339 106t172 275l19 95q-169 -157 -397 -157z" />
    <glyph glyph-name="Gbreve" unicode="&#x11e;" horiz-adv-x="1790" 
d="M1150 1709q-111 0 -183 64q-71 64 -71 170q0 18 4 46l25 -4q-4 -25 -4 -42q0 -90 62 -150t165 -60t198 73t124 183l25 -4q-28 -113 -131 -195t-214 -81zM1404 786h356l-4 -19q-18 -162 -96 -308q-157 -292 -467 -420q-155 -62 -341 -62t-359 100t-271 272
q-98 173 -98 363t73 351q146 322 474 464q162 70 343 70t341 -77t263 -213l-22 -16q-99 131 -253 207t-329 76t-333 -68t-274 -181t-187 -270q-70 -157 -70 -317t56 -294q113 -275 382 -386q136 -57 294 -57t310 64t265 170t187 245t89 284h-329v22z" />
    <glyph glyph-name="gbreve" unicode="&#x11f;" horiz-adv-x="1281" 
d="M812 1140q-111 0 -183 64q-71 64 -71 169q0 18 4 46l25 -4q-4 -25 -4 -42q0 -90 62 -150t165 -60t198 73t125 183l24 -4q-28 -113 -131 -194t-214 -81zM579 1q246 0 412 170l1 -6l127 603q-165 234 -430 234q-157 0 -289 -76t-206 -201t-74 -259q0 -275 213 -402
q107 -63 246 -63zM588 -23q-228 0 -361 139t-133 342q0 112 47 216q97 215 315 305q111 47 233 47q268 0 437 -224l44 210h25l-206 -977q-38 -179 -179 -290t-355 -111q-152 0 -274 46t-197 135l18 16q73 -81 191 -127t262 -46q203 0 339 106t172 275l19 95
q-169 -157 -397 -157z" />
    <glyph glyph-name="Gdotaccent" unicode="&#x120;" horiz-adv-x="1790" 
d="M1065 1793q-14 0 -25 10q-10 11 -10 25t10 24q25 25 50 0q10 -10 10 -24t-10 -25q-11 -10 -25 -10zM1404 786h356l-4 -19q-18 -162 -96 -308q-157 -292 -467 -420q-155 -62 -341 -62t-359 100t-271 272q-98 173 -98 363t73 351q146 322 474 464q162 70 343 70t341 -77
t263 -213l-22 -16q-99 131 -253 207t-329 76t-333 -68t-274 -181t-187 -270q-70 -157 -70 -317t56 -294q113 -275 382 -386q136 -57 294 -57t310 64t265 170t187 245t89 284h-329v22z" />
    <glyph glyph-name="gdotaccent" unicode="&#x121;" horiz-adv-x="1281" 
d="M726 1258q0 14 10 24t24 11q14 0 25 -10q11 -11 11 -25t-10 -24t-25 -10q-14 0 -25 10q-10 10 -10 24zM579 1q246 0 412 170l1 -6l127 603q-165 234 -430 234q-157 0 -289 -76t-206 -201t-74 -259q0 -275 213 -402q107 -63 246 -63zM588 -23q-228 0 -361 139t-133 342
q0 112 47 216q97 215 315 305q111 47 233 47q268 0 437 -224l44 210h25l-206 -977q-38 -179 -179 -290t-355 -111q-152 0 -274 46t-197 135l18 16q73 -81 191 -127t262 -46q203 0 339 106t172 275l19 95q-169 -157 -397 -157z" />
    <glyph glyph-name="Gcommaaccent" unicode="&#x122;" horiz-adv-x="1790" 
d="M669 -385l-22 8l187 296l32 -15zM1404 786h356l-4 -19q-18 -162 -96 -308q-157 -292 -467 -420q-155 -62 -341 -62t-359 100t-271 272q-98 173 -98 363t73 351q146 322 474 464q162 70 343 70t341 -77t263 -213l-22 -16q-99 131 -253 207t-329 76t-333 -68t-274 -181
t-187 -270q-70 -157 -70 -317t56 -294q113 -275 382 -386q136 -57 294 -57t310 64t265 170t187 245t89 284h-329v22z" />
    <glyph glyph-name="gcommaaccent" unicode="&#x123;" horiz-adv-x="1281" 
d="M893 1457l25 -11l-139 -290l-18 9zM579 1q246 0 412 170l1 -6l127 603q-165 234 -430 234q-157 0 -289 -76t-206 -201t-74 -259q0 -275 213 -402q107 -63 246 -63zM588 -23q-228 0 -361 139t-133 342q0 112 47 216q97 215 315 305q111 47 233 47q268 0 437 -224l44 210
h25l-206 -977q-38 -179 -179 -290t-355 -111q-152 0 -274 46t-197 135l18 16q73 -81 191 -127t262 -46q203 0 339 106t172 275l19 95q-169 -157 -397 -157z" />
    <glyph glyph-name="Hcircumflex" unicode="&#x124;" horiz-adv-x="1590" 
d="M754 1696l-17 16l297 251h19l194 -256l-20 -12l-185 239zM123 0l334 1583h24l-164 -776h1049l164 776h24l-333 -1583h-25l165 784h-1049l-165 -784h-24z" />
    <glyph glyph-name="hcircumflex" unicode="&#x125;" horiz-adv-x="1177" 
d="M553 1205l-16 17l302 305l174 -308l-21 -13l-157 280zM680 1002q-94 0 -208 -64t-180 -146l-167 -792h-27l338 1597h27l-162 -761q80 86 188 138t214 52q171 -2 272 -113t64 -284l-132 -629h-24l132 631q35 175 -66 273q-100 98 -269 98z" />
    <glyph glyph-name="Hbar" unicode="&#x126;" horiz-adv-x="1590" 
d="M392 1160l-75 -353h1049l75 353h-1049zM175 1160v23h197l85 400h24l-85 -400h1049l85 400h24l-85 -400h168v-23h-172l-244 -1160h-25l165 784h-1049l-165 -784h-24l245 1160h-193z" />
    <glyph glyph-name="hbar" unicode="&#x127;" horiz-adv-x="1187" 
d="M164 1288h217l65 309h27l-65 -309h221v-23h-227l-91 -429q80 86 188 138t215 52q171 -2 272 -113t64 -284l-132 -629h-25l132 631q35 175 -66 273q-100 98 -232 98q-131 0 -245 -64t-180 -146l-167 -792h-26l267 1265h-212v23z" />
    <glyph glyph-name="Itilde" unicode="&#x128;" horiz-adv-x="517" 
d="M586 1809q60 0 78 87l23 -7q-20 -103 -101 -103q-52 0 -98 53t-85 53q-60 0 -77 -87l-24 7q20 103 101 104q53 0 98 -54t85 -53zM123 0l334 1583h24l-334 -1583h-24z" />
    <glyph glyph-name="itilde" unicode="&#x129;" horiz-adv-x="412" 
d="M483 1242q60 0 78 87l24 -7q-20 -103 -102 -103q-51 0 -97 53t-85 53q-60 0 -78 -87l-23 7q20 103 101 104q53 1 97 -53t85 -54zM88 0l212 1012h27l-214 -1012h-25z" />
    <glyph glyph-name="Imacron" unicode="&#x12a;" horiz-adv-x="517" 
d="M278 1833h464v-24h-464v24zM123 0l334 1583h24l-334 -1583h-24z" />
    <glyph glyph-name="imacron" unicode="&#x12b;" horiz-adv-x="412" 
d="M133 1266h465v-24h-465v24zM88 0l212 1012h27l-214 -1012h-25z" />
    <glyph glyph-name="Ibreve" unicode="&#x12c;" horiz-adv-x="517" 
d="M513 1706q-62 0 -97 33q-61 59 -34 180l15 70h24l-15 -75q-16 -81 10 -133q26 -51 88 -51q125 1 153 141l25 115h23l-24 -117q-16 -83 -61 -123t-107 -40zM123 0l334 1583h24l-334 -1583h-24z" />
    <glyph glyph-name="ibreve" unicode="&#x12d;" horiz-adv-x="412" 
d="M340 1168q64 0 102 38t52 104l24 114h23l-24 -116q-32 -163 -173 -163q-57 0 -92 33q-61 59 -34 180l15 69h24l-15 -74q-16 -81 10 -133t88 -52zM88 0l212 1012h27l-214 -1012h-25z" />
    <glyph glyph-name="Iogonek" unicode="&#x12e;" horiz-adv-x="517" 
d="M-117 -284q0 -42 30 -73q29 -31 75 -31t107 47l192 151l14 -19l-183 -146q-70 -57 -128 -57t-96 38q-36 38 -36 86q0 50 22 86t68 73l177 140l332 1572h24l-334 -1583l-190 -153q-38 -31 -56 -59q-18 -30 -18 -72z" />
    <glyph glyph-name="iogonek" unicode="&#x12f;" horiz-adv-x="411" 
d="M389 1323q-14 0 -24 10q-11 11 -11 25t10 24q25 24 50 0q10 -10 10 -24t-10 -25q-11 -10 -25 -10zM-152 -284q0 -42 30 -73t76 -31q45 0 106 47l192 151l14 -19l-183 -146q-71 -57 -129 -57t-94 38t-37 86q0 50 22 86t68 73l177 140l211 1001h25l-213 -1012l-191 -153
q-38 -31 -56 -59q-18 -30 -18 -72z" />
    <glyph glyph-name="Idotaccent" unicode="&#x130;" horiz-adv-x="517" 
d="M518 1793q-14 0 -24 10q-10 11 -10 25t10 24q25 24 49 0q10 -10 10 -24t-10 -25q-11 -10 -25 -10zM123 0l334 1583h24l-334 -1583h-24z" />
    <glyph glyph-name="dotlessi" unicode="&#x131;" horiz-adv-x="412" 
d="M88 0l212 1012h27l-214 -1012h-25z" />
    <glyph glyph-name="IJ" unicode="&#x132;" horiz-adv-x="1019" 
d="M123 0l334 1583h24l-334 -1583h-24zM194 -361v23q162 0 288 121t173 348l306 1452h24l-307 -1456q-48 -242 -180 -365t-304 -123z" />
    <glyph glyph-name="ij" unicode="&#x133;" horiz-adv-x="798" 
d="M741 1351q1 14 11 24t24 10t24 -10t11 -24q0 -15 -10 -25q-11 -10 -25 -10t-24 10t-11 25zM714 1012l-243 -1141q-29 -134 -110 -208t-198 -81l-2 24q111 6 185 75t101 195l241 1136h26zM88 0l213 1012h25l-213 -1012h-25zM389 1323q-14 0 -24 10q-11 11 -11 25t10 24
q25 24 50 0q10 -10 10 -24t-10 -25q-11 -10 -25 -10z" />
    <glyph glyph-name="Jcircumflex" unicode="&#x134;" horiz-adv-x="1012" 
d="M812 1698l-16 16l297 251h18l195 -256l-21 -12l-184 239zM330 -23q-179 0 -291 88q-111 88 -121 254h25q12 -157 117 -237q106 -80 270 -81q164 0 287 113t171 339l240 1130h25l-242 -1134q-72 -353 -324 -445q-73 -27 -157 -27z" />
    <glyph glyph-name="jcircumflex" unicode="&#x135;" horiz-adv-x="412" 
d="M506 1119l-23 -11l-115 282l-239 -282l-17 10l263 313h2zM328 1012l-243 -1141q-29 -134 -110 -208t-198 -81l-2 24q111 6 185 75t101 195l241 1136h26z" />
    <glyph glyph-name="Kcommaaccent" unicode="&#x136;" horiz-adv-x="1272" 
d="M380 -389l-22 8l187 296l33 -15zM123 0l334 1583h24l-202 -962l1073 968l15 -17l-606 -547l394 -1025h-25l-388 1008l-472 -425l-123 -583h-24z" />
    <glyph glyph-name="kcommaaccent" unicode="&#x137;" horiz-adv-x="973" 
d="M263 -388l-21 8l186 296l33 -15zM966 1004l-429 -359l327 -643l-22 -10l-325 637l-318 -267l-76 -362h-25l337 1597h25l-253 -1196l742 621z" />
    <glyph glyph-name="kgreenlandic" unicode="&#x138;" horiz-adv-x="970" 
d="M963 1000l-426 -356l329 -644h-28l-321 628l-315 -263l-77 -365h-27l214 1012h27l-128 -608l736 616z" />
    <glyph glyph-name="Lacute" unicode="&#x139;" horiz-adv-x="999" 
d="M893 1962l-392 -243l-11 18l389 249zM928 23v-23h-805l334 1583h24l-329 -1560h776z" />
    <glyph glyph-name="lacute" unicode="&#x13a;" horiz-adv-x="434" 
d="M868 1961l-392 -243l-10 18l388 249zM98 0l338 1597h27l-338 -1597h-27z" />
    <glyph glyph-name="Lcommaaccent" unicode="&#x13b;" horiz-adv-x="999" 
d="M479 -82l25 -11l-138 -290l-19 9zM928 23v-23h-805l334 1583h24l-329 -1560h776z" />
    <glyph glyph-name="lcommaaccent" unicode="&#x13c;" horiz-adv-x="434" 
d="M-92 -388l-22 8l187 296l32 -15zM98 0l338 1597h27l-338 -1597h-27z" />
    <glyph glyph-name="Lcaron" unicode="&#x13d;" horiz-adv-x="999" 
d="M730 1594l29 -11l-148 -385l-18 7zM928 23v-23h-805l334 1583h24l-329 -1560h776z" />
    <glyph glyph-name="lcaron" unicode="&#x13e;" horiz-adv-x="581" 
d="M694 1597l29 -11l-148 -385l-18 7zM98 0l338 1597h27l-338 -1597h-27z" />
    <glyph glyph-name="Ldot" unicode="&#x13f;" horiz-adv-x="999" 
d="M697 795q1 14 11 24t24 10t24 -10t11 -24q0 -15 -10 -25q-11 -10 -25 -10t-24 10t-11 25zM928 23v-23h-805l334 1583h24l-329 -1560h776z" />
    <glyph glyph-name="ldot" unicode="&#x140;" horiz-adv-x="454" 
d="M424 662q0 14 16 30t34 0q32 -30 9 -53t-49 -2q-10 11 -10 25zM98 0l338 1597h27l-338 -1597h-27z" />
    <glyph glyph-name="Lslash" unicode="&#x141;" horiz-adv-x="1019" 
d="M948 23v-23h-805l144 682l-199 -151l-13 20l220 167l182 865h25l-178 -844l532 404l14 -20l-555 -420l-143 -680h776z" />
    <glyph glyph-name="lslash" unicode="&#x142;" horiz-adv-x="454" 
d="M69 656l213 161l164 780h27l-160 -755l175 133l15 -20l-198 -149l-170 -806h-26l164 782l-191 -145z" />
    <glyph glyph-name="Nacute" unicode="&#x143;" horiz-adv-x="1575" 
d="M1260 1961l-393 -243l-10 18l388 249zM123 0l334 1583h25l707 -1543l327 1543h24l-334 -1583h-24l-709 1548l-326 -1548h-24z" />
    <glyph glyph-name="nacute" unicode="&#x144;" horiz-adv-x="1167" 
d="M1123 1409l-400 -249l-10 18l396 255zM693 1002q-119 0 -235 -66t-179 -150l-166 -786h-25l213 1012h25l-38 -181q78 87 188 141t217 54q171 -2 272 -113t64 -284l-132 -629h-25l133 631q17 85 -3 157q-36 132 -175 189q-63 25 -134 25z" />
    <glyph glyph-name="Ncommaaccent" unicode="&#x145;" horiz-adv-x="1575" 
d="M484 -386l-21 8l186 296l33 -15zM123 0l334 1583h25l707 -1543l327 1543h24l-334 -1583h-24l-709 1548l-326 -1548h-24z" />
    <glyph glyph-name="ncommaaccent" unicode="&#x146;" horiz-adv-x="1167" 
d="M474 -82l25 -11l-139 -290l-18 9zM693 1002q-119 0 -235 -66t-179 -150l-166 -786h-25l213 1012h25l-38 -181q78 87 188 141t217 54q171 -2 272 -113t64 -284l-132 -629h-25l133 631q17 85 -3 157q-36 132 -175 189q-63 25 -134 25z" />
    <glyph glyph-name="Ncaron" unicode="&#x147;" horiz-adv-x="1575" 
d="M1249 1961l17 -16l-239 -251h-17l-188 255l21 12l178 -238zM123 0l334 1583h25l707 -1543l327 1543h24l-334 -1583h-24l-709 1548l-326 -1548h-24z" />
    <glyph glyph-name="ncaron" unicode="&#x148;" horiz-adv-x="1167" 
d="M1024 1508l16 -16l-278 -293h-18l-219 296l21 12l210 -278zM693 1002q-119 0 -235 -66t-179 -150l-166 -786h-25l213 1012h25l-38 -181q78 87 188 141t217 54q171 -2 272 -113t64 -284l-132 -629h-25l133 631q17 85 -3 157q-36 132 -175 189q-63 25 -134 25z" />
    <glyph glyph-name="napostrophe" unicode="&#x149;" horiz-adv-x="1167" 
d="M461 1482l24 -12l-138 -289l-18 9zM693 1002q-119 0 -235 -66t-179 -150l-166 -786h-25l213 1012h25l-38 -181q78 87 188 141t217 54q171 -2 272 -113t64 -284l-132 -629h-25l133 631q17 85 -3 157q-36 132 -175 189q-63 25 -134 25z" />
    <glyph glyph-name="Eng" unicode="&#x14a;" horiz-adv-x="1584" 
d="M757 -361v23q138 0 252 90t176 259l-711 1537l-328 -1550l-24 4l344 1622l730 -1579q16 49 23 86l305 1452h24l-307 -1456q-48 -242 -180 -365t-304 -123z" />
    <glyph glyph-name="eng" unicode="&#x14b;" horiz-adv-x="1167" 
d="M668 986q-94 0 -210 -66t-182 -148l-163 -772h-25l209 993h27l-37 -174q79 87 187 139t204 52q180 -1 283 -111t65 -287l-149 -713q-33 -160 -117 -234t-220 -82l3 24q120 5 200 79t109 213l149 715q17 86 -2 158t-66 118t-109 71t-156 25z" />
    <glyph glyph-name="Omacron" unicode="&#x14c;" horiz-adv-x="1798" 
d="M842 1833h465v-24h-465v24zM884 2q160 0 318 68q322 139 463 452q71 156 71 316t-56 294q-113 271 -385 384q-136 57 -297 57t-318 -68q-157 -67 -273 -181t-187 -270q-70 -156 -70 -316t55 -293q113 -273 383 -386q136 -57 296 -57zM884 -22q-166 0 -306 59
q-279 117 -397 399q-57 138 -57 302t72 325t192 277t282 187q162 69 328 69t307 -58q283 -116 398 -397q58 -139 58 -303q-1 -164 -73 -326t-193 -278t-283 -186t-328 -70z" />
    <glyph glyph-name="omacron" unicode="&#x14d;" horiz-adv-x="1263" 
d="M569 1q129 0 235 45q207 88 296 293q44 99 44 206q0 193 -126 325t-333 132q-156 0 -287 -76q-130 -76 -204 -201t-74 -259t54 -236q54 -103 160 -166t235 -63zM579 -23q-219 0 -352 139t-133 342q0 112 46 216q95 215 313 305q111 47 244 47t245 -66t170 -174
q58 -109 58 -231t-46 -226t-124 -181t-188 -124t-233 -47zM496 1262h465v-24h-465v24z" />
    <glyph glyph-name="Obreve" unicode="&#x14e;" horiz-adv-x="1798" 
d="M1035 1708q-111 0 -183 64q-71 64 -71 170q0 18 4 46l25 -5q-4 -25 -4 -41q0 -90 62 -150t165 -60t198 73t125 183l24 -5q-28 -113 -131 -194t-214 -81zM884 2q160 0 318 68q322 139 463 452q71 156 71 316t-56 294q-113 271 -385 384q-136 57 -297 57t-318 -68
q-157 -67 -273 -181t-187 -270q-70 -156 -70 -316t55 -293q113 -273 383 -386q136 -57 296 -57zM884 -22q-166 0 -306 59q-279 117 -397 399q-57 138 -57 302t72 325t192 277t282 187q162 69 328 69t307 -58q283 -116 398 -397q58 -139 58 -303q-1 -164 -73 -326t-193 -278
t-283 -186t-328 -70z" />
    <glyph glyph-name="obreve" unicode="&#x14f;" horiz-adv-x="1263" 
d="M569 1q129 0 235 45q207 88 296 293q44 99 44 206q0 193 -126 325t-333 132q-156 0 -287 -76q-130 -76 -204 -201t-74 -259t54 -236q54 -103 160 -166t235 -63zM579 -23q-219 0 -352 139t-133 342q0 112 46 216q95 215 313 305q111 47 244 47t245 -66t170 -174
q58 -109 58 -231t-46 -226t-124 -181t-188 -124t-233 -47zM745 1141q-111 0 -182 64t-71 169q0 18 4 46l24 -4q-4 -25 -4 -42q0 -90 62 -150t165 -60t198 74t125 182l25 -4q-27 -113 -131 -194t-215 -81z" />
    <glyph glyph-name="Ohungarumlaut" unicode="&#x150;" horiz-adv-x="1798" 
d="M1346 1954l22 -17l-194 -224l-17 13zM1008 1954l22 -17l-194 -224l-17 13zM884 2q160 0 318 68q322 139 463 452q71 156 71 316t-56 294q-113 271 -385 384q-136 57 -297 57t-318 -68q-157 -67 -273 -181t-187 -270q-70 -156 -70 -316t55 -293q113 -273 383 -386
q136 -57 296 -57zM884 -22q-166 0 -306 59q-279 117 -397 399q-57 138 -57 302t72 325t192 277t282 187q162 69 328 69t307 -58q283 -116 398 -397q58 -139 58 -303q-1 -164 -73 -326t-193 -278t-283 -186t-328 -70z" />
    <glyph glyph-name="ohungarumlaut" unicode="&#x151;" horiz-adv-x="1263" 
d="M569 1q129 0 235 45q207 88 296 293q44 99 44 206q0 193 -126 325t-333 132q-156 0 -287 -76q-130 -76 -204 -201t-74 -259t54 -236q54 -103 160 -166t235 -63zM579 -23q-219 0 -352 139t-133 342q0 112 46 216q95 215 313 305q111 47 244 47t245 -66t170 -174
q58 -109 58 -231t-46 -226t-124 -181t-188 -124t-233 -47zM1160 1503l23 -16l-269 -309l-16 13zM822 1503l23 -16l-268 -309l-17 13z" />
    <glyph glyph-name="OE" unicode="&#x152;" horiz-adv-x="2354" 
d="M867 2q247 0 460 141l241 1134q-98 129 -248 202t-322 73t-326 -67t-269 -179t-184 -265q-69 -154 -69 -311t54 -290q109 -267 378 -382q133 -56 285 -56zM124 703q0 188 71 347q71 160 189 274t279 183q160 69 333 69t324 -71t255 -197l58 275h834v-22h-813l-160 -748
h784v-22h-788l-164 -768h805v-23h-834l23 110q-210 -132 -436 -132t-397 99t-267 269t-96 357z" />
    <glyph glyph-name="oe" unicode="&#x153;" horiz-adv-x="2287" 
d="M1732 1002q-188 0 -338 -111t-203 -280h998q-24 167 -147 279t-310 112zM569 1q129 0 235 45q207 88 296 293q44 99 44 206q0 193 -126 325t-333 132q-156 0 -287 -76q-130 -76 -204 -201t-74 -259t54 -236q54 -103 160 -166t235 -63zM570 -23q-210 0 -343 139t-133 342
q0 112 46 216q95 215 313 305q111 47 232 47q197 0 327 -117t152 -295q55 176 213 294t357 118q200 0 332 -122t150 -303l2 -12h-1034q-17 -67 -18 -131q0 -193 126 -325t335 -132q141 0 259 60t195 161l21 -14q-81 -106 -204 -168t-271 -63q-201 0 -330 116t-152 294
q-53 -177 -209 -293t-366 -117z" />
    <glyph glyph-name="Racute" unicode="&#x154;" horiz-adv-x="1302" 
d="M1179 1962l-393 -243l-10 18l388 249zM938 1561h-462l-170 -806h501q134 0 250 56q117 55 187 157t70 224q0 167 -102 268t-274 101zM943 1583q179 0 288 -106t108 -285q0 -132 -75 -239q-76 -106 -198 -163t-259 -58h-151l431 -724l-20 -13l-438 737h-328l-154 -732h-24
l334 1583h486z" />
    <glyph glyph-name="racute" unicode="&#x155;" horiz-adv-x="771" 
d="M1023 1409l-400 -249l-11 18l397 255zM584 1026q92 0 154 -60t64 -157q0 -31 -6 -61h-24q5 26 5 61q0 87 -55 140q-56 53 -148 53t-168 -52t-123 -143v-1l-170 -806h-25l213 1012h25l-31 -145q46 71 121 115q76 44 168 44z" />
    <glyph glyph-name="Rcommaaccent" unicode="&#x156;" horiz-adv-x="1302" 
d="M365 -387l-22 8l186 296l33 -15zM938 1561h-462l-170 -806h501q134 0 250 56q117 55 187 157t70 224q0 167 -102 268t-274 101zM943 1583q179 0 288 -106t108 -285q0 -132 -75 -239q-76 -106 -198 -163t-259 -58h-151l431 -724l-20 -13l-438 737h-328l-154 -732h-24
l334 1583h486z" />
    <glyph glyph-name="rcommaaccent" unicode="&#x157;" horiz-adv-x="771" 
d="M-94 -385l-22 8l187 296l32 -15zM584 1026q92 0 154 -60t64 -157q0 -31 -6 -61h-24q5 26 5 61q0 87 -55 140q-56 53 -148 53t-168 -52t-123 -143v-1l-170 -806h-25l213 1012h25l-31 -145q46 71 121 115q76 44 168 44z" />
    <glyph glyph-name="Rcaron" unicode="&#x158;" horiz-adv-x="1302" 
d="M1032 1958l17 -16l-239 -251h-17l-188 255l21 12l178 -238zM938 1561h-462l-170 -806h501q134 0 250 56q117 55 187 157t70 224q0 167 -102 268t-274 101zM943 1583q179 0 288 -106t108 -285q0 -132 -75 -239q-76 -106 -198 -163t-259 -58h-151l431 -724l-20 -13
l-438 737h-328l-154 -732h-24l334 1583h486z" />
    <glyph glyph-name="rcaron" unicode="&#x159;" horiz-adv-x="771" 
d="M863 1508l17 -16l-279 -293h-17l-219 296l20 12l210 -278zM584 1026q92 0 154 -60t64 -157q0 -31 -6 -61h-24q5 26 5 61q0 87 -55 140q-56 53 -148 53t-168 -52t-123 -143v-1l-170 -806h-25l213 1012h25l-31 -145q46 71 121 115q76 44 168 44z" />
    <glyph glyph-name="Sacute" unicode="&#x15a;" horiz-adv-x="1156" 
d="M1103 1961l-392 -243l-11 18l389 249zM480 -23q-156 0 -296 68q-141 68 -215 177l21 14q72 -103 207 -169t285 -66t262 51q114 51 185 151t70 230q0 257 -253 362l-180 74q-259 108 -259 338q0 115 63 205q64 90 168 138t228 47q275 0 411 -161l-21 -15q-62 72 -166 112
t-224 41q-187 0 -310 -103t-123 -264q0 -212 245 -314l181 -76q266 -112 266 -384q0 -136 -75 -242q-74 -106 -194 -160t-276 -54z" />
    <glyph glyph-name="sacute" unicode="&#x15b;" horiz-adv-x="1056" 
d="M1046 1409l-401 -249l-10 18l396 255zM612 1002q-168 0 -265 -69t-97 -166q0 -60 46 -112t137 -78l251 -74q209 -61 209 -225q1 -129 -125 -215t-318 -86q-257 0 -470 176l16 21q207 -173 454 -173q184 0 301 81t116 196q0 143 -191 200l-249 74q-101 30 -152 88t-51 127
q0 111 106 185t282 74q242 0 424 -141l-16 -19q-176 136 -408 136z" />
    <glyph glyph-name="Scircumflex" unicode="&#x15c;" horiz-adv-x="1156" 
d="M574 1696l-16 16l297 251h18l195 -256l-20 -12l-185 239zM480 -23q-156 0 -296 68q-141 68 -215 177l21 14q72 -103 207 -169t285 -66t262 51q114 51 185 151t70 230q0 257 -253 362l-180 74q-259 108 -259 338q0 115 63 205q64 90 168 138t228 47q275 0 411 -161
l-21 -15q-62 72 -166 112t-224 41q-187 0 -310 -103t-123 -264q0 -212 245 -314l181 -76q266 -112 266 -384q0 -136 -75 -242q-74 -106 -194 -160t-276 -54z" />
    <glyph glyph-name="scircumflex" unicode="&#x15d;" horiz-adv-x="1056" 
d="M468 1109l-16 16l302 306l174 -309l-21 -12l-157 280zM612 1002q-168 0 -265 -69t-97 -166q0 -60 46 -112t137 -78l251 -74q209 -61 209 -225q1 -129 -125 -215t-318 -86q-257 0 -470 176l16 21q207 -173 454 -173q184 0 301 81t116 196q0 143 -191 200l-249 74
q-101 30 -152 88t-51 127q0 111 106 185t282 74q242 0 424 -141l-16 -19q-176 136 -408 136z" />
    <glyph glyph-name="Scedilla" unicode="&#x15e;" horiz-adv-x="1156" 
d="M139 -396v25q101 23 196 112q94 90 122 220l24 -4q-31 -137 -129 -233t-213 -120zM480 -23q-156 0 -296 68q-141 68 -215 177l21 14q72 -103 207 -169t285 -66t262 51q114 51 185 151t70 230q0 257 -253 362l-180 74q-259 108 -259 338q0 115 63 205q64 90 168 138
t228 47q275 0 411 -161l-21 -15q-62 72 -166 112t-224 41q-187 0 -310 -103t-123 -264q0 -212 245 -314l181 -76q266 -112 266 -384q0 -136 -75 -242q-74 -106 -194 -160t-276 -54z" />
    <glyph glyph-name="scedilla" unicode="&#x15f;" horiz-adv-x="1056" 
d="M92 -396v25q101 23 196 112q94 90 122 220l24 -4q-32 -137 -130 -233t-212 -120zM612 1002q-168 0 -265 -69t-97 -166q0 -60 46 -112t137 -78l251 -74q209 -61 209 -225q1 -129 -125 -215t-318 -86q-257 0 -470 176l16 21q207 -173 454 -173q184 0 301 81t116 196
q0 143 -191 200l-249 74q-101 30 -152 88t-51 127q0 111 106 185t282 74q242 0 424 -141l-16 -19q-176 136 -408 136z" />
    <glyph glyph-name="Scaron" unicode="&#x160;" horiz-adv-x="1156" 
d="M1078 1945l17 -17l-239 -251h-17l-188 255l21 13l178 -238zM480 -23q-156 0 -296 68q-141 68 -215 177l21 14q72 -103 207 -169t285 -66t262 51q114 51 185 151t70 230q0 257 -253 362l-180 74q-259 108 -259 338q0 115 63 205q64 90 168 138t228 47q275 0 411 -161
l-21 -15q-62 72 -166 112t-224 41q-187 0 -310 -103t-123 -264q0 -212 245 -314l181 -76q266 -112 266 -384q0 -136 -75 -242q-74 -106 -194 -160t-276 -54z" />
    <glyph glyph-name="scaron" unicode="&#x161;" horiz-adv-x="1056" 
d="M980 1508l16 -16l-278 -293h-18l-219 296l21 12l210 -278zM612 1002q-168 0 -265 -69t-97 -166q0 -60 46 -112t137 -78l251 -74q209 -61 209 -225q1 -129 -125 -215t-318 -86q-257 0 -470 176l16 21q207 -173 454 -173q184 0 301 81t116 196q0 143 -191 200l-249 74
q-101 30 -152 88t-51 127q0 111 106 185t282 74q242 0 424 -141l-16 -19q-176 136 -408 136z" />
    <glyph glyph-name="Tcommaaccent" unicode="&#x162;" horiz-adv-x="1124" 
d="M234 -386l-21 8l186 296l33 -15zM173 1561l5 22h1192l-5 -22h-584l-328 -1561h-25l329 1561h-584z" />
    <glyph glyph-name="tcommaaccent" unicode="&#x163;" horiz-adv-x="562" 
d="M-24 -386l-21 8l186 296l33 -15zM163 0l209 989h-209l4 23h210l95 450h24l-96 -450h228l-4 -23h-228l-209 -989h-24z" />
    <glyph glyph-name="Tcaron" unicode="&#x164;" horiz-adv-x="1124" 
d="M1028 1956l16 -17l-238 -250h-18l-187 255l21 12l178 -238zM173 1561l5 22h1192l-5 -22h-584l-328 -1561h-25l329 1561h-584z" />
    <glyph glyph-name="tcaron" unicode="&#x165;" horiz-adv-x="562" 
d="M693 1514l29 -11l-148 -385l-18 7zM163 0l209 989h-209l4 23h210l95 450h24l-96 -450h228l-4 -23h-228l-209 -989h-24z" />
    <glyph glyph-name="Tbar" unicode="&#x166;" horiz-adv-x="1124" 
d="M173 1561l5 22h1192l-5 -22h-584l-132 -628h480l-4 -24h-481l-191 -909h-25l192 909h-400l4 24h401l132 628h-584z" />
    <glyph glyph-name="tbar" unicode="&#x167;" horiz-adv-x="582" 
d="M92 586h205l85 403h-209l4 23h210l95 450h24l-95 -450h227l-4 -23h-228l-85 -403h236v-24h-242l-117 -562h-25l119 562h-200v24z" />
    <glyph glyph-name="Utilde" unicode="&#x168;" horiz-adv-x="1392" 
d="M1099 1794q-57 0 -151 49t-142 49q-93 0 -139 -83l-21 15q51 92 160 92q56 0 150 -48t141 -50q94 0 142 84l22 -14q-54 -94 -162 -94zM624 -22q-226 0 -354 114q-127 114 -127 295q0 68 15 131l225 1065h25l-227 -1069q-14 -63 -14 -127q0 -172 121 -278
q121 -107 337 -107t362 140t196 376l224 1065h25l-226 -1069q-52 -248 -204 -392t-378 -144z" />
    <glyph glyph-name="utilde" unicode="&#x169;" horiz-adv-x="1157" 
d="M622 1415q57 -1 150 -49t140 -49q94 0 143 84l21 -13q-54 -94 -162 -95q-56 0 -150 49t-142 50q-93 0 -140 -83l-20 14q51 92 160 92zM479 -23q-102 0 -181 35t-130 106t-51 165q0 38 9 77l136 652h27l-138 -658q-8 -39 -9 -71q0 -86 47 -151q92 -128 279 -130
q125 0 243 71t172 161l164 778h24l-213 -1012h-24l36 174q-71 -89 -180 -143t-211 -54z" />
    <glyph glyph-name="Umacron" unicode="&#x16a;" horiz-adv-x="1392" 
d="M711 1833h465v-24h-465v24zM624 -22q-226 0 -354 114q-127 114 -127 295q0 68 15 131l225 1065h25l-227 -1069q-14 -63 -14 -127q0 -172 121 -278q121 -107 337 -107t362 140t196 376l224 1065h25l-226 -1069q-52 -248 -204 -392t-378 -144z" />
    <glyph glyph-name="umacron" unicode="&#x16b;" horiz-adv-x="1157" 
d="M473 1262h465v-24h-465v24zM479 -23q-102 0 -181 35t-130 106t-51 165q0 38 9 77l136 652h27l-138 -658q-8 -39 -9 -71q0 -86 47 -151q92 -128 279 -130q125 0 243 71t172 161l164 778h24l-213 -1012h-24l36 174q-71 -89 -180 -143t-211 -54z" />
    <glyph glyph-name="Ubreve" unicode="&#x16c;" horiz-adv-x="1392" 
d="M955 1707q-111 0 -182 64t-72 169q0 18 5 47l24 -5q-4 -25 -4 -42q0 -90 62 -150t165 -60t198 74q95 73 125 183l24 -5q-28 -113 -131 -194t-214 -81zM624 -22q-226 0 -354 114q-127 114 -127 295q0 68 15 131l225 1065h25l-227 -1069q-14 -63 -14 -127q0 -172 121 -278
q121 -107 337 -107t362 140t196 376l224 1065h25l-226 -1069q-52 -248 -204 -392t-378 -144z" />
    <glyph glyph-name="ubreve" unicode="&#x16d;" horiz-adv-x="1157" 
d="M694 1138q-111 0 -183 64q-71 64 -71 169q0 18 4 46l25 -4q-4 -25 -4 -42q0 -90 62 -150t165 -60t198 73t125 183l24 -4q-28 -113 -131 -194t-214 -81zM479 -23q-102 0 -181 35t-130 106t-51 165q0 38 9 77l136 652h27l-138 -658q-8 -39 -9 -71q0 -86 47 -151
q92 -128 279 -130q125 0 243 71t172 161l164 778h24l-213 -1012h-24l36 174q-71 -89 -180 -143t-211 -54z" />
    <glyph glyph-name="Uring" unicode="&#x16e;" horiz-adv-x="1392" 
d="M931 1705q62 0 104 42q41 41 41 101t-42 102t-103 43q-61 0 -103 -42t-43 -102q0 -60 42 -102t104 -42zM1100 1849q0 -71 -48 -119t-122 -48t-121 49t-47 119t48 117q48 48 120 48t122 -48q48 -48 48 -118zM624 -22q-226 0 -354 114q-127 114 -127 295q0 68 15 131
l225 1065h25l-227 -1069q-14 -63 -14 -127q0 -172 121 -278q121 -107 337 -107t362 140t196 376l224 1065h25l-226 -1069q-52 -248 -204 -392t-378 -144z" />
    <glyph glyph-name="uring" unicode="&#x16f;" horiz-adv-x="1157" 
d="M663 1165q62 1 103 43q42 42 42 102t-42 101q-42 42 -103 42t-103 -42q-42 -41 -43 -101q0 -60 42 -102t104 -43zM479 -23q-102 0 -181 35t-130 106t-51 165q0 38 9 77l136 652h27l-138 -658q-8 -39 -9 -71q0 -86 47 -151q92 -128 279 -130q125 0 243 71t172 161l164 778
h24l-213 -1012h-24l36 174q-71 -89 -180 -143t-211 -54zM662 1143q-74 1 -121 49q-48 48 -47 118q0 70 48 118t120 48t122 -48q48 -48 48 -118t-48 -118t-122 -49z" />
    <glyph glyph-name="Uhungarumlaut" unicode="&#x170;" horiz-adv-x="1392" 
d="M1229 1956l22 -17l-194 -224l-17 14zM891 1956l22 -17l-194 -224l-17 14zM624 -22q-226 0 -354 114q-127 114 -127 295q0 68 15 131l225 1065h25l-227 -1069q-14 -63 -14 -127q0 -172 121 -278q121 -107 337 -107t362 140t196 376l224 1065h25l-226 -1069
q-52 -248 -204 -392t-378 -144z" />
    <glyph glyph-name="uhungarumlaut" unicode="&#x171;" horiz-adv-x="1157" 
d="M738 1491l23 -16l-268 -310l-17 14zM1076 1491l23 -16l-269 -310l-16 14zM479 -23q-102 0 -181 35t-130 106t-51 165q0 38 9 77l136 652h27l-138 -658q-8 -39 -9 -71q0 -86 47 -151q92 -128 279 -130q125 0 243 71t172 161l164 778h24l-213 -1012h-24l36 174
q-71 -89 -180 -143t-211 -54z" />
    <glyph glyph-name="Uogonek" unicode="&#x172;" horiz-adv-x="1392" 
d="M610 -22q-219 0 -343 114t-124 295q0 68 15 131l225 1065h25l-227 -1069q-14 -63 -14 -127q0 -173 118 -279t330 -106t366 144t202 372l224 1065h25l-226 -1069q-32 -150 -110 -268t-191 -186l-66 -53q-74 -60 -74 -129q0 -44 30 -75t75 -31t107 47l191 150l15 -18
l-184 -147q-71 -56 -129 -56t-94 37t-36 103t69 125q-100 -35 -199 -35z" />
    <glyph glyph-name="uogonek" unicode="&#x173;" horiz-adv-x="1157" 
d="M479 -23q-102 0 -181 35t-130 106t-51 165q0 38 9 77l136 652h27l-138 -658q-8 -39 -9 -71q0 -86 47 -151q92 -128 279 -130q125 0 243 71t172 161l164 778h24l-213 -1012h-1l-189 -152q-38 -32 -56 -60t-18 -70t30 -74q30 -31 75 -31t107 47l191 151l15 -19l-184 -146
q-70 -56 -128 -56t-95 36q-37 38 -37 88t22 85q22 36 68 73l178 140l34 162q-71 -89 -180 -143t-211 -54z" />
    <glyph glyph-name="Wcircumflex" unicode="&#x174;" horiz-adv-x="1844" 
d="M854 1693l-16 16l297 251h18l195 -256l-21 -12l-184 239zM270 1583l82 -1528l764 1528h21l114 -1528l731 1533l26 -11l-755 -1577h-22l-115 1526l-762 -1526h-24l-84 1583h24z" />
    <glyph glyph-name="wcircumflex" unicode="&#x175;" horiz-adv-x="1496" 
d="M620 1109l-17 16l302 306l174 -309l-20 -12l-158 280zM250 0l-158 1012l24 4l153 -985l545 962h26l137 -944l579 971l22 -12l-603 -1008h-17l-137 956l-539 -956h-32z" />
    <glyph glyph-name="Ycircumflex" unicode="&#x176;" horiz-adv-x="1006" 
d="M457 1698l-17 16l297 251h19l194 -256l-20 -12l-185 239zM368 0l133 633l-327 950l23 8l320 -934l715 937l20 -14l-729 -952l-131 -628h-24z" />
    <glyph glyph-name="ycircumflex" unicode="&#x177;" horiz-adv-x="856" 
d="M307 1109l-16 16l302 306l174 -309l-21 -12l-157 280zM949 1008l-909 -1418l-21 13l269 419l-202 984l25 6l196 -961l622 969z" />
    <glyph glyph-name="Ydieresis" unicode="&#x178;" horiz-adv-x="1006" 
d="M477 1832q0 13 10 23q24 24 48 0q10 -10 10 -23q0 -14 -10 -24q-9 -10 -23 -10t-25 10q-10 11 -10 24zM929 1832q0 13 9 23q10 11 24 11t30 -16q15 -16 0 -34t-29 -18t-25 10q-9 11 -9 24zM368 0l133 633l-327 950l23 8l320 -934l715 937l20 -14l-729 -952l-131 -628h-24
z" />
    <glyph glyph-name="Zacute" unicode="&#x179;" horiz-adv-x="1273" 
d="M1171 1961l-392 -243l-10 18l388 249zM293 1561v22h1145l-1474 -1560h1115v-23h-1171l1473 1561h-1088z" />
    <glyph glyph-name="zacute" unicode="&#x17a;" horiz-adv-x="861" 
d="M928 1408l-392 -243l-11 18l388 249zM765 23v-23h-821l913 989h-691v23h746l-912 -989h765z" />
    <glyph glyph-name="Zdotaccent" unicode="&#x17b;" horiz-adv-x="1273" 
d="M883 1829q0 14 10 24q11 11 25 11t24 -10t10 -25t-10 -25t-24 -10t-25 10q-10 11 -10 25zM293 1561v22h1145l-1474 -1560h1115v-23h-1171l1473 1561h-1088z" />
    <glyph glyph-name="zdotaccent" unicode="&#x17c;" horiz-adv-x="861" 
d="M492 1258q0 14 10 24t24 11q14 0 24 -10q10 -11 11 -25q0 -14 -10 -24q-11 -10 -25 -10t-24 10t-10 24zM765 23v-23h-821l913 989h-691v23h746l-912 -989h765z" />
    <glyph glyph-name="Zcaron" unicode="&#x17d;" horiz-adv-x="1273" 
d="M1121 1955l17 -17l-239 -250h-17l-188 255l21 12l178 -238zM293 1561v22h1145l-1474 -1560h1115v-23h-1171l1473 1561h-1088z" />
    <glyph glyph-name="zcaron" unicode="&#x17e;" horiz-adv-x="861" 
d="M873 1506l17 -16l-279 -293h-17l-219 296l20 12l210 -278zM765 23v-23h-821l913 989h-691v23h746l-912 -989h765z" />
    <glyph glyph-name="longs" unicode="&#x17f;" horiz-adv-x="483" 
d="M704 1591q129 0 197 -78l-18 -16q-59 71 -179 71t-200 -70t-107 -195l-274 -1303h-25l277 1309q29 134 114 208q86 74 215 74z" />
    <glyph glyph-name="florin" unicode="&#x192;" horiz-adv-x="946" 
d="M1208 1591q128 0 183 -78l-23 -16q-44 71 -164 71t-214 -69t-147 -196l-123 -291h249l-5 -24h-253l-454 -1075q-55 -134 -157 -208q-102 -75 -231 -75t-180 78l21 17q46 -71 165 -71t214 70t148 195l448 1069h-225l5 24h230l125 297q56 134 158 208t230 74z" />
    <glyph glyph-name="Ohorn" unicode="&#x1a0;" horiz-adv-x="1808" 
d="M884 2q160 0 318 68q322 139 463 452q71 156 71 316t-56 294q-113 271 -385 384q-136 57 -297 57t-318 -68q-157 -67 -273 -181t-187 -270q-70 -156 -70 -316t55 -293q113 -273 383 -386q136 -57 296 -57zM884 -22q-166 0 -306 59q-279 117 -397 399q-57 138 -57 302
t72 325t192 277t282 187q162 69 346 69t346 -84t265 -232q73 14 132 81t79 166l14 71h25l-14 -68q-46 -220 -222 -270q120 -186 120 -412q-1 -174 -73 -336t-193 -278t-283 -186t-328 -70z" />
    <glyph glyph-name="ohorn" unicode="&#x1a1;" horiz-adv-x="1317" 
d="M569 1q129 0 235 45q207 88 296 293q44 99 44 206q0 193 -126 325t-333 132q-156 0 -287 -76q-130 -76 -204 -201t-74 -259t54 -236q54 -103 160 -166t235 -63zM579 -23q-219 0 -352 139t-133 342q0 112 46 216q95 215 313 305q111 47 232 47q175 0 298 -93t166 -243
q76 10 139 78t83 171l14 72h25l-14 -69q-27 -128 -92 -194t-149 -82q14 -60 14 -146q1 -86 -45 -191q-46 -104 -124 -181t-188 -124t-233 -47z" />
    <glyph glyph-name="Uhorn" unicode="&#x1af;" horiz-adv-x="1475" 
d="M624 -22q-226 0 -354 114q-127 114 -127 295q0 68 15 131l225 1065h25l-227 -1069q-14 -63 -14 -127q0 -172 121 -278q121 -107 337 -107t362 140t196 376l224 1065h25l-67 -313q74 12 134 80t81 168l14 71h25l-14 -68q-27 -127 -93 -195t-152 -83l-154 -729
q-52 -248 -204 -392t-378 -144z" />
    <glyph glyph-name="uhorn" unicode="&#x1b0;" horiz-adv-x="1177" 
d="M479 -23q-102 0 -181 35t-130 106t-51 165q0 38 9 77l136 652h27l-138 -658q-8 -39 -9 -71q0 -86 47 -151q92 -128 279 -130q125 0 243 71t172 161l164 778h24l-69 -323q74 12 135 80t82 168l14 72h24l-14 -69q-27 -126 -93 -194t-153 -83l-139 -663h-24l36 174
q-71 -89 -180 -143t-211 -54z" />
    <glyph glyph-name="Icaron" unicode="&#x1cf;" horiz-adv-x="517" 
d="M692 1960l20 -15l-228 -293l-94 301l23 7l81 -259zM123 0l334 1583h24l-334 -1583h-24z" />
    <glyph glyph-name="icaron" unicode="&#x1d0;" horiz-adv-x="412" 
d="M528 1506l20 -15l-227 -293l-95 301l23 7l81 -259zM88 0l212 1012h27l-214 -1012h-25z" />
    <glyph glyph-name="Aringacute" unicode="&#x1fa;" horiz-adv-x="1334" 
d="M1345 2319l-393 -242l-10 17l388 249zM914 1704q62 0 104 42t42 102t-42 102t-104 42t-103 -42q-42 -42 -42 -102q-1 -60 41 -102t104 -42zM914 1681q-74 0 -122 49q-48 48 -47 118t49 118t120 48t121 -48t49 -118t-49 -118q-47 -48 -121 -49zM880 1551l-738 -1175h978z
M-100 -11l-21 12l995 1586h22l326 -1587h-25l-73 353h-996z" />
    <glyph glyph-name="aringacute" unicode="&#x1fb;" horiz-adv-x="1277" 
d="M1163 1757l-400 -249l-10 18l396 255zM746 1165q62 1 104 43t42 102t-42 101q-42 42 -104 42t-103 -42q-42 -41 -42 -101q-1 -60 41 -102t104 -43zM746 1143q-74 1 -122 49t-46 118q0 70 48 118t120 48t121 -48t49 -118t-49 -118q-47 -48 -121 -49zM571 1q252 0 419 169
l126 602q-164 230 -427 230q-157 0 -289 -76t-206 -201t-74 -259t54 -236q54 -103 160 -166t237 -63zM588 -23q-228 0 -361 139t-133 342q0 112 47 216q97 215 315 305q111 47 233 47q266 0 434 -221l44 207h25l-213 -1012h-25l28 130q-166 -153 -394 -153z" />
    <glyph glyph-name="AEacute" unicode="&#x1fc;" horiz-adv-x="1627" 
d="M1437 1961l-393 -243l-10 18l388 249zM428 812h314l155 726zM1740 1583v-22h-813l-160 -749h784v-22h-788l-164 -767h805v-23h-834l167 790h-323l-508 -790h-29l1018 1583h845z" />
    <glyph glyph-name="aeacute" unicode="&#x1fd;" horiz-adv-x="2128" 
d="M1527 1409l-401 -249l-10 18l396 255zM1569 1002q-187 0 -337 -111t-204 -280h998q-24 167 -146 279q-124 112 -311 112zM978 458v16q-54 50 -156 88t-204 38q-227 0 -369 -103q-141 -103 -141 -251t179 -212q92 -32 220 -32q127 0 273 68t242 176q-44 99 -44 212z
M1462 -23q-148 1 -260 67t-169 177q-99 -111 -247 -177t-321 -66t-288 84q-95 68 -95 204q0 74 48 146q86 129 298 188q94 25 192 25t198 -34t162 -85q4 42 15 86l21 99q37 181 -138 263q-98 48 -221 46q-250 0 -433 -121l-14 20q187 127 447 127q166 0 280 -73
q57 -35 86 -97t20 -141q76 139 218 225q141 86 325 86t316 -122t151 -303l2 -12h-1034q-17 -67 -17 -131q0 -193 125 -325t335 -132q141 0 259 60t195 161l21 -14q-81 -106 -205 -168t-272 -63z" />
    <glyph glyph-name="Oslashacute" unicode="&#x1fe;" horiz-adv-x="1798" 
d="M1378 1962l-392 -243l-10 18l388 249zM150 728q0 -170 70 -317t194 -249l1026 1274q-191 137 -436 137q-167 0 -324 -68q-157 -67 -273 -181q-117 -114 -187 -270t-70 -326zM878 2q166 0 324 68q322 139 463 452q71 156 71 328t-74 322t-203 249l-1027 -1274
q195 -145 446 -145zM878 -22q-262 0 -461 150l-96 -119l-18 16l95 117q-129 104 -201 257q-73 153 -73 328t72 336t192 277t282 187q162 70 334 69q255 0 451 -141l103 127l18 -15l-101 -126q135 -103 211 -258t76 -332t-74 -339q-72 -162 -193 -278t-283 -186t-334 -70z
" />
    <glyph glyph-name="oslashacute" unicode="&#x1ff;" horiz-adv-x="1263" 
d="M1020 1409l-400 -249l-11 18l397 255zM120 477q0 -240 152 -371l679 820q-115 76 -269 76t-284 -76t-204 -201t-74 -248zM579 1q119 0 225 45q207 88 296 293q44 99 44 209t-45 205q-45 96 -128 158l-679 -820q120 -90 287 -90zM705 1026q141 0 262 -82l64 78l19 -15
l-64 -76q87 -66 135 -167t48 -216q1 -115 -45 -219t-124 -181t-188 -124t-233 -47q-177 0 -304 96l-82 -101l-19 16l83 100q-161 136 -163 370q0 112 46 216q95 215 313 305q111 47 252 47z" />
    <glyph glyph-name="Scommaaccent" unicode="&#x218;" horiz-adv-x="1156" 
d="M307 -386l-21 8l186 296l33 -15zM480 -23q-156 0 -296 68q-141 68 -215 177l21 14q72 -103 207 -169t285 -66t262 51q114 51 185 151t70 230q0 257 -253 362l-180 74q-259 108 -259 338q0 115 63 205q64 90 168 138t228 47q275 0 411 -161l-21 -15q-62 72 -166 112
t-224 41q-187 0 -310 -103t-123 -264q0 -212 245 -314l181 -76q266 -112 266 -384q0 -136 -75 -242q-74 -106 -194 -160t-276 -54z" />
    <glyph glyph-name="scommaaccent" unicode="&#x219;" horiz-adv-x="1056" 
d="M412 -81l24 -11l-138 -290l-18 9zM612 1002q-168 0 -265 -69t-97 -166q0 -60 46 -112t137 -78l251 -74q209 -61 209 -225q1 -129 -125 -215t-318 -86q-257 0 -470 176l16 21q207 -173 454 -173q184 0 301 81t116 196q0 143 -191 200l-249 74q-101 30 -152 88t-51 127
q0 111 106 185t282 74q242 0 424 -141l-16 -19q-176 136 -408 136z" />
    <glyph glyph-name="dotlessj" unicode="&#x237;" horiz-adv-x="412" 
d="M328 1012l-243 -1141q-29 -134 -110 -208t-198 -81l-2 24q111 6 185 75t101 195l241 1136h26z" />
    <glyph glyph-name="apostrophe" unicode="&#x2bc;" horiz-adv-x="257" 
d="M326 1597l28 -11l-147 -385l-19 7z" />
    <glyph glyph-name="circumflex" unicode="&#x2c6;" horiz-adv-x="731" 
d="M210 1098l-16 16l302 305l174 -308l-21 -12l-157 279z" />
    <glyph glyph-name="caron" unicode="&#x2c7;" horiz-adv-x="731" 
d="M725 1386l16 -16l-278 -293h-18l-219 296l21 12l210 -278z" />
    <glyph glyph-name="breve" unicode="&#x2d8;" horiz-adv-x="768" 
d="M479 1114q-111 0 -183 64q-71 64 -71 170q0 18 4 46l25 -4q-4 -25 -4 -42q0 -90 62 -150t165 -60t198 73t125 183l24 -4q-28 -112 -131 -194t-214 -82z" />
    <glyph glyph-name="dotaccent" unicode="&#x2d9;" horiz-adv-x="518" 
d="M328 1258q0 14 10 24t24 11q14 0 24 -10q10 -11 11 -25q0 -14 -10 -24q-11 -10 -25 -10t-24 10t-10 24z" />
    <glyph glyph-name="ring" unicode="&#x2da;" horiz-adv-x="576" 
d="M394 1165q62 1 104 43t42 102t-42 101q-42 42 -104 42t-103 -42q-42 -41 -42 -101t41 -103q42 -42 104 -42zM225 1310q0 70 48 118q49 48 121 48t121 -48t49 -118t-49 -118q-47 -48 -121 -49q-74 1 -122 49t-47 118z" />
    <glyph glyph-name="ogonek" unicode="&#x2db;" horiz-adv-x="683" 
d="M2 -284q0 -42 30 -73t75 -31t107 47l192 151l14 -19l-183 -146q-70 -57 -129 -57t-95 38q-37 38 -37 86q0 50 22 86t69 73l185 146l14 -17l-190 -153q-38 -31 -56 -59q-18 -30 -18 -72z" />
    <glyph glyph-name="tilde" unicode="&#x2dc;" horiz-adv-x="852" 
d="M706 1221q-46 1 -99 25t-103 48t-91 25q-93 0 -140 -83l-20 14q51 92 160 92q57 0 150 -48t140 -50q94 0 143 84l21 -13q-54 -94 -161 -94z" />
    <glyph glyph-name="hungarumlaut" unicode="&#x2dd;" horiz-adv-x="681" 
d="M764 1491l22 -16l-268 -310l-16 14zM426 1491l23 -16l-269 -310l-16 14z" />
    <glyph glyph-name="Delta" unicode="&#x394;" horiz-adv-x="1321" 
d="M862 1551l-940 -1527h1257zM-121 0l976 1587h25l329 -1587h-1330z" />
    <glyph glyph-name="Delta" unicode="&#x2206;" horiz-adv-x="1321" 
d="M862 1551l-940 -1527h1257zM-121 0l976 1587h25l329 -1587h-1330z" />
    <glyph glyph-name="Omega" unicode="&#x3a9;" horiz-adv-x="1767" 
d="M1718 838q0 -170 -83 -342t-225 -294t-317 -178h409l-3 -24h-488v24q140 32 265 112q259 165 363 436q54 138 54 270q0 255 -137 440q-212 288 -606 288q-144 0 -299 -67t-270 -179t-184 -266t-69 -322t68 -319q68 -150 191 -253t281 -138v-26h-502l3 24h418
q-219 74 -352 270t-133 443q0 171 72 330q141 317 467 457q160 69 324 69t303 -58t238 -156q212 -211 212 -541z" />
    <glyph glyph-name="Omega" unicode="&#x2126;" horiz-adv-x="1767" 
d="M1718 838q0 -170 -83 -342t-225 -294t-317 -178h409l-3 -24h-488v24q140 32 265 112q259 165 363 436q54 138 54 270q0 255 -137 440q-212 288 -606 288q-144 0 -299 -67t-270 -179t-184 -266t-69 -322t68 -319q68 -150 191 -253t281 -138v-26h-502l3 24h418
q-219 74 -352 270t-133 443q0 171 72 330q141 317 467 457q160 69 324 69t303 -58t238 -156q212 -211 212 -541z" />
    <glyph glyph-name="pi" unicode="&#x3c0;" horiz-adv-x="1168" 
d="M105 954v24h1033v-24h-186l-143 -682q-13 -60 -13 -120t43 -97t109 -37t125 41l12 -17q-67 -48 -141 -48t-124 44q-49 44 -49 110q0 65 13 124l144 682h-598l-203 -954h-25l201 954h-198z" />
    <glyph glyph-name="Wgrave" unicode="&#x1e80;" horiz-adv-x="1844" 
d="M819 1985l275 -252l-15 -15l-279 247zM270 1583l82 -1528l764 1528h21l114 -1528l731 1533l26 -11l-755 -1577h-22l-115 1526l-762 -1526h-24l-84 1583h24z" />
    <glyph glyph-name="wgrave" unicode="&#x1e81;" horiz-adv-x="1496" 
d="M569 1431l276 -253l-15 -15l-280 248zM250 0l-158 1012l24 4l153 -985l545 962h26l137 -944l579 971l22 -12l-603 -1008h-17l-137 956l-539 -956h-32z" />
    <glyph glyph-name="Wacute" unicode="&#x1e82;" horiz-adv-x="1844" 
d="M1504 1961l-392 -243l-10 18l388 249zM270 1583l82 -1528l764 1528h21l114 -1528l731 1533l26 -11l-755 -1577h-22l-115 1526l-762 -1526h-24l-84 1583h24z" />
    <glyph glyph-name="wacute" unicode="&#x1e83;" horiz-adv-x="1496" 
d="M1247 1405l-400 -249l-10 18l396 254zM250 0l-158 1012l24 4l153 -985l545 962h26l137 -944l579 971l22 -12l-603 -1008h-17l-137 956l-539 -956h-32z" />
    <glyph glyph-name="Wdieresis" unicode="&#x1e84;" horiz-adv-x="1844" 
d="M1241 1828q0 13 10 23q25 25 48 1t-1 -48q-10 -10 -23 -10t-24 10q-10 11 -10 24zM906 1828q0 13 10 23q10 11 24 11t24 -10t10 -24t-10 -24t-24 -10t-24 10t-10 24zM270 1583l82 -1528l764 1528h21l114 -1528l731 1533l26 -11l-755 -1577h-22l-115 1526l-762 -1526h-24
l-84 1583h24z" />
    <glyph glyph-name="wdieresis" unicode="&#x1e85;" horiz-adv-x="1496" 
d="M996 1303q0 14 16 30t34 0t18 -30t-16 -31t-34 0t-18 31zM662 1303q0 14 16 30t33 0q18 -16 18 -30t-16 -31t-33 0q-18 17 -18 31zM250 0l-158 1012l24 4l153 -985l545 962h26l137 -944l579 971l22 -12l-603 -1008h-17l-137 956l-539 -956h-32z" />
    <glyph glyph-name="Adotbelow" unicode="&#x1ea0;" horiz-adv-x="1334" 
d="M544 -223q0 14 9 24q11 10 25 10t30 -16t0 -34t-30 -18t-25 10q-9 10 -9 24zM880 1551l-738 -1175h978zM-100 -11l-21 12l995 1586h22l326 -1587h-25l-73 353h-996z" />
    <glyph glyph-name="adotbelow" unicode="&#x1ea1;" horiz-adv-x="1277" 
d="M430 -223q0 14 10 24t24 10t23 -10q11 -10 11 -24t-10 -24t-24 -10q-13 0 -24 10q-10 10 -10 24zM571 1q252 0 419 169l126 602q-164 230 -427 230q-157 0 -289 -76t-206 -201t-74 -259t54 -236q54 -103 160 -166t237 -63zM588 -23q-228 0 -361 139t-133 342
q0 112 47 216q97 215 315 305q111 47 233 47q266 0 434 -221l44 207h25l-213 -1012h-25l28 130q-166 -153 -394 -153z" />
    <glyph glyph-name="Odotbelow" unicode="&#x1ecc;" horiz-adv-x="1798" 
d="M769 -223q0 14 10 24t24 10t24 -10t10 -24t-10 -24t-24 -10t-24 10t-10 24zM884 2q160 0 318 68q322 139 463 452q71 156 71 316t-56 294q-113 271 -385 384q-136 57 -297 57t-318 -68q-157 -67 -273 -181t-187 -270q-70 -156 -70 -316t55 -293q113 -273 383 -386
q136 -57 296 -57zM884 -22q-166 0 -306 59q-279 117 -397 399q-57 138 -57 302t72 325t192 277t282 187q162 69 328 69t307 -58q283 -116 398 -397q58 -139 58 -303q-1 -164 -73 -326t-193 -278t-283 -186t-328 -70z" />
    <glyph glyph-name="odotbelow" unicode="&#x1ecd;" horiz-adv-x="1263" 
d="M569 1q129 0 235 45q207 88 296 293q44 99 44 206q0 193 -126 325t-333 132q-156 0 -287 -76q-130 -76 -204 -201t-74 -259t54 -236q54 -103 160 -166t235 -63zM579 -23q-219 0 -352 139t-133 342q0 112 46 216q95 215 313 305q111 47 244 47t245 -66t170 -174
q58 -109 58 -231t-46 -226t-124 -181t-188 -124t-233 -47zM504 -221q0 14 10 24t24 10t23 -10q10 -10 10 -24t-10 -24t-23 -10t-24 10q-10 10 -10 24z" />
    <glyph glyph-name="Udotbelow" unicode="&#x1ee4;" horiz-adv-x="1392" 
d="M486 -221q0 14 10 24t24 10t24 -10t10 -24t-10 -24t-24 -10t-24 10t-10 24zM624 -22q-226 0 -354 114q-127 114 -127 295q0 68 15 131l225 1065h25l-227 -1069q-14 -63 -14 -127q0 -172 121 -278q121 -107 337 -107t362 140t196 376l224 1065h25l-226 -1069
q-52 -248 -204 -392t-378 -144z" />
    <glyph glyph-name="udotbelow" unicode="&#x1ee5;" horiz-adv-x="1157" 
d="M368 -223q0 14 9 24q10 10 24 10t24 -10t10 -24t-10 -24t-24 -10t-24 10q-9 10 -9 24zM479 -23q-102 0 -181 35t-130 106t-51 165q0 38 9 77l136 652h27l-138 -658q-8 -39 -9 -71q0 -86 47 -151q92 -128 279 -130q125 0 243 71t172 161l164 778h24l-213 -1012h-24l36 174
q-71 -89 -180 -143t-211 -54z" />
    <glyph glyph-name="Ygrave" unicode="&#x1ef2;" horiz-adv-x="1006" 
d="M506 1999l274 -252l-14 -14l-280 246zM368 0l133 633l-327 950l23 8l320 -934l715 937l20 -14l-729 -952l-131 -628h-24z" />
    <glyph glyph-name="ygrave" unicode="&#x1ef3;" horiz-adv-x="856" 
d="M356 1431l275 -252l-15 -15l-279 247zM949 1008l-909 -1418l-21 13l269 419l-202 984l25 6l196 -961l622 969z" />
    <glyph glyph-name="thinspace" unicode="&#x2009;" horiz-adv-x="40" 
 />
    <glyph glyph-name="endash" unicode="&#x2013;" horiz-adv-x="1024" 
d="M113 651h905l-4 -23h-905z" />
    <glyph glyph-name="emdash" unicode="&#x2014;" horiz-adv-x="1536" 
d="M5 651h1525l-4 -23h-1525z" />
    <glyph glyph-name="quoteleft" unicode="&#x2018;" horiz-adv-x="337" 
d="M307 1247l-47 17l176 364l29 -8z" />
    <glyph glyph-name="quoteright" unicode="&#x2019;" horiz-adv-x="337" 
d="M373 1620l47 -16l-176 -365l-29 8z" />
    <glyph glyph-name="quotesinglbase" unicode="&#x201a;" horiz-adv-x="468" 
d="M166 47l47 -16l-176 -365l-29 8z" />
    <glyph glyph-name="quotedblleft" unicode="&#x201c;" horiz-adv-x="563" 
d="M530 1247l-47 17l176 364l29 -8zM303 1247l-47 17l176 364l29 -8z" />
    <glyph glyph-name="quotedblright" unicode="&#x201d;" horiz-adv-x="563" 
d="M621 1610l47 -17l-176 -364l-29 8zM393 1630l47 -16l-176 -365l-28 8z" />
    <glyph glyph-name="quotedblbase" unicode="&#x201e;" horiz-adv-x="713" 
d="M411 47l47 -16l-176 -365l-29 8zM178 47l47 -16l-176 -365l-29 8z" />
    <glyph glyph-name="dagger" unicode="&#x2020;" horiz-adv-x="577" 
d="M159 1012h215l121 571h26l-121 -571h220l-5 -23h-220l-286 -1358h-27l287 1358h-214z" />
    <glyph glyph-name="daggerdbl" unicode="&#x2021;" horiz-adv-x="596" 
d="M3 -369l78 369h-213l4 23h213l205 966h-214l4 23h215l121 571h26l-120 -571h219l-4 -23h-221l-203 -966h220l-4 -23h-221l-78 -369h-27z" />
    <glyph glyph-name="bullet" unicode="&#x2022;" horiz-adv-x="380" 
d="M113 516q0 32 23 55t55 23t55 -24t23 -56t-23 -54q-23 -23 -56 -23t-55 23q-22 24 -22 56z" />
    <glyph glyph-name="ellipsis" unicode="&#x2026;" horiz-adv-x="1687" 
d="M1282 26q0 13 10 23t24 10t23 -10q24 -24 0 -47q-10 -10 -23 -10t-24 10q-10 11 -10 24zM713 26q0 13 10 23t23 10q14 0 24 -10t10 -23q0 -14 -10 -24t-24 -10t-23 10q-10 10 -10 24zM143 26q1 13 11 23t23 10t23 -10t11 -23q0 -14 -10 -24q-9 -10 -23 -10t-24 10t-11 24
z" />
    <glyph glyph-name="perthousand" unicode="&#x2030;" horiz-adv-x="2582" 
d="M314 -5l1340 1630l20 -17l-1339 -1631zM2493 524q0 124 -72 211t-192 87q-119 0 -217 -86t-129 -228q-34 -144 -35 -205q0 -123 72 -209t194 -86q121 0 218 85q96 85 127 229q6 19 16 68q9 48 13 69t5 65zM528 1530q-120 0 -217 -86q-98 -86 -129 -227q-34 -144 -35 -205
q1 -123 73 -209t194 -86q122 1 217 85q96 84 127 228q5 16 15 66q11 50 15 72t5 65q-1 125 -73 211t-192 86zM1712 524q0 124 -72 211t-192 87t-218 -86t-128 -228q-35 -150 -35 -205q0 -123 72 -209q71 -86 193 -86t218 85t127 229q9 26 17 71q10 45 14 66t4 65zM2112 -16
q-132 0 -210 93t-78 226q0 44 8 82l27 127q34 154 138 244q103 90 233 90t209 -95t79 -227q0 -46 -12 -100t-23 -109q-35 -155 -137 -243t-234 -88zM412 692q-132 0 -211 93q-78 93 -78 227q0 44 8 82l27 127q34 153 138 243t234 90t208 -95t79 -226q-1 -46 -13 -100
t-22 -109q-34 -154 -136 -243t-234 -89zM1331 -16q-132 0 -210 93t-79 226q0 44 9 82l26 127q34 154 138 244t234 90t209 -95t79 -227q-1 -46 -13 -100t-22 -109q-34 -155 -136 -243t-235 -88z" />
    <glyph glyph-name="guilsinglleft" unicode="&#x2039;" horiz-adv-x="458" 
d="M274 201l-24 -8l-148 417l326 418l21 -16l-318 -406z" />
    <glyph glyph-name="guilsinglright" unicode="&#x203a;" horiz-adv-x="446" 
d="M29 209l317 405l-145 406l24 8l150 -418l-326 -417z" />
    <glyph glyph-name="fraction" unicode="&#x2044;" horiz-adv-x="448" 
d="M-379 -5l1340 1630l20 -17l-1339 -1631z" />
    <glyph glyph-name="fraction" unicode="&#x2215;" horiz-adv-x="448" 
d="M-379 -5l1340 1630l20 -17l-1339 -1631z" />
    <glyph glyph-name="twoinferior" unicode="&#x2082;" horiz-adv-x="946" 
d="M715 612q0 70 -51 123t-154 53q-104 0 -184 -69t-103 -172h-24q20 114 111 190q92 76 202 76t169 -60t59 -138t-46 -140t-104 -104l-466 -347h532l-5 -23h-599l520 387q143 108 143 224z" />
    <glyph glyph-name="fourinferior" unicode="&#x2084;" horiz-adv-x="1054" 
d="M724 215v-25h-122l-41 -190h-25l41 190h-417l493 629l19 -14l-461 -590h371l50 235h25l-50 -235h117z" />
    <glyph glyph-name="Euro" unicode="&#x20ac;" horiz-adv-x="1513" 
d="M1543 1335q-208 238 -553 238q-177 0 -354 -85q-177 -86 -303 -234t-175 -330h988l-5 -23h-988q-22 -89 -22 -182v-25h963l-5 -22h-957q9 -138 66 -262t150 -214t220 -142t270 -52q303 0 552 199l17 -20q-253 -201 -569 -203q-155 0 -291 58t-233 158t-153 236t-56 300
t75 327q147 323 485 469q165 70 337 70t316 -64t245 -182z" />
    <glyph glyph-name="trademark" unicode="&#x2122;" horiz-adv-x="1613" 
d="M189 1559l6 24h630l-5 -24h-311l-153 -723h-26l152 723h-293zM820 836l167 782l225 -478l443 482l-167 -784h-27l148 693l-404 -439l-209 445l-149 -701h-27z" />
    <glyph glyph-name="estimated" unicode="&#x212e;" horiz-adv-x="1660" 
d="M820 1247q-108 0 -213 -30q-106 -30 -171 -78t-65 -99v-340q1 -18 7 -25t23 -7h852q22 0 29 7t6 25v340q0 51 -72 100t-180 78t-216 29zM816 -31q-192 0 -356 80t-261 233q-97 154 -97 332q-1 340 216 513q216 173 527 173t507 -186q196 -187 207 -500h-1160
q-18 0 -23 -9t-5 -23v-338q0 -61 125 -139q134 -82 354 -82q118 -1 242 57t200 151h133q-128 -137 -273 -199q-144 -62 -336 -63z" />
    <glyph glyph-name="partialdiff" unicode="&#x2202;" horiz-adv-x="1208" 
d="M468 -12q-206 0 -322 116t-115 293q0 50 11 109q47 221 226 366t401 146q307 0 409 -282l-22 -8q-97 265 -387 265q-139 0 -267 -63t-216 -176q-127 -160 -131 -357q0 -165 109 -275t304 -110q136 0 266 71t218 183t118 260t4 308q-53 316 -300 548q-117 111 -260 185
l10 22q303 -158 470 -453t97 -638q-28 -130 -119 -247q-90 -117 -226 -190t-278 -73z" />
    <glyph glyph-name="product" unicode="&#x220f;" horiz-adv-x="1707" 
d="M240 1559v24h1331v-24h-201l-404 -1919h-25l405 1919h-889l-405 -1919h-25l404 1919h-191z" />
    <glyph glyph-name="summation" unicode="&#x2211;" horiz-adv-x="965" 
d="M1114 1560h-797l323 -736l-642 -801h793l-5 -23h-837l662 827l-331 756h839z" />
    <glyph glyph-name="minus" unicode="&#x2212;" horiz-adv-x="918" 
d="M181 651h634l-3 -23h-634z" />
    <glyph glyph-name="radical" unicode="&#x221a;" horiz-adv-x="1331" 
d="M84 983v25h219l184 -946l977 1571l21 -12l-1010 -1624l-192 986h-199z" />
    <glyph glyph-name="infinity" unicode="&#x221e;" horiz-adv-x="1671" 
d="M1597 609q0 120 -83 204t-225 84q-101 0 -207 -63t-175 -164t-68 -202q1 -129 99 -216t220 -87t223 61q100 61 158 162t58 221zM357 140q-139 0 -229 91t-89 220q0 129 62 237t168 170q107 64 237 64t232 -89t109 -222q61 135 187 223t267 88t231 -91t90 -220t-62 -237
t-168 -170q-106 -64 -236 -64t-232 90t-108 222q-62 -132 -191 -222t-268 -90zM63 453q-1 -120 83 -204t226 -84q102 0 208 63t174 164q69 101 68 202q0 129 -99 216t-221 87t-222 -61t-158 -162t-59 -221z" />
    <glyph glyph-name="integral" unicode="&#x222b;" horiz-adv-x="522" 
d="M-154 -340q122 0 202 69q79 69 106 195l293 1386q29 134 115 209t220 75t193 -80l-19 -14q-55 69 -177 69t-201 -69t-106 -195l-294 -1385q-29 -135 -115 -210q-85 -75 -219 -75t-193 79l18 15q55 -69 177 -69z" />
    <glyph glyph-name="approxequal" unicode="&#x2248;" horiz-adv-x="1181" 
d="M822 237q157 0 268 140l18 -15q-48 -63 -106 -98t-96 -43t-105 -8t-163 58q-39 25 -78 49q-93 58 -175 58t-161 -40t-127 -106l-18 16q46 58 125 106t176 47q96 0 188 -57q38 -24 78 -49q92 -58 176 -58zM907 660q158 0 269 141l18 -15q-48 -63 -106 -98t-96 -43t-105 -8
t-163 58q-39 25 -78 49q-93 59 -175 58q-82 0 -161 -40t-127 -106l-18 16q46 58 126 106q80 47 173 47q92 0 189 -58q40 -25 79 -49q93 -58 175 -58z" />
    <glyph glyph-name="notequal" unicode="&#x2260;" horiz-adv-x="984" 
d="M174 945h416l194 389l24 -11l-190 -378h335l-4 -23h-342l-172 -343h441l-5 -24h-447l-199 -397l-23 11l192 386h-302l4 24h311l171 343h-408z" />
    <glyph glyph-name="lozenge" unicode="&#x25ca;" horiz-adv-x="1047" 
d="M998 795l-297 764l-621 -771l296 -764zM51 792l659 816l317 -817l-659 -816z" />
    <glyph glyph-name="commaaccent" unicode="&#xf6c3;" horiz-adv-x="569" 
d="M225 1517l25 -12l-138 -290l-19 10z" />
    <glyph glyph-name="zero.plf" horiz-adv-x="1238" 
d="M532 3q297 0 438 259q51 91 125 425t74 428q0 143 -106 241q-107 98 -251 97q-144 0 -250 -60q-196 -112 -257 -362q-143 -585 -141 -700q0 -144 104 -236t264 -92zM139 331q0 13 2 31q1 18 3 34t17 98q15 81 28 147q14 65 18 85l69 299q39 189 177 321t346 132
q169 0 282 -105t113 -258q0 -89 -19 -172q-19 -84 -48 -219q-28 -135 -48 -216q-20 -82 -20 -83q-43 -199 -179 -323t-328 -124q-191 0 -302 99t-111 254z" />
    <glyph glyph-name="one.plf" horiz-adv-x="704" 
d="M362 -2l-22 4l307 1452l-514 -260l-10 20l559 285z" />
    <glyph glyph-name="two.plf" horiz-adv-x="1153" 
d="M918 24v-24h-944l893 702q125 96 188 194t63 212q0 154 -106 250t-280 95q-174 0 -323 -127q-148 -127 -188 -314l-24 4q27 128 108 234t193 166t229 61q188 0 302 -103t114 -266q0 -123 -63 -222t-196 -204l-840 -658h874z" />
    <glyph glyph-name="three.plf" horiz-adv-x="1142" 
d="M730 1478q170 0 270 -92q102 -92 102 -232q0 -142 -119 -254t-285 -149q124 -27 200 -115t76 -210t-74 -227q-74 -104 -190 -162t-243 -57q-175 0 -285 96t-110 231q0 41 16 111l25 -4q-16 -75 -17 -107q0 -125 104 -215t267 -89q117 0 227 53t182 152q72 98 72 226
t-96 216t-250 87v24q106 2 216 54q110 53 184 143t74 208t-93 203t-253 85t-298 -118t-156 -280l-24 4q20 172 164 295t314 123z" />
    <glyph glyph-name="four.plf" horiz-adv-x="1056" 
d="M975 374v-24h-211l-74 -352l-24 4l73 348h-688l854 1133l19 -17l-825 -1092h645l85 396l23 -4l-83 -392h206z" />
    <glyph glyph-name="five.plf" horiz-adv-x="1142" 
d="M1050 501q0 -151 -79 -269t-203 -186t-259 -68q-180 0 -296 104t-121 258h25q3 -141 112 -240q110 -98 280 -98q93 0 186 38q196 80 283 256q46 91 46 189q0 156 -104 264t-268 108q-114 0 -222 -46t-188 -128l-20 14l173 757h789v-23h-768l-161 -703q165 151 397 153
q174 -1 286 -115t112 -265z" />
    <glyph glyph-name="six.plf" horiz-adv-x="1250" 
d="M1092 512q0 140 -109 244q-109 102 -285 102t-324 -113t-195 -282l-6 -31q-8 -36 -8 -78q0 -144 109 -248t261 -104q153 0 277 67t202 185t78 258zM718 882q166 0 282 -109t117 -257q0 -148 -79 -270q-80 -122 -210 -195t-292 -73t-280 110q-117 110 -117 266q0 46 8 84
l120 556q47 220 195 352t339 132t305 -103t114 -250q0 -43 -9 -75l-24 4q8 33 8 71q0 137 -106 233q-105 96 -287 96t-324 -128t-186 -336l-85 -400q76 132 210 212q135 80 301 80z" />
    <glyph glyph-name="seven.plf" horiz-adv-x="873" 
d="M195 1431v23h855l-935 -1460l-23 13l915 1424h-812z" />
    <glyph glyph-name="eight.plf" horiz-adv-x="1172" 
d="M329 1058q1 -124 89 -211t231 -86q105 0 215 52q110 51 185 147t75 213t-96 200q-95 83 -249 83t-299 -111q-67 -51 -109 -127t-42 -160zM483 1q139 0 253 59t187 159q71 99 71 219t-96 210q-97 90 -233 90t-251 -52t-192 -151q-78 -99 -78 -225t100 -218t239 -91z
M808 1480q137 0 239 -89t102 -229t-118 -259q-118 -118 -278 -154q121 -29 194 -117t73 -205t-77 -223t-197 -166t-266 -60t-254 97q-107 98 -107 240q0 109 60 203q118 185 364 233q-112 29 -176 113t-64 198t73 212t184 152t248 54z" />
    <glyph glyph-name="nine.plf" horiz-adv-x="1074" 
d="M508 598q146 0 266 61q121 61 201 163q107 142 107 285t-103 245t-266 102q-123 0 -242 -60t-201 -160q-115 -141 -115 -292q-1 -152 103 -248t250 -96zM534 574q-182 0 -294 103t-111 260q0 231 217 405q170 136 355 136t296 -109t111 -257t-113 -304l-628 -823l-19 16
l530 693q-162 -120 -344 -120z" />
    <glyph glyph-name="zero.tlf" horiz-adv-x="1120" 
d="M498 -23q-176 0 -278 89q-101 89 -101 237q0 52 12 111l155 737q39 193 166 313q126 120 296 119q170 0 272 -92t103 -242q0 -53 -12 -108l-155 -731q-42 -200 -162 -316t-296 -117zM499 1q166 0 280 112t153 301l154 731q12 55 13 104q0 143 -95 227t-256 84t-281 -115
t-157 -298l-154 -737q-12 -58 -13 -107q0 -140 95 -221t261 -81z" />
    <glyph glyph-name="one.tlf" horiz-adv-x="1120" 
d="M209 0l5 24h267l318 1525l-416 -226l-12 20l463 254l-328 -1573h249l-5 -24h-541z" />
    <glyph glyph-name="two.tlf" horiz-adv-x="1120" 
d="M906 23v-23h-850l866 942q153 166 152 330q0 119 -88 203q-88 85 -225 85t-244 -100t-138 -268l-25 4q34 174 148 280t260 107q146 0 242 -91t96 -220q0 -169 -162 -346l-829 -903h797z" />
    <glyph glyph-name="three.tlf" horiz-adv-x="1120" 
d="M979 460q0 -140 -67 -246t-176 -168t-248 -62t-245 98t-119 253l23 3q11 -146 111 -238t231 -93q131 1 234 59t167 159q63 101 63 219q0 162 -101 274t-255 111v25h47q153 0 270 114t117 262t-88 241q-89 95 -227 95t-248 -102t-131 -242l-25 4q23 146 140 255t265 109
t244 -102t96 -254t-109 -266t-252 -131q115 -24 199 -131q84 -106 84 -246z" />
    <glyph glyph-name="four.tlf" horiz-adv-x="1120" 
d="M1008 470v-23h-253l-93 -447h-26l94 447h-596l810 1142l20 -14l-785 -1105h555l64 298h24l-62 -298h248z" />
    <glyph glyph-name="zero.sup" horiz-adv-x="839" 
d="M260 1192q0 -120 66 -200t187 -80q120 0 197 65q78 65 122 195t44 250q0 118 -66 198t-186 80t-198 -65t-122 -193t-44 -250zM236 1184q0 124 54 290q36 110 120 180t216 69q132 1 204 -85t71 -208q0 -122 -56 -291q-36 -110 -119 -180t-215 -70t-204 85q-71 86 -71 210z
" />
    <glyph glyph-name="one.sup" horiz-adv-x="512" 
d="M311 901l164 773l-192 -104l-13 20l242 133l-175 -822h-26z" />
    <glyph glyph-name="two.sup" horiz-adv-x="768" 
d="M804 1520q0 70 -50 124t-152 55q-102 0 -185 -69t-105 -173h-24q23 114 112 190q90 76 200 76t170 -61q59 -62 59 -140q0 -134 -150 -247l-466 -351h532l-5 -23h-599l521 392q54 40 98 99q44 58 44 128z" />
    <glyph glyph-name="five.tlf" horiz-adv-x="1120" 
d="M1193 1583v-22h-736l-161 -762q140 131 316 131t290 -124t115 -302q1 -106 -41 -204q-82 -193 -269 -281q-91 -42 -186 -42q-163 0 -273 109t-124 281h24q12 -161 116 -263t257 -103q90 0 176 40q86 41 151 107t104 160t39 196q0 171 -106 287q-106 115 -282 115
t-315 -148l-22 13l171 812h756z" />
    <glyph glyph-name="seven.tlf" horiz-adv-x="1120" 
d="M378 1561v22h791l-920 -1583h-28l908 1561h-751z" />
    <glyph glyph-name="six.tlf" horiz-adv-x="1120" 
d="M172 353q0 -157 103 -255t237 -97q134 0 237 60q102 61 164 167q63 106 63 244t-99 244t-259 107q-122 1 -210 -53t-145 -136v1l-4 -6q-87 -119 -87 -276zM628 847q162 0 267 -113q106 -113 106 -275q0 -199 -141 -340t-318 -141q-176 0 -286 104t-110 270t108 312
l691 934l20 -14l-607 -821q108 84 270 84z" />
    <glyph glyph-name="eight.tlf" horiz-adv-x="1120" 
d="M762 1560q-118 0 -210 -58t-142 -149t-52 -209q0 -118 88 -208t232 -90t262 118t117 265q0 147 -88 239t-207 92zM529 1q116 0 220 61q103 61 166 167q63 107 63 245t-102 244t-239 105q-137 0 -242 -66q-104 -67 -163 -171t-59 -218q0 -160 100 -264t256 -103zM529 -23
q-165 1 -273 111t-109 280q1 170 121 309q120 140 294 164q-103 31 -166 117t-63 198t55 210t151 157q97 60 225 60t223 -98t95 -248q0 -151 -104 -267t-249 -140q123 -34 199 -136t76 -233q0 -132 -67 -244t-176 -176t-232 -64z" />
    <glyph glyph-name="nine.tlf" horiz-adv-x="1120" 
d="M1085 1216q-1 164 -103 262t-236 97t-237 -61t-165 -166t-62 -244t99 -244t258 -107q121 -1 209 53t145 135q92 111 92 275zM630 729q-160 0 -268 113q-106 113 -106 275q0 98 39 188t103 154t151 102t180 37q163 0 273 -104t109 -270q0 -166 -107 -312l-692 -935l-19 15
l606 820q-109 -83 -269 -83z" />
    <glyph glyph-name="mcircumflex" horiz-adv-x="1951" 
d="M895 1108l-16 16l302 306l174 -309l-21 -12l-157 280zM707 1002q-131 0 -247 -66t-181 -150l-166 -786h-25l214 1012h25l-38 -178q79 88 189 140t226 51q117 -1 210 -66t117 -176q79 111 201 177t246 66q171 -2 272 -113t64 -284l-133 -629h-24l132 631q35 175 -66 273
q-100 98 -236 98t-259 -76t-192 -174q8 -57 -6 -123l-133 -629h-25l134 631q35 176 -66 273q-102 98 -233 98z" />
    <glyph glyph-name="ymacron" horiz-adv-x="856" 
d="M319 1261h465v-24h-465v24zM949 1008l-909 -1418l-21 13l269 419l-202 984l25 6l196 -961l622 969z" />
    <glyph glyph-name="Ymacron" horiz-adv-x="1006" 
d="M515 1833h465v-24h-465v24zM368 0l133 633l-327 950l23 8l320 -934l715 937l20 -14l-729 -952l-131 -628h-24z" />
    <glyph glyph-name="Adotaccent" horiz-adv-x="1334" 
d="M891 1828q0 14 10 24q11 10 25 10t24 -10q24 -25 0 -49q-10 -10 -24 -10t-25 10q-10 11 -10 25zM880 1551l-738 -1175h978zM-100 -11l-21 12l995 1586h22l326 -1587h-25l-73 353h-996z" />
    <glyph glyph-name="Ncircumflex" horiz-adv-x="1575" 
d="M791 1697l-17 16l297 251h19l194 -256l-20 -12l-185 239zM123 0l334 1583h25l707 -1543l327 1543h24l-334 -1583h-24l-709 1548l-326 -1548h-24z" />
    <glyph glyph-name="Mcircumflex" horiz-adv-x="1701" 
d="M804 1696l-17 16l297 251h19l194 -256l-20 -12l-184 239zM123 0l334 1583h24l357 -1024l798 1024h30l-334 -1583h-24l323 1536l-787 -1009h-20l-352 1012l-325 -1539h-24z" />
    <glyph glyph-name="adotaccent" horiz-adv-x="1277" 
d="M780 1258q0 14 10 24t25 11q15 0 25 -10q10 -11 10 -25t-10 -24t-24 -10t-26 10q-10 10 -10 24zM571 1q252 0 419 169l126 602q-164 230 -427 230q-157 0 -289 -76t-206 -201t-74 -259t54 -236q54 -103 160 -166t237 -63zM588 -23q-228 0 -361 139t-133 342q0 112 47 216
q97 215 315 305q111 47 233 47q266 0 434 -221l44 207h25l-213 -1012h-25l28 130q-166 -153 -394 -153z" />
    <glyph glyph-name="ncircumflex" horiz-adv-x="1167" 
d="M528 1109l-16 16l302 306l174 -309l-20 -12l-158 280zM693 1002q-119 0 -235 -66t-179 -150l-166 -786h-25l213 1012h25l-38 -181q78 87 188 141t217 54q171 -2 272 -113t64 -284l-132 -629h-25l133 631q17 85 -3 157q-36 132 -175 189q-63 25 -134 25z" />
    <glyph glyph-name="perthousand.alt1" horiz-adv-x="2609" 
d="M291 -51l1337 1706l21 -17l-1338 -1706zM1757 318q0 104 55 202q56 98 152 157q96 60 224 60t223 -98q96 -97 96 -227q1 -130 -59 -227t-155 -151t-201 -54q-145 0 -240 95t-95 243zM2186 714q-119 0 -210 -58t-142 -149t-51 -189q0 -138 88 -228q87 -90 231 -90t262 118
t117 265q0 147 -88 239t-207 92zM1360 737q128 0 224 -98q96 -97 96 -227t-60 -227q-58 -97 -154 -151t-201 -54q-145 0 -240 95t-95 243q0 104 55 202t151 157q96 60 224 60zM1359 714q-119 0 -211 -58t-142 -149t-50 -209t87 -208q88 -90 232 -90q143 0 261 118t118 265
t-88 239t-207 92zM184 1170q0 104 55 202t151 157q96 60 224 60t224 -98q96 -97 96 -227t-60 -227t-154 -151t-220 -54t-221 94q-95 96 -95 244zM908 1249q0 133 -88 225t-207 92t-210 -58t-142 -149t-51 -189q0 -138 88 -228t221 -90q75 0 147 32t125 85t85 127t32 153z
" />
    <glyph glyph-name="three.sup" 
d="M560 1724q96 0 152 -50t56 -132q0 -81 -57 -140t-137 -84q62 -22 92 -68t30 -99q0 -111 -88 -187t-193 -76t-166 53q-60 53 -60 132q0 15 4 32l24 1q-2 -11 -2 -30q0 -76 55 -120q54 -44 150 -44t174 74t77 156t-53 122t-110 41h-31v24h29q78 -1 157 61t79 144t-50 124
t-135 42t-145 -50t-82 -133l-24 4q20 89 90 146q68 57 164 57z" />
    <glyph glyph-name="four.sup" horiz-adv-x="686" 
d="M718 1116v-24h-122l-41 -191h-26l41 191h-416l497 634l19 -14l-465 -596h370l51 235h25l-50 -235h117z" />
    <glyph glyph-name="five.sup" 
d="M521 1373q-132 0 -221 -95l-21 14l88 419h444v-24h-424l-77 -366q92 77 200 77t172 -60t63 -148q1 -126 -95 -213t-206 -87t-173 60q-64 60 -66 145h24q3 -76 59 -128q56 -53 158 -53t188 82t87 194q0 79 -55 131t-145 52z" />
    <glyph glyph-name="six.sup" 
d="M545 1399q88 1 151 -59q64 -60 64 -166t-96 -194q-96 -89 -207 -89q-110 0 -176 58t-66 147t67 176l342 448l20 -14l-271 -355q84 48 172 48zM241 1097q0 -79 59 -130q58 -51 160 -51t189 82q87 83 87 179t-59 147q-57 50 -155 50t-190 -82t-91 -195z" />
    <glyph glyph-name="seven.sup" horiz-adv-x="614" 
d="M293 1687v24h503l-523 -814l-20 12l498 778h-458z" />
    <glyph glyph-name="eight.sup" 
d="M352 1492q0 -76 46 -118t109 -45h6q87 0 167 65t80 145t-49 120q-49 41 -128 41t-155 -66t-76 -142zM425 912q103 0 183 73t80 153t-50 123q-50 42 -118 44h-15q-105 -4 -179 -76t-75 -152q0 -81 53 -123t121 -42zM327 1479q0 101 85 173t175 72t144 -49t54 -129
t-57 -141q-57 -62 -137 -88q56 -18 89 -63t34 -104q0 -110 -89 -186t-186 -76t-155 52t-58 134t60 151q62 70 152 94q-50 20 -81 63q-30 44 -30 97z" />
    <glyph glyph-name="nine.sup" 
d="M246 1424q0 121 96 210t206 89t176 -58q66 -59 66 -147t-66 -176l-342 -448l-21 14l272 356q-84 -48 -172 -48q-87 0 -151 58q-64 60 -64 150zM545 1699q-103 0 -189 -83t-86 -179q0 -97 58 -147t156 -50t190 82t91 196q0 79 -59 130t-161 51z" />
    <glyph glyph-name="i.TRK" horiz-adv-x="411" 
d="M88 0l213 1012h25l-213 -1012h-25zM389 1316q-14 0 -24 10q-11 10 -11 24t10 25q10 10 25 10t25 -10t10 -24t-10 -25q-11 -10 -25 -10z" />
    <glyph glyph-name="percent.alt1" horiz-adv-x="1812" 
d="M291 -51l1337 1706l21 -17l-1338 -1706zM1360 737q128 0 224 -98q96 -97 96 -227t-60 -227q-58 -97 -154 -151t-201 -54q-145 0 -240 95t-95 243q0 104 55 202t151 157q96 60 224 60zM1359 714q-119 0 -211 -58t-142 -149t-50 -209t87 -208q88 -90 232 -90q143 0 261 118
t118 265t-88 239t-207 92zM184 1170q0 104 55 202t151 157q96 60 224 60t224 -98q96 -97 96 -227t-60 -227t-154 -151t-220 -54t-221 94q-95 96 -95 244zM908 1249q0 133 -88 225t-207 92t-210 -58t-142 -149t-51 -189q0 -138 88 -228t221 -90q75 0 147 32t125 85t85 127
t32 153z" />
    <glyph glyph-name="at.case" horiz-adv-x="2101" 
d="M1071 348q100 0 187 44t147 118q2 12 4 19l69 322q-30 104 -116 169t-208 65q-122 -1 -217 -57q-97 -56 -149 -147t-52 -213t92 -222q92 -98 243 -98zM1141 -194q-187 0 -357 72q-341 145 -488 488q-73 170 -73 358t73 356q73 170 195 292t292 195q170 72 358 72
q188 1 360 -69q171 -70 293 -186t194 -273t72 -305t-55 -266q-55 -117 -163 -195t-240 -79q-75 0 -137 53t-62 149v2q-134 -145 -332 -145q-159 0 -259 105t-101 255q0 111 55 207q56 96 158 157q102 60 225 60t211 -58t127 -154l53 247l25 -4l-131 -615q-6 -31 -7 -57
q1 -85 55 -132q54 -46 134 -46t163 44q157 84 224 272q31 88 32 177q0 165 -70 318q-143 312 -474 447q-166 68 -349 68q-182 0 -348 -71t-286 -190t-189 -284q-70 -165 -70 -347t70 -348q140 -332 474 -475q165 -71 348 -71q248 0 463 130l12 -22q-223 -132 -475 -132z" />
    <glyph glyph-name="colon.case" horiz-adv-x="569" 
d="M358 1169q0 14 10 24t24 10t24 -10t10 -24t-16 -30t-34 0t-18 30zM184 345q0 13 10 23t24 11q14 0 24 -10q10 -9 10 -23t-10 -24q-25 -25 -47 0q-11 10 -11 23z" />
    <glyph glyph-name="hyphen.case" horiz-adv-x="684" 
d="M72 807h460l-4 -24h-460z" />
    <glyph glyph-name="f_l.dlig" horiz-adv-x="936" 
d="M719 1569q-103 0 -179 -70t-103 -196l-61 -291h235l-4 -23h-236l-209 -992l-24 5l209 987h-201l5 23h200l64 298q29 133 110 208q82 75 197 75t168 -95q40 -73 15 -193l-277 -1307l-25 4l278 1307q25 111 -11 175q-48 84 -151 85z" />
    <glyph glyph-name="f_f_l.dlig" horiz-adv-x="1445" 
d="M744 1597q128 0 197 -77l-18 -17q-59 71 -179 71t-200 -70t-107 -195l-62 -297h485l64 298q29 133 110 208q82 75 197 75t168 -95q40 -73 15 -193l-277 -1307l-25 4l278 1307q24 111 -12 175q-47 84 -150 85q-103 0 -179 -70t-103 -196l-61 -291h235l-4 -23h-236
l-209 -992l-24 5l209 987h-486l-208 -989h-25l209 989h-201l5 23h200l65 303q29 134 114 208q87 74 215 74z" />
    <glyph glyph-name="registered.alt" horiz-adv-x="1878" 
d="M662 1302v-510h311q110 0 188 74t78 180q0 108 -77 182t-185 74h-315zM662 767v-461h-25v1020h340q118 0 202 -81q85 -81 85 -199t-86 -198q-86 -81 -205 -81h-76l369 -453l-19 -16l-381 469h-204zM938 3q160 0 303 62q293 126 417 418q62 145 62 307t-62 307t-168 250
t-249 167t-303 62t-304 -62q-290 -125 -415 -417q-61 -145 -61 -307t61 -307q61 -146 165 -251t250 -167q144 -62 304 -62zM938 -22q-220 0 -405 108t-293 296q-108 186 -107 409q-1 165 63 315q129 303 428 431q150 63 314 63t313 -62q149 -64 257 -173t173 -259
q64 -150 64 -316t-64 -317q-126 -298 -430 -431q-149 -64 -313 -64z" />
    <glyph glyph-name="a.sup" horiz-adv-x="833" 
d="M465 922q94 0 184 36t147 88l35 167q-31 42 -105 75t-160 33t-157 -24t-109 -61q-76 -74 -76 -151t74 -120t167 -43zM468 897q-103 0 -186 47t-83 141q0 95 91 173q44 38 118 63t158 25t160 -30t112 -73l23 109q32 153 -141 202q-46 13 -97 14q-167 0 -286 -80l-14 20
q125 84 300 84q114 0 197 -58q41 -28 60 -77t6 -110l-96 -453l-25 6l22 106q-141 -109 -319 -109z" />
    <glyph glyph-name="b.sup" horiz-adv-x="861" 
d="M686 1566q-115 0 -208 -56t-147 -150l-46 -216q15 -96 89 -160t179 -64t197 52t150 141q56 90 56 196q0 105 -78 181t-192 76zM980 1305q0 -161 -126 -285t-297 -124q-103 0 -179 53q-75 53 -105 140l-42 -197h-25l243 1138l25 1l-130 -610q132 169 352 169
q114 0 199 -83q85 -82 85 -202z" />
    <glyph glyph-name="c.sup" horiz-adv-x="659" 
d="M464 895q-126 0 -211 83q-84 83 -84 204q0 168 121 286t291 119q135 0 221 -83l-16 -17q-78 77 -220 77t-257 -111t-115 -271q0 -111 76 -187q76 -77 194 -77t217 65l15 -18q-106 -70 -232 -70z" />
    <glyph glyph-name="d.sup" horiz-adv-x="868" 
d="M248 1185q0 -110 76 -187t196 -77q118 -1 216 55t148 153l38 182q-4 105 -84 178t-197 73q-163 0 -278 -109t-115 -268zM510 897q-120 1 -203 85q-84 84 -84 203q1 166 121 283t297 117q108 0 188 -59t106 -153l141 659h26l-243 -1138h-25l35 170q-121 -167 -359 -167z
" />
    <glyph glyph-name="e.sup" horiz-adv-x="815" 
d="M623 1569q-130 0 -232 -78t-139 -194l649 2q8 120 -70 195t-208 75zM527 889q-153 0 -234 85t-81 227t107 263q51 58 131 94t175 35q137 0 227 -83t73 -224l-1 -11l-679 -2q-9 -40 -9 -80q0 -118 74 -199t212 -81q83 0 150 25t141 78l14 -21q-147 -106 -300 -106z" />
    <glyph glyph-name="f.sup" horiz-adv-x="374" 
d="M619 1954q-81 0 -133 -46t-70 -130l-41 -194h145l-4 -24h-146l-142 -667h-25l141 667h-141l4 24h142l42 198q19 93 79 145q60 51 152 51t135 -55l-19 -14q-38 45 -119 45z" />
    <glyph glyph-name="g.sup" horiz-adv-x="860" 
d="M240 1185q0 -110 76 -187t195 -77q118 1 215 55t147 150l40 189q-6 104 -85 175t-195 72q-163 0 -278 -109t-115 -268zM860 1062q-121 -165 -358 -165q-119 1 -203 85t-84 203q0 166 120 283t298 117q107 0 187 -59t107 -151l44 208h25l-138 -649q-31 -150 -132 -233
t-262 -83q-237 0 -349 135l18 16q105 -126 331 -126q153 0 246 76t124 219z" />
    <glyph glyph-name="h.sup" horiz-adv-x="859" 
d="M647 1589q154 0 233 -103q57 -75 33 -186l-86 -402l-24 6l86 403q22 99 -29 166q-70 92 -204 92q-95 0 -175 -50t-129 -115l-106 -502l-25 6l239 1119l24 -5l-120 -566q129 137 283 137z" />
    <glyph glyph-name="i.sup" horiz-adv-x="296" 
d="M394 1905q0 14 10 24t24 10t26 -10q10 -10 10 -24q0 -15 -10 -25t-24 -10t-26 10q-10 11 -10 25zM213 893l149 702l26 -5l-149 -701z" />
    <glyph glyph-name="j.sup" horiz-adv-x="317" 
d="M453 1920q0 14 10 24t24 11q15 0 25 -10q10 -11 10 -25t-10 -24t-24 -11q-14 1 -25 11q-10 10 -10 24zM285 965l134 628l24 -4l-134 -628q-22 -99 -82 -155t-148 -62l-2 25q170 11 208 196z" />
    <glyph glyph-name="k.sup" horiz-adv-x="690" 
d="M195 899l242 1138h25l-179 -841l516 395l14 -18l-301 -231l229 -441l-23 -10l-226 436l-218 -166l-55 -262h-24z" />
    <glyph glyph-name="l.sup" horiz-adv-x="305" 
d="M203 901l242 1138h25l-243 -1138h-24z" />
    <glyph glyph-name="m.sup" horiz-adv-x="1343" 
d="M865 1333l-90 -441l-24 4l83 404q24 112 -38 189t-181 77q-169 0 -290 -165h-1l-108 -509l-25 4l150 705l25 -5l-32 -146q122 140 283 140q108 0 173 -56t76 -137q40 87 119 140t179 53t162 -45q119 -85 80 -272l-81 -381l-25 4l82 388q26 100 -25 191q-53 91 -211 91
q-86 0 -169 -66t-112 -167z" />
    <glyph glyph-name="n.sup" horiz-adv-x="815" 
d="M617 1589q159 0 224 -92t38 -225l-81 -381l-25 4l82 388q25 98 -29 191q-54 91 -210 91q-82 1 -163 -49q-80 -50 -128 -116h-1l-108 -509l-25 4l150 704l25 -4l-32 -147q124 141 283 141z" />
    <glyph glyph-name="o.sup" horiz-adv-x="833" 
d="M617 1563q-165 0 -279 -111t-114 -270q0 -109 78 -185t202 -75q156 0 276 114t119 268q0 109 -81 184t-201 75zM617 1586q130 0 218 -82t88 -192t-56 -204t-153 -152q-98 -58 -220 -58t-208 83t-86 201q0 166 122 285t295 119z" />
    <glyph glyph-name="p.sup" horiz-adv-x="866" 
d="M682 1566q-116 0 -212 -60t-147 -157l-41 -194q11 -101 85 -168q73 -67 181 -67t200 52t150 141q56 90 56 196q0 105 -78 181t-194 76zM978 1305q0 -161 -126 -285t-297 -124q-105 0 -182 55q-76 55 -105 144l-102 -484l-26 2l207 970l26 -1l-36 -168q59 80 149 128
t206 48t201 -83q85 -82 85 -202z" />
    <glyph glyph-name="q.sup" horiz-adv-x="837" 
d="M490 920q118 0 216 55t147 151l39 186q-5 105 -85 177t-196 72q-163 0 -278 -109t-115 -268q0 -110 77 -187t195 -77zM480 896q-118 0 -202 84t-84 204q0 166 120 283t297 117q105 0 187 -59t107 -152l45 210h27l-207 -971h-27l96 450q-120 -166 -359 -166z" />
    <glyph glyph-name="r.sup" horiz-adv-x="571" 
d="M541 1586q89 0 135 -59t33 -150h-23q12 78 -26 131q-38 54 -114 54q-150 1 -216 -141l-112 -522h-27l147 685h27l-22 -100q72 102 198 102z" />
    <glyph glyph-name="s.sup" horiz-adv-x="733" 
d="M431 912q103 0 177 32t105 74q31 41 31 96q0 93 -141 117l-206 35q-141 24 -141 127q0 92 90 144q90 51 220 51t239 -76l-14 -20q-105 72 -218 72t-176 -30q-64 -30 -90 -64t-26 -79q0 -80 120 -101l206 -36q162 -27 162 -145q0 -55 -31 -100q-55 -80 -190 -108
q-57 -13 -117 -13q-186 0 -329 94l15 20q136 -90 314 -90z" />
    <glyph glyph-name="t.sup" horiz-adv-x="399" 
d="M490 1956l-78 -372h151l-5 -24h-151l-143 -669h-26l142 669h-152l5 24h152l79 372h26z" />
    <glyph glyph-name="u.sup" horiz-adv-x="817" 
d="M478 890q-124 0 -187 66t-63 169q0 40 10 82l80 382h25l-82 -393q-7 -32 -7 -68q0 -92 55 -153t159 -61q181 0 302 163l109 512h24l-146 -693h-26l28 132q-120 -138 -281 -138z" />
    <glyph glyph-name="v.sup" horiz-adv-x="663" 
d="M424 948l405 645l21 -12l-434 -692h-4l-155 694l26 6z" />
    <glyph glyph-name="w.sup" horiz-adv-x="1122" 
d="M865 961l381 632l22 -10l-415 -694h-5l-97 634l-360 -634h-4l-128 694l25 4l118 -626l358 626h6z" />
    <glyph glyph-name="x.sup" horiz-adv-x="683" 
d="M663 892l-184 319l-319 -319l-17 16l325 324l-202 352l21 12l198 -347l345 345l17 -16l-350 -349l186 -325z" />
    <glyph glyph-name="y.sup" horiz-adv-x="684" 
d="M282 701l121 193l-146 698l25 4l141 -671l427 670l20 -12l-560 -882h-28z" />
    <glyph glyph-name="z.sup" horiz-adv-x="676" 
d="M648 921v-23h-494l573 666h-432v22h484l-573 -665h442z" />
    <glyph glyph-name="zero.num" horiz-adv-x="839" 
d="M482 784q120 0 197 65t122 195t45 250q0 118 -67 198t-187 80t-196 -65q-77 -65 -115 -174q-109 -319 15 -469q66 -80 186 -80zM205 1056q0 124 54 290q36 110 120 180t216 69q132 1 204 -85q71 -86 71 -208t-56 -291q-36 -110 -119 -180t-215 -70t-204 85
q-71 86 -71 210z" />
    <glyph glyph-name="one.num" horiz-adv-x="512" 
d="M311 773l164 773l-192 -104l-13 20l242 133l-175 -822h-26z" />
    <glyph glyph-name="two.num" horiz-adv-x="768" 
d="M783 1392q0 70 -49 125q-50 54 -152 54t-186 -69q-83 -69 -104 -173h-25q23 114 112 190q90 76 201 76t170 -61q59 -62 59 -140q0 -134 -151 -247l-465 -351h532l-5 -23h-599l520 392q54 40 98 99q44 58 44 128z" />
    <glyph glyph-name="three.num" 
d="M548 1596q96 0 152 -50t56 -132q0 -81 -57 -140t-137 -84q62 -22 92 -68t30 -99q0 -111 -88 -187t-194 -76t-165 53q-60 53 -60 132q0 15 3 32l25 1q-2 -11 -2 -30q0 -76 55 -120t150 -44t173 74q77 74 77 156t-52 122t-110 41h-31v24h29q78 -1 157 61t79 144t-50 124
t-135 42t-145 -50t-83 -133l-23 4q20 89 89 146t165 57z" />
    <glyph glyph-name="four.num" horiz-adv-x="686" 
d="M708 988v-24h-122l-41 -191h-26l41 191h-417l498 634l18 -14l-464 -596h370l50 235h26l-50 -235h117z" />
    <glyph glyph-name="five.num" 
d="M501 1245q-134 0 -221 -95l-22 14l88 419h445v-24h-424l-77 -366q92 77 200 77t172 -60t63 -148q0 -126 -96 -213t-205 -87t-174 60q-64 60 -66 145h25q2 -76 58 -128q57 -53 159 -53t188 82t86 194q0 79 -55 131t-144 52z" />
    <glyph glyph-name="six.num" 
d="M427 763q-110 0 -177 58q-66 58 -66 147t67 176l342 448l20 -14l-271 -355q84 48 172 48q88 1 152 -59t63 -150q0 -121 -96 -210t-206 -89zM210 969q0 -79 59 -130t161 -51t188 82q86 83 87 179q-1 96 -59 147q-58 50 -156 50t-188 -82q-92 -82 -92 -195z" />
    <glyph glyph-name="seven.num" horiz-adv-x="614" 
d="M262 1559v24h503l-522 -814l-21 12l498 778h-458z" />
    <glyph glyph-name="eight.num" 
d="M322 1364q0 -76 46 -118t108 -45h6q87 0 167 65t80 145t-49 120q-49 41 -128 41q-78 0 -154 -66t-76 -142zM394 784q103 0 184 73q80 73 79 167q0 67 -50 109t-118 44h-15q-106 -4 -180 -76t-74 -152q0 -81 53 -123t121 -42zM296 1351q0 101 85 173t175 72t144 -49
t54 -129t-56 -141q-58 -62 -138 -88q56 -18 90 -63t33 -104q0 -110 -89 -186t-186 -76t-155 52t-58 134t61 151q61 70 152 94q-50 19 -81 63t-31 97z" />
    <glyph glyph-name="nine.num" 
d="M528 1595q110 0 176 -58q66 -59 66 -147t-67 -176l-342 -448l-20 14l271 356q-84 -48 -172 -48t-151 58q-63 60 -63 166t96 194q96 89 206 89zM464 1112q98 0 189 82t91 196q0 79 -59 130t-161 51t-188 -83t-86 -179q0 -97 58 -147t156 -50z" />
    <glyph glyph-name="zero.den" horiz-adv-x="839" 
d="M359 11q120 0 197 65q77 66 122 196t45 248t-67 199q-66 80 -186 80t-197 -65t-115 -174q-110 -320 14 -470q66 -80 187 -79zM357 -12q-131 0 -203 86t-72 210t54 288q36 110 120 180t216 70t204 -86t72 -206q0 -122 -57 -292q-36 -110 -119 -180t-215 -70z" />
    <glyph glyph-name="one.den" horiz-adv-x="512" 
d="M178 0l164 773l-192 -104l-13 20l242 133l-175 -822h-26z" />
    <glyph glyph-name="two.den" horiz-adv-x="768" 
d="M669 620q0 70 -50 123q-50 55 -152 55t-185 -69t-105 -173h-24q23 114 112 190q91 76 201 76t169 -61t59 -140q0 -134 -150 -247l-466 -351h532l-5 -23h-599l520 392q54 40 99 99q44 59 44 129z" />
    <glyph glyph-name="three.den" 
d="M426 823q96 -1 151 -51q56 -50 56 -131t-57 -140t-137 -84q61 -22 91 -68t31 -99q0 -112 -88 -188q-87 -76 -193 -76t-166 54q-60 53 -60 132q0 15 3 32l25 1q-2 -11 -2 -30q0 -75 55 -119t150 -45q95 0 173 73t78 156t-52 123t-111 40h-31v25h29q78 0 157 61t79 144
t-50 124t-135 41q-84 0 -144 -50q-60 -51 -83 -133l-24 5q19 89 89 146t166 57z" />
    <glyph glyph-name="four.den" horiz-adv-x="686" 
d="M564 215v-25h-122l-41 -190h-25l41 190h-417l498 635l18 -14l-465 -596h371l50 235h26l-51 -235h117z" />
    <glyph glyph-name="five.den" 
d="M378 472q-132 0 -221 -95l-22 14l88 419h445v-25h-424l-77 -365q93 77 201 77q108 1 170 -59q64 -60 64 -149q0 -126 -96 -213t-205 -87t-174 60q-64 60 -66 145h25q2 -76 58 -128t158 -52t190 82q86 82 86 193q0 79 -56 131t-144 52z" />
    <glyph glyph-name="six.den" 
d="M294 -10q-110 0 -177 58q-66 58 -66 147t67 176l342 448l20 -14l-271 -355q84 48 172 48t151 -60q64 -60 64 -164q0 -106 -96 -195t-206 -89zM77 196q0 -79 59 -130q59 -52 161 -52q103 0 189 83t86 179t-59 146q-57 50 -155 51t-190 -81t-91 -196z" />
    <glyph glyph-name="seven.den" horiz-adv-x="614" 
d="M112 785v25h502l-522 -814l-20 12l497 777h-457z" />
    <glyph glyph-name="eight.den" 
d="M199 591q0 -77 46 -119t108 -44h6q87 0 167 65t80 145t-49 120t-128 40t-155 -65q-76 -66 -75 -142zM271 11q103 0 184 73q80 74 80 154q-1 80 -51 122t-117 43h-16q-105 -3 -179 -75t-74 -152t52 -122q53 -42 121 -43zM173 578q0 101 85 173t175 72q91 0 145 -49
q54 -48 54 -128t-58 -142t-137 -88q55 -18 89 -63t34 -104q0 -109 -88 -186t-186 -77t-156 53q-58 51 -58 133t61 152t152 94q-50 20 -81 64t-31 96z" />
    <glyph glyph-name="nine.den" 
d="M318 314q-88 0 -152 60t-64 164q0 106 96 195t207 89q110 0 176 -58t66 -147t-66 -176l-342 -448l-21 14l271 355q-83 -48 -171 -48zM127 536q1 -96 59 -146t156 -51q98 0 188 82q91 82 92 195q0 79 -60 130q-60 52 -160 52q-102 0 -188 -83t-87 -179z" />
    <glyph glyph-name="zero.sub" horiz-adv-x="839" 
d="M66 106q0 -122 66 -200q66 -79 187 -79q121 1 197 65t121 195t45 249t-67 199q-67 80 -189 79q-226 0 -316 -258q-44 -128 -44 -250zM41 98q0 124 54 290q36 110 120 180t216 70t204 -86t72 -207t-57 -292q-36 -109 -119 -179t-215 -70t-203 84q-72 86 -72 210z" />
    <glyph glyph-name="one.sub" horiz-adv-x="512" 
d="M147 -184l164 773l-192 -105l-13 21l242 133l-175 -822h-26z" />
    <glyph glyph-name="two.sub" horiz-adv-x="768" 
d="M607 436q0 70 -49 123q-50 54 -152 54t-186 -69q-83 -69 -104 -172h-25q23 114 112 190q91 76 201 76t169 -61t59 -140q1 -134 -150 -248l-466 -351h533l-5 -22h-599l520 392q54 40 98 99t44 129z" />
    <glyph glyph-name="three.sub" 
d="M384 639q96 0 152 -51q56 -52 56 -132t-57 -139t-137 -85q61 -22 92 -67q30 -46 30 -99q0 -112 -88 -188t-194 -76t-165 54q-60 54 -60 132q0 15 3 31l25 1q-2 -11 -2 -29q0 -75 55 -120t150 -45t173 74q78 73 78 156q-1 83 -53 123t-110 40h-31v25h29q78 0 157 61
t79 144t-50 124t-135 41t-145 -50q-59 -51 -82 -133l-24 4q20 89 90 147q68 58 164 57z" />
    <glyph glyph-name="four.sub" horiz-adv-x="686" 
d="M530 31v-25h-121l-41 -190h-26l41 190h-417l498 635l18 -14l-465 -596h371l50 234h26l-50 -234h116z" />
    <glyph glyph-name="five.sub" 
d="M347 288q-132 0 -221 -95l-22 14l89 419h444v-25h-424l-77 -365q92 76 200 76t172 -59t63 -149q1 -126 -95 -213t-206 -87t-173 60q-64 60 -66 145h24q3 -76 59 -128t140 -52q120 0 206 82t87 193q0 80 -55 132t-145 52z" />
    <glyph glyph-name="six.sub" 
d="M350 313q88 0 152 -59t63 -165q0 -106 -96 -195t-206 -89q-110 1 -176 59q-67 58 -67 146t67 176l342 449l21 -14l-272 -356q84 48 172 48zM46 11q0 -79 59 -130t161 -51t188 83t87 179q-1 96 -59 146q-58 51 -156 51t-188 -82q-92 -82 -92 -196z" />
    <glyph glyph-name="seven.sub" horiz-adv-x="614" 
d="M57 601v25h503l-522 -814l-21 12l498 777h-458z" />
    <glyph glyph-name="eight.sub" 
d="M147 406q1 -76 47 -118t108 -44h6q87 0 167 65t80 145t-49 120t-128 40t-155 -66t-76 -142zM220 -173q103 0 183 73q80 74 80 154t-50 122t-118 43h-15q-106 -4 -180 -76q-74 -71 -74 -151t53 -122t121 -43zM122 393q0 101 85 173t175 73q90 0 144 -49q54 -48 54 -128
t-56 -142q-58 -62 -138 -89q56 -18 90 -63t33 -103q0 -109 -89 -186t-186 -77t-155 52q-59 52 -59 134t62 152t151 93q-51 19 -81 63t-30 97z" />
    <glyph glyph-name="nine.sub" 
d="M266 130q-88 0 -151 59t-63 165t95 195q97 89 207 89t176 -58t66 -147t-67 -176l-342 -448l-20 14l271 355q-84 -48 -172 -48zM290 155q98 -1 188 81q92 82 92 196q0 79 -59 130t-161 51t-188 -83q-86 -82 -86 -178t58 -146t156 -51z" />
    <glyph glyph-name="dieresis_i" horiz-adv-x="964" 
d="M672 1220q0 13 10 23t24 10t23 -10q10 -10 10 -23q0 -14 -10 -24t-23 -10t-24 10q-10 11 -10 24zM337 1220q0 13 10 23t24 10t30 -16t0 -33q-16 -18 -30 -18t-24 10t-10 24z" />
    </font>
</defs>
</svg>
